EncodeSans-ExtraBold.ufo
<glyph name="exclam" format="2">
  <advance width="629.7373737373737"/>
  <unicode hex="0021"/>
  <outline>
    <contour>
      <point x="203.2929292929293" y="501.4545454545454" type="line"/>
      <point x="430.7373737373737" y="501.4545454545454" type="line"/>
      <point x="513.9999999999999" y="981.0101010101009" type="line"/>
      <point x="513.9999999999999" y="1480.0" type="line"/>
      <point x="115.73737373737376" y="1480.0" type="line"/>
      <point x="115.73737373737376" y="981.0101010101009" type="line"/>
    </contour>
    <contour>
      <point x="314.86868686868684" y="-18.58585858585858" type="curve" smooth="yes"/>
      <point x="459.9090909090908" y="-18.58585858585858"/>
      <point x="553.7373737373737" y="66.37373737373736"/>
      <point x="553.7373737373737" y="192.80808080808075" type="curve" smooth="yes"/>
      <point x="553.7373737373737" y="319.24242424242414"/>
      <point x="463.34343434343424" y="404.4848484848484"/>
      <point x="314.86868686868684" y="404.4848484848484" type="curve" smooth="yes"/>
      <point x="166.3939393939394" y="404.4848484848484"/>
      <point x="76.00000000000003" y="322.67676767676755"/>
      <point x="76.00000000000003" y="192.80808080808075" type="curve" smooth="yes"/>
      <point x="76.00000000000003" y="62.939393939393916"/>
      <point x="169.82828282828282" y="-18.58585858585858"/>
    </contour>
  </outline>
</glyph>
<glyph name="quotedbl" format="2">
  <advance width="964.7878787878788"/>
  <unicode hex="0022"/>
  <outline>
    <contour>
      <point x="133.50505050505052" y="820.3434343434344" type="line"/>
      <point x="362.3939393939394" y="820.3434343434344" type="line"/>
      <point x="431.33333333333326" y="1616.0" type="line"/>
      <point x="64.56565656565661" y="1616.0" type="line"/>
    </contour>
    <contour>
      <point x="602.3939393939394" y="820.3434343434344" type="line"/>
      <point x="831.2828282828282" y="820.3434343434344" type="line"/>
      <point x="900.2222222222221" y="1616.0" type="line"/>
      <point x="533.4545454545454" y="1616.0" type="line"/>
    </contour>
  </outline>
</glyph>
<glyph name="numbersign" format="2">
  <advance width="1288.8888888888887"/>
  <unicode hex="0023"/>
  <outline>
    <contour>
      <point x="642.7575757575758" y="0.0" type="line"/>
      <point x="927.6969696969695" y="0.0" type="line"/>
      <point x="1081.6969696969695" y="1480.0" type="line"/>
      <point x="796.7575757575758" y="1480.0" type="line"/>
    </contour>
    <contour>
      <point x="100.0" y="370.36363636363643" type="line"/>
      <point x="1188.8888888888887" y="370.36363636363643" type="line"/>
      <point x="1188.8888888888887" y="651.0101010101009" type="line"/>
      <point x="100.0" y="651.0101010101009" type="line"/>
    </contour>
    <contour>
      <point x="207.19191919191923" y="0.0" type="line"/>
      <point x="492.13131313131305" y="0.0" type="line"/>
      <point x="646.131313131313" y="1480.0" type="line"/>
      <point x="361.1919191919192" y="1480.0" type="line"/>
    </contour>
    <contour>
      <point x="100.0" y="828.9898989898991" type="line"/>
      <point x="1188.8888888888887" y="828.9898989898991" type="line"/>
      <point x="1188.8888888888887" y="1109.6363636363635" type="line"/>
      <point x="100.0" y="1109.6363636363635" type="line"/>
    </contour>
  </outline>
</glyph>
<glyph name="dollar" format="2">
  <advance width="1185.151515151515"/>
  <unicode hex="0024"/>
  <outline>
    <contour>
      <point x="508.40404040404036" y="-19.717171717171716" type="curve" smooth="yes"/>
      <point x="906.2626262626262" y="-19.717171717171716"/>
      <point x="1137.070707070707" y="159.91919191919192"/>
      <point x="1137.070707070707" y="449.5454545454545" type="curve" smooth="yes"/>
      <point x="1137.070707070707" y="681.4444444444443"/>
      <point x="1002.4747474747473" y="817.6161616161615"/>
      <point x="710.7171717171716" y="889.050505050505" type="curve" smooth="yes"/>
      <point x="588.6161616161615" y="920.5050505050505" type="line" smooth="yes"/>
      <point x="460.5050505050504" y="954.8888888888888"/>
      <point x="427.4545454545453" y="988.5151515151515"/>
      <point x="427.4545454545453" y="1055.0404040404042" type="curve" smooth="yes"/>
      <point x="427.4545454545453" y="1135.2626262626263"/>
      <point x="493.4848484848484" y="1194.1717171717173"/>
      <point x="733.8686868686868" y="1194.1717171717173" type="curve" smooth="yes"/>
      <point x="837.8686868686868" y="1194.1717171717173"/>
      <point x="964.6262626262626" y="1178.4545454545455"/>
      <point x="1056.7474747474746" y="1153.1818181818182" type="curve"/>
      <point x="1056.7474747474746" y="1460.7272727272727" type="line"/>
      <point x="962.3131313131312" y="1483.858585858586"/>
      <point x="837.2929292929292" y="1499.7171717171718"/>
      <point x="707.8181818181818" y="1499.7171717171718" type="curve" smooth="yes"/>
      <point x="261.5959595959596" y="1499.7171717171718"/>
      <point x="48.0808080808081" y="1326.8181818181818"/>
      <point x="48.0808080808081" y="1034.7272727272727" type="curve" smooth="yes"/>
      <point x="48.0808080808081" y="802.969696969697"/>
      <point x="184.3939393939394" y="665.7979797979799"/>
      <point x="447.7070707070707" y="600.939393939394" type="curve" smooth="yes"/>
      <point x="569.8080808080808" y="569.4848484848485" type="line" smooth="yes"/>
      <point x="718.7979797979798" y="530.5252525252525"/>
      <point x="757.6969696969697" y="494.8888888888889"/>
      <point x="757.6969696969697" y="423.3636363636364" type="curve" smooth="yes"/>
      <point x="757.6969696969697" y="338.58585858585855"/>
      <point x="696.8282828282828" y="285.82828282828274"/>
      <point x="502.10101010101005" y="285.82828282828274" type="curve" smooth="yes"/>
      <point x="383.6464646464646" y="285.82828282828274"/>
      <point x="212.97979797979798" y="309.69696969696963"/>
      <point x="88.12121212121212" y="348.26262626262616" type="curve"/>
      <point x="88.12121212121212" y="40.717171717171716" type="line"/>
      <point x="211.14141414141415" y="2.5757575757575744"/>
      <point x="365.050505050505" y="-19.717171717171716"/>
    </contour>
    <contour>
      <point x="416.4747474747475" y="-240.0" type="line"/>
      <point x="768.9595959595958" y="-240.0" type="line"/>
      <point x="768.9595959595958" y="70.10101010101008" type="line"/>
      <point x="416.4747474747475" y="68.68686868686866" type="line"/>
    </contour>
    <contour>
      <point x="416.4747474747475" y="1428.4848484848485" type="line"/>
      <point x="768.9595959595958" y="1428.4848484848485" type="line"/>
      <point x="768.9595959595958" y="1720.0" type="line"/>
      <point x="416.4747474747475" y="1720.0" type="line"/>
    </contour>
  </outline>
</glyph>
<glyph name="ampersand" format="2">
  <advance width="1640.060606060606"/>
  <unicode hex="0026"/>
  <outline>
    <contour>
      <point x="1468.5555555555557" y="-20.0" type="line"/>
      <point x="1640.060606060606" y="257.8080808080807" type="line"/>
      <point x="737.2323232323232" y="840.7575757575756" type="line" smooth="yes"/>
      <point x="639.4646464646464" y="907.4040404040404"/>
      <point x="604.2121212121211" y="956.3131313131313"/>
      <point x="604.2121212121211" y="1025.4545454545455" type="curve" smooth="yes"/>
      <point x="604.2121212121211" y="1128.4040404040404"/>
      <point x="674.8383838383838" y="1194.1717171717173"/>
      <point x="906.9090909090909" y="1194.1717171717173" type="curve" smooth="yes"/>
      <point x="986.6161616161615" y="1194.1717171717173"/>
      <point x="1077.7878787878788" y="1183.4545454545455"/>
      <point x="1147.060606060606" y="1169.1818181818182" type="curve"/>
      <point x="1147.060606060606" y="1476.7272727272727" type="line"/>
      <point x="1067.3232323232323" y="1490.4343434343434"/>
      <point x="980.5959595959596" y="1499.7171717171718"/>
      <point x="877.2828282828282" y="1499.7171717171718" type="curve" smooth="yes"/>
      <point x="434.92929292929296" y="1499.7171717171718"/>
      <point x="224.8383838383839" y="1322.8080808080808"/>
      <point x="224.8383838383839" y="1033.8989898989898" type="curve" smooth="yes"/>
      <point x="224.8383838383839" y="879.0808080808081"/>
      <point x="292.39393939393943" y="737.1919191919192"/>
      <point x="565.7272727272727" y="562.9494949494949" type="curve" smooth="yes"/>
    </contour>
    <contour>
      <point x="699.9090909090909" y="-18.0" type="curve" smooth="yes"/>
      <point x="1133.7878787878788" y="-18.0"/>
      <point x="1397.4747474747473" y="203.9393939393939"/>
      <point x="1397.4747474747473" y="639.8383838383838" type="curve" smooth="yes"/>
      <point x="1397.4747474747473" y="714.5252525252524"/>
      <point x="1386.1919191919192" y="803.9393939393939"/>
      <point x="1365.7777777777778" y="885.3535353535353" type="curve"/>
      <point x="1067.3939393939395" y="885.3535353535353" type="line"/>
      <point x="1087.949494949495" y="803.9393939393939"/>
      <point x="1100.5151515151515" y="712.5252525252524"/>
      <point x="1100.5151515151515" y="636.4040404040403" type="curve" smooth="yes"/>
      <point x="1100.5151515151515" y="343.8383838383837"/>
      <point x="947.8282828282828" y="247.1919191919191"/>
      <point x="743.9797979797979" y="247.1919191919191" type="curve" smooth="yes"/>
      <point x="569.2020202020201" y="247.1919191919191"/>
      <point x="471.121212121212" y="321.21212121212113"/>
      <point x="471.121212121212" y="447.4949494949495" type="curve" smooth="yes"/>
      <point x="471.121212121212" y="537.2323232323232"/>
      <point x="511.2020202020201" y="600.5656565656566"/>
      <point x="576.1818181818181" y="650.5252525252525" type="curve"/>
      <point x="381.06060606060606" y="790.8080808080808" type="line"/>
      <point x="221.0909090909091" y="739.2929292929293"/>
      <point x="93.46464646464648" y="600.3030303030303"/>
      <point x="93.46464646464648" y="405.4343434343434" type="curve" smooth="yes"/>
      <point x="93.46464646464648" y="148.84848484848484"/>
      <point x="298.0909090909091" y="-18.0"/>
    </contour>
  </outline>
</glyph>
<glyph name="quotesingle" format="2">
  <advance width="495.89898989898984"/>
  <unicode hex="0027"/>
  <outline>
    <contour>
      <point x="133.50505050505052" y="820.3434343434344" type="line"/>
      <point x="362.3939393939394" y="820.3434343434344" type="line"/>
      <point x="431.33333333333326" y="1616.0" type="line"/>
      <point x="64.56565656565661" y="1616.0" type="line"/>
    </contour>
  </outline>
</glyph>
<glyph name="parenleft" format="2">
  <advance width="735.8989898989898"/>
  <unicode hex="0028"/>
  <outline>
    <contour>
      <point x="438.64646464646466" y="-440.0" type="curve"/>
      <point x="828.4545454545454" y="-440.0" type="line"/>
      <point x="581.5959595959595" y="-137.44444444444443"/>
      <point x="479.59595959595947" y="189.66666666666669"/>
      <point x="479.59595959595947" y="588.0" type="curve" smooth="yes"/>
      <point x="479.59595959595947" y="986.3333333333334"/>
      <point x="581.5959595959595" y="1313.4444444444443"/>
      <point x="828.4545454545454" y="1616.0" type="curve"/>
      <point x="438.64646464646466" y="1616.0" type="line"/>
      <point x="194.7777777777778" y="1344.050505050505"/>
      <point x="95.92929292929294" y="990.6161616161617"/>
      <point x="95.92929292929294" y="588.0" type="curve" smooth="yes"/>
      <point x="95.92929292929294" y="185.3838383838384"/>
      <point x="194.7777777777778" y="-168.05050505050502"/>
    </contour>
  </outline>
</glyph>
<glyph name="parenright" format="2">
  <advance width="735.8989898989898"/>
  <unicode hex="0029"/>
  <outline>
    <contour>
      <point x="-92.55555555555549" y="-440.0" type="curve"/>
      <point x="297.2525252525252" y="-440.0" type="line"/>
      <point x="541.121212121212" y="-168.05050505050502"/>
      <point x="639.9696969696969" y="185.3838383838384"/>
      <point x="639.9696969696969" y="588.0" type="curve" smooth="yes"/>
      <point x="639.9696969696969" y="990.6161616161617"/>
      <point x="541.121212121212" y="1344.050505050505"/>
      <point x="297.2525252525252" y="1616.0" type="curve"/>
      <point x="-92.55555555555549" y="1616.0" type="line"/>
      <point x="154.30303030303037" y="1313.4444444444443"/>
      <point x="256.30303030303037" y="986.3333333333334"/>
      <point x="256.30303030303037" y="588.0" type="curve" smooth="yes"/>
      <point x="256.30303030303037" y="189.66666666666669"/>
      <point x="154.30303030303037" y="-137.44444444444443"/>
    </contour>
  </outline>
</glyph>
<glyph name="asterisk" format="2">
  <advance width="1036.2828282828282"/>
  <unicode hex="002A"/>
  <outline>
    <contour>
      <point x="657.4747474747473" y="1123.0" type="line"/>
      <point x="842.5959595959596" y="1143.5252525252527" type="line"/>
      <point x="1006.2828282828282" y="1196.3737373737374" type="line"/>
      <point x="930.4747474747475" y="1428.949494949495" type="line"/>
      <point x="767.070707070707" y="1375.2424242424242" type="line"/>
      <point x="600.2525252525252" y="1278.3535353535353" type="line"/>
      <point x="640.2929292929292" y="1467.7575757575758" type="line"/>
      <point x="640.2929292929292" y="1616.0" type="line"/>
      <point x="395.989898989899" y="1616.0" type="line"/>
      <point x="395.989898989899" y="1467.7575757575758" type="line"/>
      <point x="436.030303030303" y="1278.3535353535353" type="line"/>
      <point x="269.2121212121212" y="1375.2424242424242" type="line"/>
      <point x="105.80808080808079" y="1428.949494949495" type="line"/>
      <point x="30.0" y="1196.3737373737374" type="line"/>
      <point x="193.6868686868687" y="1143.5252525252527" type="line"/>
      <point x="378.80808080808083" y="1123.0" type="line"/>
      <point x="238.22222222222223" y="996.1919191919192" type="line"/>
      <point x="149.25252525252526" y="872.6565656565657" type="line"/>
      <point x="347.21212121212113" y="729.0505050505051" type="line"/>
      <point x="436.18181818181813" y="851.7272727272727" type="line"/>
      <point x="518.1414141414141" y="1037.7474747474748" type="line"/>
      <point x="600.10101010101" y="851.7272727272727" type="line"/>
      <point x="689.070707070707" y="729.0505050505051" type="line"/>
      <point x="887.030303030303" y="872.6565656565657" type="line"/>
      <point x="798.060606060606" y="996.1919191919192" type="line"/>
    </contour>
  </outline>
</glyph>
<glyph name="plus" format="2">
  <advance width="1108.3636363636363"/>
  <unicode hex="002B"/>
  <outline>
    <contour>
      <point x="405.989898989899" y="305.8787878787879" type="line"/>
      <point x="702.3737373737373" y="305.8787878787879" type="line"/>
      <point x="702.3737373737373" y="618.1010101010102" type="line"/>
      <point x="1002.3232323232323" y="618.1010101010102" type="line"/>
      <point x="1002.3232323232323" y="901.8989898989898" type="line"/>
      <point x="702.3737373737373" y="901.8989898989898" type="line"/>
      <point x="702.3737373737373" y="1214.121212121212" type="line"/>
      <point x="405.989898989899" y="1214.121212121212" type="line"/>
      <point x="405.989898989899" y="901.8989898989898" type="line"/>
      <point x="106.04040404040407" y="901.8989898989898" type="line"/>
      <point x="106.04040404040407" y="618.1010101010102" type="line"/>
      <point x="405.989898989899" y="618.1010101010102" type="line"/>
    </contour>
  </outline>
</glyph>
<glyph name="comma" format="2">
  <advance width="589.7373737373737"/>
  <unicode hex="002C"/>
  <outline>
    <contour>
      <point x="143.55555555555557" y="-351.5151515151515" type="curve"/>
      <point x="355.8383838383838" y="-351.5151515151515" type="line"/>
      <point x="462.5252525252524" y="-216.3030303030303"/>
      <point x="532.0202020202019" y="-33.61616161616164"/>
      <point x="532.0202020202019" y="137.60606060606057" type="curve" smooth="yes"/>
      <point x="532.0202020202019" y="329.8282828282827"/>
      <point x="447.63636363636357" y="426.80808080808066"/>
      <point x="289.4343434343434" y="426.80808080808066" type="curve" smooth="yes"/>
      <point x="146.11111111111111" y="426.80808080808066"/>
      <point x="56.00000000000003" y="344.14141414141403"/>
      <point x="56.00000000000003" y="204.2525252525252" type="curve" smooth="yes"/>
      <point x="56.00000000000003" y="66.65656565656565"/>
      <point x="151.54545454545456" y="-18.58585858585858"/>
      <point x="294.86868686868684" y="-18.58585858585858" type="curve" smooth="yes"/>
      <point x="341.21212121212113" y="-18.58585858585858" type="line"/>
      <point x="257.3636363636364" y="46.34343434343433" type="line"/>
      <point x="257.3636363636364" y="-83.13131313131314"/>
      <point x="215.6161616161616" y="-203.17171717171718"/>
    </contour>
  </outline>
</glyph>
<glyph name="hyphen" format="2">
  <advance width="933.6565656565656"/>
  <unicode hex="002D"/>
  <outline>
    <contour>
      <point x="106.04040404040407" y="417.2424242424243" type="line"/>
      <point x="827.6161616161615" y="417.2424242424243" type="line"/>
      <point x="827.6161616161615" y="719.9292929292928" type="line"/>
      <point x="106.04040404040407" y="719.9292929292928" type="line"/>
    </contour>
  </outline>
</glyph>
<glyph name="period" format="2">
  <advance width="589.7373737373737"/>
  <unicode hex="002E"/>
  <outline>
    <contour>
      <point x="294.86868686868684" y="-18.58585858585858" type="curve" smooth="yes"/>
      <point x="439.9090909090908" y="-18.58585858585858"/>
      <point x="533.7373737373737" y="69.80808080808079"/>
      <point x="533.7373737373737" y="203.9696969696969" type="curve" smooth="yes"/>
      <point x="533.7373737373737" y="338.13131313131305"/>
      <point x="443.34343434343424" y="426.80808080808066"/>
      <point x="294.86868686868684" y="426.80808080808066" type="curve" smooth="yes"/>
      <point x="146.3939393939394" y="426.80808080808066"/>
      <point x="56.00000000000003" y="341.56565656565647"/>
      <point x="56.00000000000003" y="203.9696969696969" type="curve" smooth="yes"/>
      <point x="56.00000000000003" y="66.37373737373736"/>
      <point x="149.82828282828282" y="-18.58585858585858"/>
    </contour>
  </outline>
</glyph>
<glyph name="slash" format="2">
  <advance width="848.4141414141413"/>
  <unicode hex="002F"/>
  <outline>
    <contour>
      <point x="0.0" y="-240.0" type="line"/>
      <point x="368.6464646464645" y="-240.0" type="line"/>
      <point x="848.4141414141413" y="1616.0" type="line"/>
      <point x="479.7676767676768" y="1616.0" type="line"/>
    </contour>
  </outline>
</glyph>
<glyph name="zero" format="2">
  <advance width="1368.8585858585857"/>
  <unicode hex="0030"/>
  <note>
600
</note>
  <outline>
    <contour>
      <point x="684.0" y="-19.717171717171716" type="curve" smooth="yes"/>
      <point x="1057.4343434343432" y="-19.717171717171716"/>
      <point x="1282.9292929292928" y="217.49494949494948"/>
      <point x="1282.9292929292928" y="740.0" type="curve" smooth="yes"/>
      <point x="1282.9292929292928" y="1262.5050505050506"/>
      <point x="1058.0" y="1499.7171717171718"/>
      <point x="684.0" y="1499.7171717171718" type="curve" smooth="yes"/>
      <point x="310.0" y="1499.7171717171718"/>
      <point x="85.92929292929294" y="1262.5050505050506"/>
      <point x="85.92929292929294" y="740.0" type="curve" smooth="yes"/>
      <point x="85.92929292929294" y="217.49494949494948"/>
      <point x="310.5656565656566" y="-19.717171717171716"/>
    </contour>
    <contour>
      <point x="684.8585858585858" y="290.97979797979787" type="curve" smooth="yes"/>
      <point x="539.3030303030303" y="290.97979797979787"/>
      <point x="460.15151515151507" y="396.6060606060605"/>
      <point x="460.15151515151507" y="740.5656565656566" type="curve" smooth="yes"/>
      <point x="460.15151515151507" y="1083.3939393939395"/>
      <point x="541.020202020202" y="1189.020202020202"/>
      <point x="684.8585858585858" y="1189.020202020202" type="curve" smooth="yes"/>
      <point x="827.8383838383838" y="1189.020202020202"/>
      <point x="908.7070707070708" y="1083.3939393939395"/>
      <point x="908.7070707070708" y="739.4343434343434" type="curve" smooth="yes"/>
      <point x="908.7070707070708" y="396.6060606060605"/>
      <point x="827.8383838383838" y="290.97979797979787"/>
    </contour>
  </outline>
</glyph>
<glyph name="one" format="2">
  <advance width="866.181818181818"/>
  <unicode hex="0031"/>
  <outline>
    <contour>
      <point x="353.4848484848485" y="0.0" type="line"/>
      <point x="735.7272727272726" y="0.0" type="line"/>
      <point x="735.7272727272726" y="1485.7171717171718" type="line"/>
      <point x="489.38383838383834" y="1485.7171717171718" type="line"/>
      <point x="28.15151515151515" y="1170.121212121212" type="line"/>
      <point x="28.15151515151515" y="815.7979797979799" type="line"/>
      <point x="489.38383838383834" y="1131.1111111111113" type="line"/>
      <point x="353.4848484848485" y="1266.3434343434344" type="line"/>
    </contour>
  </outline>
</glyph>
<glyph name="two" format="2">
  <advance width="1104.2828282828282"/>
  <unicode hex="0032"/>
  <outline>
    <contour>
      <point x="43.81818181818183" y="0.0" type="line"/>
      <point x="1054.8888888888887" y="0.0" type="line"/>
      <point x="1054.8888888888887" y="313.84848484848476" type="line"/>
      <point x="459.6969696969696" y="313.84848484848476" type="line"/>
      <point x="466.2525252525251" y="218.58585858585852" type="line"/>
      <point x="779.9595959595958" y="587.5656565656566" type="line" smooth="yes"/>
      <point x="934.9292929292928" y="770.0505050505051"/>
      <point x="986.9191919191919" y="912.7777777777778"/>
      <point x="987.060606060606" y="1059.4646464646464" type="curve" smooth="yes"/>
      <point x="987.3434343434342" y="1365.111111111111"/>
      <point x="787.6969696969696" y="1499.7171717171718"/>
      <point x="398.050505050505" y="1499.7171717171718" type="curve" smooth="yes"/>
      <point x="273.8989898989899" y="1499.7171717171718"/>
      <point x="115.96969696969698" y="1475.2828282828282"/>
      <point x="25.10101010101011" y="1444.4343434343434" type="curve"/>
      <point x="25.10101010101011" y="1136.888888888889" type="line"/>
      <point x="114.7979797979798" y="1170.878787878788"/>
      <point x="238.26262626262627" y="1194.1717171717173"/>
      <point x="355.979797979798" y="1194.1717171717173" type="curve" smooth="yes"/>
      <point x="540.3434343434344" y="1194.1717171717173"/>
      <point x="610.5454545454546" y="1137.080808080808"/>
      <point x="610.5454545454546" y="1021.4040404040404" type="curve" smooth="yes"/>
      <point x="610.5454545454546" y="934.3535353535353"/>
      <point x="567.2828282828283" y="842.4242424242424"/>
      <point x="447.4848484848485" y="695.10101010101" type="curve" smooth="yes"/>
      <point x="43.81818181818183" y="203.9898989898989" type="line"/>
    </contour>
  </outline>
</glyph>
<glyph name="three" format="2">
  <advance width="1113.2424242424242"/>
  <unicode hex="0033"/>
  <outline>
    <contour>
      <point x="434.9191919191919" y="-19.717171717171716" type="curve" smooth="yes"/>
      <point x="854.080808080808" y="-19.717171717171716"/>
      <point x="1056.7070707070707" y="144.16161616161617"/>
      <point x="1056.7070707070707" y="415.32323232323233" type="curve" smooth="yes"/>
      <point x="1056.7070707070707" y="617.1515151515151"/>
      <point x="939.4545454545453" y="737.2626262626262"/>
      <point x="733.9696969696969" y="769.979797979798" type="curve"/>
      <point x="733.8282828282828" y="756.0" type="line"/>
      <point x="904.181818181818" y="793.8484848484849"/>
      <point x="1008.5656565656566" y="920.6868686868687"/>
      <point x="1008.5656565656566" y="1095.5050505050506" type="curve" smooth="yes"/>
      <point x="1008.5656565656566" y="1352.979797979798"/>
      <point x="821.2222222222222" y="1499.7171717171718"/>
      <point x="442.6161616161616" y="1499.7171717171718" type="curve" smooth="yes"/>
      <point x="314.16161616161617" y="1499.7171717171718"/>
      <point x="159.80808080808083" y="1477.2828282828282"/>
      <point x="62.65656565656567" y="1444.858585858586" type="curve"/>
      <point x="62.65656565656567" y="1163.0707070707072" type="line"/>
      <point x="161.7878787878788" y="1197.7777777777778"/>
      <point x="288.82828282828285" y="1218.2121212121212"/>
      <point x="399.6868686868687" y="1218.2121212121212" type="curve" smooth="yes"/>
      <point x="572.3030303030304" y="1218.2121212121212"/>
      <point x="644.0707070707072" y="1163.1515151515152"/>
      <point x="644.0707070707072" y="1060.3030303030303" type="curve" smooth="yes"/>
      <point x="644.0707070707072" y="959.6464646464647"/>
      <point x="573.939393939394" y="898.7474747474747"/>
      <point x="380.1111111111111" y="898.7474747474747" type="curve" smooth="yes"/>
      <point x="186.8787878787879" y="898.7474747474747" type="line"/>
      <point x="186.8787878787879" y="612.949494949495" type="line"/>
      <point x="417.29292929292933" y="612.949494949495" type="line" smooth="yes"/>
      <point x="624.7474747474748" y="612.949494949495"/>
      <point x="698.2222222222223" y="552.2020202020202"/>
      <point x="698.2222222222223" y="439.3636363636364" type="curve" smooth="yes"/>
      <point x="698.2222222222223" y="323.4040404040403"/>
      <point x="617.6161616161617" y="261.7878787878787"/>
      <point x="418.7474747474747" y="261.7878787878787" type="curve" smooth="yes"/>
      <point x="297.01010101010104" y="261.7878787878787"/>
      <point x="153.11111111111111" y="281.7878787878787"/>
      <point x="39.82828282828284" y="311.6262626262626" type="curve"/>
      <point x="39.82828282828284" y="29.83838383838384" type="line"/>
      <point x="158.56565656565658" y="-1.4343434343434331"/>
      <point x="292.3030303030303" y="-19.717171717171716"/>
    </contour>
  </outline>
</glyph>
<glyph name="four" format="2">
  <advance width="1304.8686868686868"/>
  <unicode hex="0034"/>
  <outline>
    <contour>
      <point x="33.393939393939405" y="286.97979797979804" type="line"/>
      <point x="1275.181818181818" y="286.97979797979804" type="line"/>
      <point x="1275.181818181818" y="579.3636363636363" type="line"/>
      <point x="365.2828282828282" y="579.3636363636363" type="line"/>
      <point x="405.3232323232322" y="494.1212121212121" type="line"/>
      <point x="893.4040404040403" y="1480.0" type="line"/>
      <point x="528.9191919191919" y="1480.0" type="line"/>
      <point x="33.393939393939405" y="494.40404040404036" type="line"/>
    </contour>
    <contour>
      <point x="749.3535353535353" y="0.0" type="line"/>
      <point x="1090.3838383838383" y="0.0" type="line"/>
      <point x="1090.3838383838383" y="980.0" type="line"/>
      <point x="785.6767676767677" y="980.0" type="line"/>
      <point x="749.3535353535353" y="579.3636363636363" type="line"/>
    </contour>
  </outline>
</glyph>
<glyph name="five" format="2">
  <advance width="1126.5353535353534"/>
  <unicode hex="0035"/>
  <outline>
    <contour>
      <point x="461.9191919191919" y="-19.717171717171716" type="curve" smooth="yes"/>
      <point x="871.3535353535353" y="-19.717171717171716"/>
      <point x="1080.9898989898988" y="143.73737373737373"/>
      <point x="1081.8484848484848" y="449.6464646464646" type="curve" smooth="yes"/>
      <point x="1082.7070707070707" y="736.8282828282828"/>
      <point x="901.4040404040404" y="887.1414141414141"/>
      <point x="442.02020202020196" y="912.8585858585858" type="curve" smooth="yes"/>
      <point x="253.58585858585855" y="923.0" type="line"/>
      <point x="474.72727272727263" y="793.7171717171717" type="line"/>
      <point x="511.9999999999999" y="1354.141414141414" type="line"/>
      <point x="347.35353535353534" y="1188.4747474747476" type="line"/>
      <point x="1022.4242424242424" y="1188.4747474747476" type="line"/>
      <point x="1022.4242424242424" y="1480.0" type="line"/>
      <point x="161.94949494949495" y="1480.0" type="line"/>
      <point x="110.37373737373738" y="645.7878787878789" type="line"/>
      <point x="298.80808080808083" y="635.6464646464647" type="line" smooth="yes"/>
      <point x="645.6161616161617" y="615.3636363636364"/>
      <point x="722.5050505050506" y="557.3030303030304"/>
      <point x="722.5050505050506" y="440.9191919191919" type="curve" smooth="yes"/>
      <point x="722.5050505050506" y="326.69696969696963"/>
      <point x="642.3232323232323" y="265.2222222222222"/>
      <point x="445.8888888888889" y="265.2222222222222" type="curve" smooth="yes"/>
      <point x="323.44444444444446" y="265.2222222222222"/>
      <point x="179.54545454545456" y="286.2222222222221"/>
      <point x="66.68686868686869" y="316.7777777777777" type="curve"/>
      <point x="66.68686868686869" y="34.98989898989899" type="line"/>
      <point x="185.0" y="1.2828282828282835"/>
      <point x="319.020202020202" y="-19.717171717171716"/>
    </contour>
  </outline>
</glyph>
<glyph name="six" format="2">
  <advance width="1285.3232323232323"/>
  <unicode hex="0036"/>
  <outline>
    <contour>
      <point x="695.2727272727273" y="-19.717171717171716" type="curve" smooth="yes"/>
      <point x="1028.7272727272727" y="-19.717171717171716"/>
      <point x="1234.20202020202" y="161.07070707070704"/>
      <point x="1234.20202020202" y="453.0808080808081" type="curve" smooth="yes"/>
      <point x="1234.20202020202" y="767.1313131313132"/>
      <point x="1026.7272727272725" y="903.5555555555555"/>
      <point x="755.4343434343434" y="903.5555555555555" type="curve" smooth="yes"/>
      <point x="619.6060606060605" y="903.5555555555555"/>
      <point x="481.060606060606" y="858.7171717171717"/>
      <point x="406.7979797979797" y="782.1717171717171" type="curve"/>
      <point x="406.7979797979797" y="524.0202020202021" type="line"/>
      <point x="480.05050505050497" y="599.949494949495"/>
      <point x="580.7979797979797" y="633.2121212121212"/>
      <point x="678.4545454545454" y="633.2121212121212" type="curve" smooth="yes"/>
      <point x="807.2828282828283" y="633.2121212121212"/>
      <point x="890.3131313131313" y="574.868686868687"/>
      <point x="890.3131313131313" y="442.35353535353534" type="curve" smooth="yes"/>
      <point x="890.3131313131313" y="312.69696969696963"/>
      <point x="811.1414141414141" y="252.34343434343424"/>
      <point x="697.1313131313132" y="252.34343434343424" type="curve" smooth="yes"/>
      <point x="554.8787878787878" y="252.34343434343424"/>
      <point x="465.7171717171716" y="333.3636363636363"/>
      <point x="465.7171717171716" y="631.89898989899" type="curve" smooth="yes"/>
      <point x="465.7171717171716" y="793.2929292929292" type="line" smooth="yes"/>
      <point x="465.7171717171716" y="1074.4646464646464"/>
      <point x="591.7777777777777" y="1211.3434343434344"/>
      <point x="861.5353535353535" y="1211.3434343434344" type="curve" smooth="yes"/>
      <point x="965.0" y="1211.3434343434344"/>
      <point x="1064.2929292929293" y="1196.6262626262628"/>
      <point x="1155.6060606060605" y="1165.4848484848485" type="curve"/>
      <point x="1155.6060606060605" y="1454.141414141414" type="line"/>
      <point x="1065.2929292929293" y="1487.7171717171718"/>
      <point x="958.6969696969696" y="1499.7171717171718"/>
      <point x="841.9292929292928" y="1499.7171717171718" type="curve" smooth="yes"/>
      <point x="366.04040404040404" y="1499.7171717171718"/>
      <point x="95.21212121212123" y="1232.2424242424242"/>
      <point x="95.21212121212123" y="692.0" type="curve" smooth="yes"/>
      <point x="95.21212121212123" y="193.19191919191917"/>
      <point x="338.01010101010104" y="-19.717171717171716"/>
    </contour>
  </outline>
</glyph>
<glyph name="seven" format="2">
  <advance width="1051.6969696969695"/>
  <unicode hex="0037"/>
  <outline>
    <contour>
      <point x="148.23232323232324" y="0.0" type="line"/>
      <point x="539.7676767676767" y="0.0" type="line"/>
      <point x="994.4141414141413" y="1276.0101010101012" type="line"/>
      <point x="994.4141414141413" y="1480.0" type="line"/>
      <point x="11.141414141414142" y="1480.0" type="line"/>
      <point x="11.141414141414142" y="1166.1515151515152" type="line"/>
      <point x="759.5454545454545" y="1166.1515151515152" type="line"/>
      <point x="631.4949494949495" y="1276.2929292929293" type="line"/>
    </contour>
  </outline>
</glyph>
<glyph name="nine" format="2">
  <advance width="1285.3232323232323"/>
  <unicode hex="0039"/>
  <outline>
    <contour>
      <point x="590.050505050505" y="1499.7171717171718" type="curve" smooth="yes"/>
      <point x="256.5959595959596" y="1499.7171717171718"/>
      <point x="51.121212121212125" y="1318.9292929292928"/>
      <point x="51.121212121212125" y="1026.919191919192" type="curve" smooth="yes"/>
      <point x="51.121212121212125" y="712.8686868686868"/>
      <point x="258.5959595959596" y="576.4444444444445"/>
      <point x="529.8888888888889" y="576.4444444444445" type="curve" smooth="yes"/>
      <point x="665.7171717171717" y="576.4444444444445"/>
      <point x="804.2626262626262" y="621.2828282828283"/>
      <point x="878.5252525252525" y="697.8282828282829" type="curve"/>
      <point x="878.5252525252525" y="955.9797979797979" type="line"/>
      <point x="805.2727272727273" y="880.050505050505"/>
      <point x="704.5252525252525" y="846.7878787878788"/>
      <point x="606.8686868686868" y="846.7878787878788" type="curve" smooth="yes"/>
      <point x="478.0404040404039" y="846.7878787878788"/>
      <point x="395.0101010101009" y="905.131313131313"/>
      <point x="395.0101010101009" y="1037.6464646464647" type="curve" smooth="yes"/>
      <point x="395.0101010101009" y="1167.3030303030305"/>
      <point x="474.18181818181813" y="1227.6565656565658"/>
      <point x="588.1919191919192" y="1227.6565656565658" type="curve" smooth="yes"/>
      <point x="730.4444444444445" y="1227.6565656565658"/>
      <point x="819.6060606060606" y="1146.6363636363637"/>
      <point x="819.6060606060606" y="848.10101010101" type="curve" smooth="yes"/>
      <point x="819.6060606060606" y="686.7070707070708" type="line" smooth="yes"/>
      <point x="819.6060606060606" y="405.53535353535347"/>
      <point x="693.5454545454545" y="268.6565656565656"/>
      <point x="423.78787878787875" y="268.6565656565656" type="curve" smooth="yes"/>
      <point x="320.32323232323233" y="268.6565656565656"/>
      <point x="221.03030303030303" y="283.3737373737373"/>
      <point x="129.7171717171717" y="314.51515151515144" type="curve"/>
      <point x="129.7171717171717" y="25.858585858585858" type="line"/>
      <point x="220.03030303030303" y="-7.717171717171716"/>
      <point x="326.6262626262626" y="-19.717171717171716"/>
      <point x="443.3939393939394" y="-19.717171717171716" type="curve" smooth="yes"/>
      <point x="919.2828282828282" y="-19.717171717171716"/>
      <point x="1190.111111111111" y="247.75757575757575"/>
      <point x="1190.111111111111" y="788.0" type="curve" smooth="yes"/>
      <point x="1190.111111111111" y="1286.8080808080808"/>
      <point x="947.3131313131312" y="1499.7171717171718"/>
    </contour>
  </outline>
</glyph>
<glyph name="colon" format="2">
  <advance width="589.7373737373737"/>
  <unicode hex="003A"/>
  <outline>
    <contour>
      <point x="294.86868686868684" y="-18.58585858585858" type="curve" smooth="yes"/>
      <point x="439.9090909090908" y="-18.58585858585858"/>
      <point x="533.7373737373737" y="69.80808080808079"/>
      <point x="533.7373737373737" y="203.9696969696969" type="curve" smooth="yes"/>
      <point x="533.7373737373737" y="338.13131313131305"/>
      <point x="443.34343434343424" y="426.80808080808066"/>
      <point x="294.86868686868684" y="426.80808080808066" type="curve" smooth="yes"/>
      <point x="146.3939393939394" y="426.80808080808066"/>
      <point x="56.00000000000003" y="341.56565656565647"/>
      <point x="56.00000000000003" y="203.9696969696969" type="curve" smooth="yes"/>
      <point x="56.00000000000003" y="66.37373737373736"/>
      <point x="149.82828282828282" y="-18.58585858585858"/>
    </contour>
    <contour>
      <point x="294.86868686868684" y="670.3636363636365" type="curve" smooth="yes"/>
      <point x="439.9090909090908" y="670.3636363636365"/>
      <point x="533.7373737373737" y="758.7575757575759"/>
      <point x="533.7373737373737" y="892.9191919191919" type="curve" smooth="yes"/>
      <point x="533.7373737373737" y="1027.080808080808"/>
      <point x="443.34343434343424" y="1115.7575757575758"/>
      <point x="294.86868686868684" y="1115.7575757575758" type="curve" smooth="yes"/>
      <point x="146.3939393939394" y="1115.7575757575758"/>
      <point x="56.00000000000003" y="1030.5151515151515"/>
      <point x="56.00000000000003" y="892.9191919191919" type="curve" smooth="yes"/>
      <point x="56.00000000000003" y="755.3232323232324"/>
      <point x="149.82828282828282" y="670.3636363636365"/>
    </contour>
  </outline>
</glyph>
<glyph name="semicolon" format="2">
  <advance width="589.7373737373737"/>
  <unicode hex="003B"/>
  <outline>
    <contour>
      <point x="143.55555555555557" y="-351.5151515151515" type="curve"/>
      <point x="355.8383838383838" y="-351.5151515151515" type="line"/>
      <point x="462.5252525252524" y="-216.3030303030303"/>
      <point x="532.0202020202019" y="-33.61616161616164"/>
      <point x="532.0202020202019" y="137.60606060606057" type="curve" smooth="yes"/>
      <point x="532.0202020202019" y="329.8282828282827"/>
      <point x="447.63636363636357" y="426.80808080808066"/>
      <point x="289.4343434343434" y="426.80808080808066" type="curve" smooth="yes"/>
      <point x="146.11111111111111" y="426.80808080808066"/>
      <point x="56.00000000000003" y="344.14141414141403"/>
      <point x="56.00000000000003" y="204.2525252525252" type="curve" smooth="yes"/>
      <point x="56.00000000000003" y="66.65656565656565"/>
      <point x="151.54545454545456" y="-18.58585858585858"/>
      <point x="294.86868686868684" y="-18.58585858585858" type="curve" smooth="yes"/>
      <point x="341.21212121212113" y="-18.58585858585858" type="line"/>
      <point x="257.3636363636364" y="46.34343434343433" type="line"/>
      <point x="257.3636363636364" y="-83.13131313131314"/>
      <point x="215.6161616161616" y="-203.17171717171718"/>
    </contour>
    <contour>
      <point x="294.86868686868684" y="670.3636363636365" type="curve" smooth="yes"/>
      <point x="439.9090909090908" y="670.3636363636365"/>
      <point x="533.7373737373737" y="758.7575757575759"/>
      <point x="533.7373737373737" y="892.9191919191919" type="curve" smooth="yes"/>
      <point x="533.7373737373737" y="1027.080808080808"/>
      <point x="443.34343434343424" y="1115.7575757575758"/>
      <point x="294.86868686868684" y="1115.7575757575758" type="curve" smooth="yes"/>
      <point x="146.3939393939394" y="1115.7575757575758"/>
      <point x="56.00000000000003" y="1030.5151515151515"/>
      <point x="56.00000000000003" y="892.9191919191919" type="curve" smooth="yes"/>
      <point x="56.00000000000003" y="755.3232323232324"/>
      <point x="149.82828282828282" y="670.3636363636365"/>
    </contour>
  </outline>
</glyph>
<glyph name="equal" format="2">
  <advance width="1108.3636363636363"/>
  <unicode hex="003D"/>
  <outline>
    <contour>
      <point x="106.04040404040407" y="849.89898989899" type="line"/>
      <point x="1002.3232323232323" y="849.89898989899" type="line"/>
      <point x="1002.3232323232323" y="1133.6969696969695" type="line"/>
      <point x="106.04040404040407" y="1133.6969696969695" type="line"/>
    </contour>
    <contour>
      <point x="106.04040404040407" y="386.30303030303037" type="line"/>
      <point x="1002.3232323232323" y="386.30303030303037" type="line"/>
      <point x="1002.3232323232323" y="670.10101010101" type="line"/>
      <point x="106.04040404040407" y="670.10101010101" type="line"/>
    </contour>
  </outline>
</glyph>
<glyph name="greater" format="2">
  <advance width="1108.3636363636363"/>
  <unicode hex="003E"/>
  <outline>
    <contour>
      <point x="106.04040404040407" y="251.45454545454552" type="line"/>
      <point x="1002.3232323232323" y="581.1717171717172" type="line"/>
      <point x="1002.3232323232323" y="938.8282828282828" type="line"/>
      <point x="106.04040404040407" y="1268.5454545454545" type="line"/>
      <point x="106.04040404040407" y="983.6161616161617" type="line"/>
      <point x="798.3737373737374" y="742.8484848484849" type="line"/>
      <point x="798.3737373737374" y="781.4444444444445" type="line"/>
      <point x="106.04040404040407" y="536.3838383838383" type="line"/>
    </contour>
  </outline>
</glyph>
<glyph name="question" format="2">
  <advance width="1022.1414141414141"/>
  <unicode hex="003F"/>
  <outline>
    <contour>
      <point x="342.82828282828285" y="499.1919191919191" type="line"/>
      <point x="570.2727272727273" y="499.1919191919191" type="line"/>
      <point x="596.5858585858585" y="676.4141414141415" type="line"/>
      <point x="832.9393939393939" y="743.3333333333334"/>
      <point x="974.4545454545454" y="876.0606060606061"/>
      <point x="974.4545454545454" y="1091.2121212121212" type="curve" smooth="yes"/>
      <point x="974.4545454545454" y="1352.979797979798"/>
      <point x="787.1111111111111" y="1499.7171717171718"/>
      <point x="408.50505050505046" y="1499.7171717171718" type="curve" smooth="yes"/>
      <point x="280.050505050505" y="1499.7171717171718"/>
      <point x="125.6969696969697" y="1477.2828282828282"/>
      <point x="28.545454545454554" y="1444.858585858586" type="curve"/>
      <point x="28.545454545454554" y="1154.4848484848485" type="line"/>
      <point x="127.67676767676768" y="1189.1919191919192"/>
      <point x="253.0" y="1209.6262626262628"/>
      <point x="363.7171717171717" y="1209.6262626262628" type="curve" smooth="yes"/>
      <point x="538.1919191919192" y="1209.6262626262628"/>
      <point x="609.959595959596" y="1157.1414141414143"/>
      <point x="609.959595959596" y="1058.5858585858587" type="curve" smooth="yes"/>
      <point x="609.959595959596" y="964.6060606060606"/>
      <point x="540.1414141414142" y="897.1111111111111"/>
      <point x="278.4545454545455" y="852.7777777777777" type="curve"/>
    </contour>
    <contour>
      <point x="456.9797979797979" y="-18.58585858585858" type="curve" smooth="yes"/>
      <point x="602.3030303030303" y="-18.58585858585858"/>
      <point x="695.8484848484848" y="66.65656565656563"/>
      <point x="695.8484848484848" y="192.80808080808075" type="curve" smooth="yes"/>
      <point x="695.8484848484848" y="319.24242424242414"/>
      <point x="605.4545454545454" y="404.4848484848484"/>
      <point x="456.9797979797979" y="404.4848484848484" type="curve" smooth="yes"/>
      <point x="308.5050505050505" y="404.4848484848484"/>
      <point x="218.11111111111117" y="322.67676767676755"/>
      <point x="218.11111111111117" y="192.80808080808075" type="curve" smooth="yes"/>
      <point x="218.11111111111117" y="63.2222222222222"/>
      <point x="311.93939393939394" y="-18.58585858585858"/>
    </contour>
  </outline>
</glyph>
<glyph name="at" format="2">
  <advance width="2152.424242424242"/>
  <unicode hex="0040"/>
  <outline>
    <contour>
      <point x="1122.4242424242423" y="-460.0" type="curve" smooth="yes"/>
      <point x="1285.0505050505049" y="-460.0"/>
      <point x="1443.10101010101" y="-441.4343434343434"/>
      <point x="1596.181818181818" y="-405.7171717171717" type="curve"/>
      <point x="1596.181818181818" y="-167.7171717171718" type="line"/>
      <point x="1438.4141414141413" y="-204.14141414141423"/>
      <point x="1284.3434343434342" y="-222.28282828282838"/>
      <point x="1122.4242424242423" y="-222.28282828282838" type="curve" smooth="yes"/>
      <point x="584.6464646464647" y="-222.28282828282838"/>
      <point x="353.98989898989896" y="-21.09090909090915"/>
      <point x="353.98989898989896" y="520.5656565656566" type="curve" smooth="yes"/>
      <point x="353.98989898989896" y="1060.2424242424242"/>
      <point x="584.3636363636363" y="1260.2828282828284"/>
      <point x="1084.7171717171716" y="1260.2828282828284" type="curve" smooth="yes"/>
      <point x="1585.7878787878788" y="1260.2828282828284"/>
      <point x="1816.171717171717" y="1067.6767676767677"/>
      <point x="1819.6060606060605" y="576.3232323232323" type="curve" smooth="yes"/>
      <point x="1822.181818181818" y="283.17171717171715"/>
      <point x="1759.9797979797977" y="217.99999999999994"/>
      <point x="1674.6060606060605" y="217.99999999999994" type="curve" smooth="yes"/>
      <point x="1618.5252525252524" y="217.99999999999994"/>
      <point x="1584.9696969696968" y="249.25252525252517"/>
      <point x="1584.9696969696968" y="327.3131313131313" type="curve" smooth="yes"/>
      <point x="1584.9696969696968" y="625.3636363636364" type="line" smooth="yes"/>
      <point x="1584.9696969696968" y="975.939393939394"/>
      <point x="1425.212121212121" y="1097.7171717171718"/>
      <point x="1059.6969696969695" y="1097.7171717171718" type="curve" smooth="yes"/>
      <point x="941.9393939393939" y="1097.7171717171718"/>
      <point x="806.6161616161615" y="1078.141414141414"/>
      <point x="697.0" y="1042.7070707070707" type="curve"/>
      <point x="695.2828282828282" y="764.3535353535354" type="line"/>
      <point x="788.9797979797979" y="797.919191919192"/>
      <point x="902.5656565656566" y="816.2121212121212"/>
      <point x="991.0101010101009" y="816.2121212121212" type="curve" smooth="yes"/>
      <point x="1160.8383838383838" y="816.2121212121212"/>
      <point x="1219.8989898989898" y="770.2323232323233"/>
      <point x="1219.8989898989898" y="641.6767676767677" type="curve" smooth="yes"/>
      <point x="1219.8989898989898" y="285.25252525252523" type="line"/>
      <point x="1182.9898989898988" y="252.54545454545448"/>
      <point x="1120.2323232323233" y="238.88888888888883"/>
      <point x="1080.5050505050503" y="238.88888888888883" type="curve" smooth="yes"/>
      <point x="1010.3737373737372" y="238.88888888888883"/>
      <point x="957.7070707070706" y="270.38383838383834"/>
      <point x="957.7070707070706" y="342.5454545454545" type="curve" smooth="yes"/>
      <point x="957.7070707070706" y="416.8686868686869"/>
      <point x="1003.7878787878788" y="452.2323232323232"/>
      <point x="1102.060606060606" y="459.77777777777777" type="curve" smooth="yes"/>
      <point x="1315.5656565656566" y="475.0202020202021" type="line"/>
      <point x="1274.3535353535353" y="669.8080808080808" type="line"/>
      <point x="1064.4242424242425" y="654.5656565656566" type="line" smooth="yes"/>
      <point x="729.9797979797979" y="632.4343434343434"/>
      <point x="590.070707070707" y="513.969696969697"/>
      <point x="590.070707070707" y="303.06060606060606" type="curve" smooth="yes"/>
      <point x="590.070707070707" y="109.04040404040403"/>
      <point x="723.2323232323232" y="-21.15151515151515"/>
      <point x="953.8686868686868" y="-21.15151515151515" type="curve" smooth="yes"/>
      <point x="1073.9898989898988" y="-21.15151515151515"/>
      <point x="1187.4040404040404" y="17.3939393939394"/>
      <point x="1231.7777777777778" y="131.15151515151516" type="curve"/>
      <point x="1251.080808080808" y="131.15151515151516" type="line"/>
      <point x="1317.3030303030303" y="28.121212121212125"/>
      <point x="1430.1010101010102" y="-21.15151515151515"/>
      <point x="1589.040404040404" y="-21.15151515151515" type="curve" smooth="yes"/>
      <point x="1877.6767676767677" y="-21.15151515151515"/>
      <point x="2076.3535353535353" y="141.13131313131314"/>
      <point x="2076.494949494949" y="584.040404040404" type="curve" smooth="yes"/>
      <point x="2076.6363636363635" y="1194.989898989899"/>
      <point x="1721.7979797979797" y="1498.0"/>
      <point x="1084.7171717171716" y="1498.0" type="curve" smooth="yes"/>
      <point x="448.4949494949495" y="1498.0"/>
      <point x="75.92929292929294" y="1194.989898989899"/>
      <point x="75.92929292929294" y="520.0" type="curve" smooth="yes"/>
      <point x="75.92929292929294" y="-155.83838383838383"/>
      <point x="448.9191919191919" y="-459.85858585858585"/>
    </contour>
  </outline>
</glyph>
<glyph name="A" format="2">
  <advance width="1495.4949494949494"/>
  <unicode hex="0041"/>
  <note>
520
</note>
  <anchor x="747.8888888888889" y="0.0" name="bottom"/>
  <anchor x="1486.8282828282827" y="0.0" name="ogonek"/>
  <anchor x="747.030303030303" y="1520.0" name="top"/>
  <outline>
    <contour>
      <point x="8.666666666666679" y="0.0" type="line"/>
      <point x="379.59595959595947" y="0.0" type="line"/>
      <point x="763.040404040404" y="1315.5050505050506" type="line"/>
      <point x="727.020202020202" y="1315.5050505050506" type="line"/>
      <point x="1112.1818181818182" y="0.0" type="line"/>
      <point x="1486.8282828282827" y="0.0" type="line"/>
      <point x="1027.7171717171716" y="1480.0" type="line"/>
      <point x="467.7777777777778" y="1480.0" type="line"/>
    </contour>
    <contour>
      <point x="360.4141414141414" y="365.72727272727275" type="line"/>
      <point x="1132.5050505050503" y="365.72727272727275" type="line"/>
      <point x="1052.4040404040404" y="666.9797979797979" type="line"/>
      <point x="441.3737373737373" y="666.9797979797979" type="line"/>
    </contour>
  </outline>
</glyph>
<glyph name="B" format="2">
  <advance width="1358.5252525252524"/>
  <unicode hex="0042"/>
  <anchor x="693.5454545454545" y="0.0" name="bottom"/>
  <anchor x="693.5454545454545" y="1480.0" name="top"/>
  <outline>
    <contour>
      <point x="555.9090909090909" y="-18.58585858585858" type="curve" smooth="yes"/>
      <point x="1111.2525252525252" y="-18.58585858585858"/>
      <point x="1312.3030303030303" y="141.02020202020202"/>
      <point x="1312.3030303030303" y="419.8989898989899" type="curve" smooth="yes"/>
      <point x="1312.3030303030303" y="628.7676767676768"/>
      <point x="1189.7070707070707" y="740.5656565656566"/>
      <point x="1016.131313131313" y="768.4242424242424" type="curve"/>
      <point x="1015.7070707070707" y="756.0" type="line"/>
      <point x="1172.4242424242425" y="789.8585858585859"/>
      <point x="1271.8787878787878" y="917.8282828282828"/>
      <point x="1271.8787878787878" y="1080.8080808080808" type="curve" smooth="yes"/>
      <point x="1271.8787878787878" y="1360.4141414141413"/>
      <point x="1075.2424242424242" y="1499.1515151515152"/>
      <point x="618.8181818181818" y="1499.1515151515152" type="curve" smooth="yes"/>
      <point x="455.22222222222223" y="1499.1515151515152"/>
      <point x="262.64646464646466" y="1475.989898989899"/>
      <point x="120.45454545454547" y="1443.6868686868686" type="curve"/>
      <point x="120.45454545454547" y="12.575757575757574" type="line"/>
      <point x="249.60606060606062" y="-5.858585858585858"/>
      <point x="431.32323232323233" y="-18.58585858585858"/>
    </contour>
    <contour>
      <point x="660.9393939393939" y="256.9090909090908" type="curve" smooth="yes"/>
      <point x="606.3030303030303" y="256.9090909090908"/>
      <point x="556.6464646464646" y="258.33333333333326"/>
      <point x="493.2525252525252" y="264.3232323232322" type="curve"/>
      <point x="493.2525252525252" y="1207.5252525252527" type="line"/>
      <point x="547.9191919191918" y="1217.3737373737374"/>
      <point x="605.7272727272726" y="1223.6565656565658"/>
      <point x="670.1919191919192" y="1223.6565656565658" type="curve" smooth="yes"/>
      <point x="850.5050505050506" y="1223.6565656565658"/>
      <point x="914.3939393939395" y="1173.8686868686868"/>
      <point x="914.3939393939395" y="1060.2020202020203" type="curve" smooth="yes"/>
      <point x="914.3939393939395" y="950.5151515151515"/>
      <point x="853.4949494949495" y="897.030303030303"/>
      <point x="678.0" y="897.030303030303" type="curve" smooth="yes"/>
      <point x="454.92929292929284" y="897.030303030303" type="line"/>
      <point x="454.92929292929284" y="613.8080808080808" type="line"/>
      <point x="710.1515151515151" y="613.8080808080808" type="line" smooth="yes"/>
      <point x="891.0909090909091" y="613.8080808080808"/>
      <point x="960.6868686868687" y="559.1818181818182"/>
      <point x="960.6868686868687" y="436.2121212121212" type="curve" smooth="yes"/>
      <point x="960.6868686868687" y="314.6767676767676"/>
      <point x="890.3636363636364" y="256.9090909090908"/>
    </contour>
  </outline>
</glyph>
<glyph name="E" format="2">
  <advance width="1285.0"/>
  <unicode hex="0045"/>
  <anchor x="684.0808080808081" y="0.0" name="bottom"/>
  <anchor x="1124.5555555555554" y="0.0" name="ogonek"/>
  <anchor x="683.7979797979798" y="1520.0" name="top"/>
  <anchor x="38.42424242424242" y="1480.0" name="topleft"/>
  <outline>
    <contour>
      <point x="120.45454545454547" y="0.0" type="line"/>
      <point x="1213.141414141414" y="0.0" type="line"/>
      <point x="1213.141414141414" y="302.9696969696969" type="line"/>
      <point x="497.54545454545445" y="302.9696969696969" type="line"/>
      <point x="497.54545454545445" y="1177.030303030303" type="line"/>
      <point x="1203.141414141414" y="1177.030303030303" type="line"/>
      <point x="1203.141414141414" y="1480.0" type="line"/>
      <point x="120.45454545454547" y="1480.0" type="line"/>
    </contour>
    <contour>
      <point x="344.7474747474747" y="604.3636363636364" type="line"/>
      <point x="1099.5555555555554" y="604.3636363636364" type="line"/>
      <point x="1099.5555555555554" y="907.3333333333333" type="line"/>
      <point x="344.7474747474747" y="907.3333333333333" type="line"/>
    </contour>
  </outline>
</glyph>
<glyph name="F" format="2">
  <advance width="1244.0"/>
  <unicode hex="0046"/>
  <outline>
    <contour>
      <point x="120.45454545454547" y="0.0" type="line"/>
      <point x="502.6969696969696" y="0.0" type="line"/>
      <point x="502.6969696969696" y="1171.020202020202" type="line"/>
      <point x="1201.7272727272725" y="1171.020202020202" type="line"/>
      <point x="1201.7272727272725" y="1480.0" type="line"/>
      <point x="120.45454545454547" y="1480.0" type="line"/>
    </contour>
    <contour>
      <point x="359.89898989898984" y="559.7171717171718" type="line"/>
      <point x="1098.141414141414" y="559.7171717171718" type="line"/>
      <point x="1098.141414141414" y="868.6969696969696" type="line"/>
      <point x="359.89898989898984" y="868.6969696969696" type="line"/>
    </contour>
  </outline>
</glyph>
<glyph name="H" format="2">
  <advance width="1554.2626262626263"/>
  <unicode hex="0048"/>
  <anchor x="777.989898989899" y="0.0" name="bottom"/>
  <anchor x="777.989898989899" y="1200.9595959595958" name="center"/>
  <anchor x="777.989898989899" y="1520.0" name="top"/>
  <anchor x="36.707070707070706" y="1480.0" name="topleft"/>
  <outline>
    <contour>
      <point x="120.45454545454547" y="0.0" type="line"/>
      <point x="502.6969696969696" y="0.0" type="line"/>
      <point x="502.6969696969696" y="588.0505050505051" type="line"/>
      <point x="1051.5656565656566" y="588.0505050505051" type="line"/>
      <point x="1051.5656565656566" y="0.0" type="line"/>
      <point x="1433.8080808080808" y="0.0" type="line"/>
      <point x="1433.8080808080808" y="1480.0" type="line"/>
      <point x="1051.5656565656566" y="1480.0" type="line"/>
      <point x="1051.5656565656566" y="923.6464646464646" type="line"/>
      <point x="502.6969696969696" y="923.6464646464646" type="line"/>
      <point x="502.6969696969696" y="1480.0" type="line"/>
      <point x="120.45454545454547" y="1480.0" type="line"/>
    </contour>
  </outline>
</glyph>
<glyph name="I" format="2">
  <advance width="623.151515151515"/>
  <unicode hex="0049"/>
  <anchor x="310.7171717171717" y="0.0" name="bottom"/>
  <anchor x="502.6969696969696" y="0.0" name="ogonek"/>
  <anchor x="311.5757575757575" y="1520.0" name="top"/>
  <outline>
    <contour>
      <point x="120.45454545454547" y="0.0" type="line"/>
      <point x="502.6969696969696" y="0.0" type="line"/>
      <point x="502.6969696969696" y="1480.0" type="line"/>
      <point x="120.45454545454547" y="1480.0" type="line"/>
    </contour>
  </outline>
</glyph>
<glyph name="J" format="2">
  <advance width="623.151515151515"/>
  <unicode hex="004A"/>
  <anchor x="510.05050505050497" y="0.0" name="bottom"/>
  <anchor x="312.4343434343434" y="1520.0" name="top"/>
  <outline>
    <contour>
      <point x="215.42424242424235" y="-352.020202020202" type="line"/>
      <point x="428.2525252525252" y="-136.84848484848484"/>
      <point x="501.14141414141403" y="63.2121212121212"/>
      <point x="502.6969696969696" y="310.5252525252525" type="curve"/>
      <point x="502.6969696969696" y="1480.0" type="line"/>
      <point x="122.17171717171719" y="1480.0" type="line"/>
      <point x="122.17171717171719" y="301.45454545454544" type="line" smooth="yes"/>
      <point x="122.17171717171719" y="90.64646464646462"/>
      <point x="85.63636363636365" y="-41.29292929292933"/>
      <point x="-26.75757575757575" y="-190.80808080808086" type="curve"/>
    </contour>
  </outline>
</glyph>
<glyph name="K" format="2">
  <advance width="1362.4444444444443"/>
  <unicode hex="004B"/>
  <anchor x="714.7373737373737" y="0.0" name="bottom"/>
  <anchor x="707.0101010101009" y="1480.0" name="top"/>
  <outline>
    <contour>
      <point x="1003.2525252525253" y="0.0" type="line"/>
      <point x="1416.232323232323" y="0.0" type="line"/>
      <point x="888.9797979797978" y="808.3434343434343" type="line"/>
      <point x="882.111111111111" y="710.5050505050506" type="line"/>
      <point x="1373.3737373737372" y="1480.0" type="line"/>
      <point x="973.5555555555555" y="1480.0" type="line"/>
      <point x="509.4646464646464" y="752.8484848484849" type="line"/>
    </contour>
    <contour>
      <point x="120.45454545454547" y="0.0" type="line"/>
      <point x="502.6969696969696" y="0.0" type="line"/>
      <point x="502.6969696969696" y="1480.0" type="line"/>
      <point x="120.45454545454547" y="1480.0" type="line"/>
    </contour>
    <contour>
      <point x="450.6363636363635" y="588.0505050505051" type="line"/>
      <point x="656.4949494949494" y="588.0505050505051" type="line"/>
      <point x="656.4949494949494" y="923.5050505050505" type="line"/>
      <point x="450.6363636363635" y="923.5050505050505" type="line"/>
    </contour>
  </outline>
</glyph>
<glyph name="L" format="2">
  <advance width="1174.6767676767677"/>
  <unicode hex="004C"/>
  <anchor x="643.3535353535353" y="0.0" name="bottom"/>
  <anchor x="777.6161616161615" y="1616.0" name="caronalt"/>
  <anchor x="890.131313131313" y="892.4848484848485" name="periodcentered"/>
  <anchor x="315.010101010101" y="842.6868686868687" name="slash"/>
  <anchor x="315.010101010101" y="1520.0" name="top"/>
  <outline>
    <contour>
      <point x="120.45454545454547" y="0.0" type="line"/>
      <point x="1165.969696969697" y="0.0" type="line"/>
      <point x="1165.969696969697" y="315.84848484848476" type="line"/>
      <point x="502.6969696969696" y="315.84848484848476" type="line"/>
      <point x="502.6969696969696" y="1480.0" type="line"/>
      <point x="120.45454545454547" y="1480.0" type="line"/>
    </contour>
  </outline>
</glyph>
<glyph name="M" format="2">
  <advance width="1918.6666666666665"/>
  <unicode hex="004D"/>
  <anchor x="984.2323232323232" y="0.0" name="bottom"/>
  <anchor x="984.2323232323232" y="1480.0" name="top"/>
  <outline>
    <contour>
      <point x="124.45454545454547" y="0.0" type="line"/>
      <point x="480.6565656565656" y="0.0" type="line"/>
      <point x="480.6565656565656" y="1145.5353535353538" type="line"/>
      <point x="393.7171717171716" y="1145.5353535353538" type="line"/>
      <point x="804.5656565656566" y="217.17171717171718" type="line"/>
      <point x="1114.10101010101" y="217.17171717171718" type="line"/>
      <point x="1508.3535353535353" y="1145.5353535353538" type="line"/>
      <point x="1438.010101010101" y="1145.5353535353538" type="line"/>
      <point x="1438.010101010101" y="0.0" type="line"/>
      <point x="1794.212121212121" y="0.0" type="line"/>
      <point x="1794.212121212121" y="1480.0" type="line"/>
      <point x="1327.6969696969697" y="1480.0" type="line"/>
      <point x="945.3333333333333" y="561.6969696969695" type="line"/>
      <point x="985.9191919191919" y="561.6969696969695" type="line"/>
      <point x="590.9696969696968" y="1480.0" type="line"/>
      <point x="124.45454545454547" y="1480.0" type="line"/>
    </contour>
  </outline>
</glyph>
<glyph name="N" format="2">
  <advance width="1568.6666666666665"/>
  <unicode hex="004E"/>
  <anchor x="784.4040404040404" y="0.0" name="bottom"/>
  <anchor x="784.4040404040404" y="1520.0" name="top"/>
  <outline>
    <contour>
      <point x="120.45454545454547" y="0.0" type="line"/>
      <point x="479.23232323232315" y="0.0" type="line"/>
      <point x="479.23232323232315" y="1001.0101010101012" type="line"/>
      <point x="418.18181818181813" y="1001.0101010101012" type="line"/>
      <point x="1065.8383838383838" y="0.0" type="line"/>
      <point x="1448.212121212121" y="0.0" type="line"/>
      <point x="1448.212121212121" y="1480.0" type="line"/>
      <point x="1089.4343434343434" y="1480.0" type="line"/>
      <point x="1089.4343434343434" y="478.98989898989885" type="line"/>
      <point x="1150.4848484848485" y="478.98989898989885" type="line"/>
      <point x="502.82828282828274" y="1480.0" type="line"/>
      <point x="120.45454545454547" y="1480.0" type="line"/>
    </contour>
  </outline>
</glyph>
<glyph name="P" format="2">
  <advance width="1346.2727272727273"/>
  <unicode hex="0050"/>
  <outline>
    <contour>
      <point x="120.45454545454547" y="0.0" type="line"/>
      <point x="502.6969696969696" y="0.0" type="line"/>
      <point x="502.6969696969696" y="412.23232323232327" type="line"/>
      <point x="544.7777777777777" y="411.10101010101016"/>
      <point x="582.4444444444443" y="408.959595959596"/>
      <point x="627.9595959595958" y="408.959595959596" type="curve" smooth="yes"/>
      <point x="1054.2525252525252" y="408.959595959596"/>
      <point x="1279.040404040404" y="594.8383838383838"/>
      <point x="1279.040404040404" y="953.7676767676768" type="curve" smooth="yes"/>
      <point x="1279.040404040404" y="1331.8383838383838"/>
      <point x="1049.979797979798" y="1499.1515151515152"/>
      <point x="592.6767676767677" y="1499.1515151515152" type="curve" smooth="yes"/>
      <point x="419.16161616161617" y="1499.1515151515152"/>
      <point x="265.22222222222223" y="1480.2828282828282"/>
      <point x="120.45454545454547" y="1451.5555555555557" type="curve"/>
    </contour>
    <contour>
      <point x="631.8181818181818" y="693.040404040404" type="curve" smooth="yes"/>
      <point x="582.3030303030303" y="693.040404040404"/>
      <point x="545.6464646464646" y="695.3232323232323"/>
      <point x="502.6969696969696" y="701.030303030303" type="curve"/>
      <point x="502.6969696969696" y="1205.0909090909092" type="line"/>
      <point x="541.9090909090908" y="1212.2222222222222"/>
      <point x="578.2525252525252" y="1215.0707070707072"/>
      <point x="628.7373737373737" y="1215.0707070707072" type="curve" smooth="yes"/>
      <point x="820.5151515151515" y="1215.0707070707072"/>
      <point x="909.1111111111112" y="1136.8686868686868"/>
      <point x="909.1111111111112" y="951.6262626262626" type="curve" smooth="yes"/>
      <point x="909.1111111111112" y="764.3535353535353"/>
      <point x="821.0808080808081" y="693.040404040404"/>
    </contour>
  </outline>
</glyph>
<glyph name="Q" format="2">
  <advance width="1604.969696969697"/>
  <unicode hex="0051"/>
  <outline>
    <contour>
      <point x="1448.2525252525252" y="-346.56565656565647" type="curve"/>
      <point x="1511.4848484848485" y="-50.46464646464649" type="line"/>
      <point x="1276.0202020202019" y="-21.44444444444447"/>
      <point x="1049.3434343434342" y="26.858585858585826"/>
      <point x="806.2121212121211" y="118.17171717171713" type="curve"/>
      <point x="682.4242424242424" y="25.48484848484847" type="line"/>
      <point x="1246.5151515151515" y="-48.55555555555556"/>
      <point x="1529.040404040404" y="241.9292929292929"/>
      <point x="1529.040404040404" y="740.0" type="curve" smooth="yes"/>
      <point x="1529.040404040404" y="1248.0707070707072"/>
      <point x="1243.232323232323" y="1499.7171717171718"/>
      <point x="802.4848484848485" y="1499.7171717171718" type="curve" smooth="yes"/>
      <point x="361.73737373737373" y="1499.7171717171718"/>
      <point x="75.92929292929294" y="1248.939393939394"/>
      <point x="75.92929292929294" y="731.4141414141415" type="curve" smooth="yes"/>
      <point x="75.92929292929294" y="193.1111111111111"/>
      <point x="380.16161616161617" y="-178.1414141414141"/>
    </contour>
    <contour>
      <point x="802.4848484848485" y="286.82828282828274" type="curve" smooth="yes"/>
      <point x="587.4747474747473" y="286.82828282828274"/>
      <point x="467.32323232323216" y="413.7474747474747"/>
      <point x="467.32323232323216" y="747.4343434343434" type="curve" smooth="yes"/>
      <point x="467.32323232323216" y="1064.5353535353536"/>
      <point x="591.7676767676767" y="1193.1717171717173"/>
      <point x="802.4848484848485" y="1193.1717171717173" type="curve" smooth="yes"/>
      <point x="1013.2020202020202" y="1193.1717171717173"/>
      <point x="1137.6464646464647" y="1061.959595959596"/>
      <point x="1137.6464646464647" y="732.5656565656566" type="curve" smooth="yes"/>
      <point x="1137.6464646464647" y="418.0404040404039"/>
      <point x="1015.7777777777778" y="286.82828282828274"/>
    </contour>
  </outline>
</glyph>
<glyph name="T" format="2">
  <advance width="1324.0707070707072"/>
  <unicode hex="0054"/>
  <anchor x="662.4646464646464" y="0.0" name="bottom"/>
  <anchor x="662.4646464646464" y="714.1414141414142" name="center"/>
  <anchor x="662.4646464646464" y="1520.0" name="top"/>
  <outline>
    <contour>
      <point x="470.4848484848485" y="0.0" type="line"/>
      <point x="853.5858585858584" y="0.0" type="line"/>
      <point x="853.5858585858584" y="1164.1515151515152" type="line"/>
      <point x="1310.9292929292928" y="1164.1515151515152" type="line"/>
      <point x="1310.9292929292928" y="1480.0" type="line"/>
      <point x="13.141414141414142" y="1480.0" type="line"/>
      <point x="13.141414141414142" y="1164.1515151515152" type="line"/>
      <point x="470.4848484848485" y="1164.1515151515152" type="line"/>
    </contour>
  </outline>
</glyph>
<glyph name="V" format="2">
  <advance width="1472.6666666666665"/>
  <unicode hex="0056"/>
  <outline>
    <contour>
      <point x="453.2222222222223" y="0.0" type="line"/>
      <point x="1019.4444444444443" y="0.0" type="line"/>
      <point x="1475.4141414141413" y="1480.0" type="line"/>
      <point x="1103.909090909091" y="1480.0" type="line"/>
      <point x="704.5757575757575" y="154.19191919191914" type="line"/>
      <point x="787.5454545454545" y="154.19191919191914" type="line"/>
      <point x="395.93939393939377" y="1480.0" type="line"/>
      <point x="-2.7474747474747403" y="1480.0" type="line"/>
    </contour>
  </outline>
</glyph>
<glyph name="W" format="2">
  <advance width="2336.1010101010097"/>
  <unicode hex="0057"/>
  <anchor x="1168.2626262626263" y="0.0" name="bottom"/>
  <anchor x="1168.2626262626263" y="1520.0" name="top"/>
  <outline>
    <contour>
      <point x="403.2626262626263" y="0.0" type="line"/>
      <point x="892.212121212121" y="0.0" type="line"/>
      <point x="1226.7777777777778" y="1248.2626262626263" type="line"/>
      <point x="1125.6363636363635" y="1248.2626262626263" type="line"/>
      <point x="1443.888888888889" y="0.0" type="line"/>
      <point x="1932.8383838383838" y="0.0" type="line"/>
      <point x="2314.181818181818" y="1480.0" type="line"/>
      <point x="1953.2626262626263" y="1480.0" type="line"/>
      <point x="1628.1313131313132" y="166.21212121212116" type="line"/>
      <point x="1715.3939393939393" y="166.21212121212116" type="line"/>
      <point x="1388.5555555555554" y="1480.0" type="line"/>
      <point x="970.010101010101" y="1480.0" type="line"/>
      <point x="627.0" y="166.21212121212116" type="line"/>
      <point x="723.7070707070707" y="166.21212121212116" type="line"/>
      <point x="407.3030303030302" y="1480.0" type="line"/>
      <point x="21.777777777777793" y="1480.0" type="line"/>
    </contour>
  </outline>
</glyph>
<glyph name="Z" format="2">
  <advance width="1269.5656565656564"/>
  <unicode hex="005A"/>
  <anchor x="632.7070707070707" y="0.0" name="bottom"/>
  <anchor x="636.1414141414141" y="1520.0" name="top"/>
  <outline>
    <contour>
      <point x="58.70707070707071" y="0.0" type="line"/>
      <point x="1210.8585858585857" y="0.0" type="line"/>
      <point x="1210.8585858585857" y="315.56565656565647" type="line"/>
      <point x="503.0606060606059" y="315.56565656565647" type="line"/>
      <point x="505.04040404040387" y="245.91919191919183" type="line"/>
      <point x="1200.5757575757575" y="1270.858585858586" type="line"/>
      <point x="1200.5757575757575" y="1480.0" type="line"/>
      <point x="68.98989898989899" y="1480.0" type="line"/>
      <point x="68.98989898989899" y="1164.4343434343436" type="line"/>
      <point x="756.2222222222223" y="1164.4343434343436" type="line"/>
      <point x="754.2424242424244" y="1234.080808080808" type="line"/>
      <point x="58.70707070707071" y="209.14141414141406" type="line"/>
    </contour>
  </outline>
</glyph>
<glyph name="bracketleft" format="2">
  <advance width="735.8989898989898"/>
  <unicode hex="005B"/>
  <outline>
    <contour>
      <point x="140.45454545454547" y="-440.0" type="line"/>
      <point x="755.2929292929292" y="-440.0" type="line"/>
      <point x="755.2929292929292" y="-147.61616161616172" type="line"/>
      <point x="514.9696969696969" y="-147.61616161616172" type="line"/>
      <point x="514.9696969696969" y="1323.6161616161617" type="line"/>
      <point x="763.8787878787878" y="1323.6161616161617" type="line"/>
      <point x="763.8787878787878" y="1616.0" type="line"/>
      <point x="140.45454545454547" y="1616.0" type="line"/>
    </contour>
  </outline>
</glyph>
<glyph name="backslash" format="2">
  <advance width="848.9797979797978"/>
  <unicode hex="005C"/>
  <outline>
    <contour>
      <point x="480.0505050505051" y="-240.0" type="line"/>
      <point x="848.9797979797978" y="-240.0" type="line"/>
      <point x="368.9292929292928" y="1616.0" type="line"/>
      <point x="0.0" y="1616.0" type="line"/>
    </contour>
  </outline>
</glyph>
<glyph name="bracketright" format="2">
  <advance width="735.8989898989898"/>
  <unicode hex="005D"/>
  <outline>
    <contour>
      <point x="-19.3939393939394" y="-440.0" type="line"/>
      <point x="595.4444444444443" y="-440.0" type="line"/>
      <point x="595.4444444444443" y="1616.0" type="line"/>
      <point x="-27.979797979797986" y="1616.0" type="line"/>
      <point x="-27.979797979797986" y="1323.6161616161617" type="line"/>
      <point x="220.92929292929298" y="1323.6161616161617" type="line"/>
      <point x="220.92929292929298" y="-147.61616161616172" type="line"/>
      <point x="-19.3939393939394" y="-147.61616161616172" type="line"/>
    </contour>
  </outline>
</glyph>
<glyph name="grave" format="2">
  <advance width="1171.7171717171716"/>
  <unicode hex="0060"/>
  <anchor x="585.8585858585858" y="1200.0" name="_top"/>
  <anchor x="585.8585858585858" y="1641.858585858586" name="top"/>
  <outline>
    <contour>
      <point x="414.7676767676768" y="1226.2222222222222" type="line"/>
      <point x="756.9494949494949" y="1226.2222222222222" type="line"/>
      <point x="527.4848484848484" y="1616.0" type="line"/>
      <point x="131.80808080808086" y="1616.0" type="line"/>
    </contour>
  </outline>
</glyph>
<glyph name="b" format="2">
  <advance width="1265.040404040404"/>
  <unicode hex="0062"/>
  <anchor x="637.5959595959596" y="0.0" name="bottom"/>
  <anchor x="295.010101010101" y="1616.0" name="top"/>
  <outline>
    <contour>
      <point x="559.6060606060605" y="-20.575757575757574" type="curve" smooth="yes"/>
      <point x="995.7878787878788" y="-21.434343434343432"/>
      <point x="1204.2626262626263" y="187.8989898989899"/>
      <point x="1204.2626262626263" y="571.1616161616162" type="curve" smooth="yes"/>
      <point x="1204.2626262626263" y="946.5454545454545"/>
      <point x="1006.5252525252524" y="1114.888888888889"/>
      <point x="776.3737373737372" y="1114.888888888889" type="curve" smooth="yes"/>
      <point x="655.8282828282827" y="1114.888888888889"/>
      <point x="561.7070707070706" y="1070.7676767676767"/>
      <point x="498.9999999999999" y="992.4747474747475" type="curve"/>
      <point x="481.8383838383837" y="992.4747474747475" type="line"/>
      <point x="481.8383838383837" y="1616.0" type="line"/>
      <point x="107.32323232323235" y="1616.0" type="line"/>
      <point x="107.32323232323235" y="44.606060606060595" type="line"/>
      <point x="243.12121212121212" y="-0.4242424242424252"/>
      <point x="409.37373737373736" y="-20.575757575757574"/>
    </contour>
    <contour>
      <point x="591.9393939393939" y="260.070707070707" type="curve" smooth="yes"/>
      <point x="551.0101010101009" y="260.070707070707"/>
      <point x="512.080808080808" y="265.3434343434343"/>
      <point x="481.8383838383837" y="272.89898989898984" type="curve"/>
      <point x="481.8383838383837" y="765.969696969697" type="line"/>
      <point x="522.3535353535353" y="796.1212121212122"/>
      <point x="576.9595959595958" y="810.2020202020203"/>
      <point x="628.989898989899" y="810.2020202020203" type="curve" smooth="yes"/>
      <point x="751.4444444444445" y="810.2020202020203"/>
      <point x="828.3232323232323" y="750.7070707070708"/>
      <point x="828.3232323232323" y="541.6969696969697" type="curve" smooth="yes"/>
      <point x="828.3232323232323" y="336.8080808080807"/>
      <point x="749.4444444444445" y="260.070707070707"/>
    </contour>
  </outline>
</glyph>
<glyph name="f" format="2">
  <advance width="832.7070707070707"/>
  <unicode hex="0066"/>
  <outline>
    <contour>
      <point x="195.50505050505052" y="0.0" type="line"/>
      <point x="567.4444444444443" y="0.0" type="line"/>
      <point x="567.4444444444443" y="1162.919191919192" type="line" smooth="yes"/>
      <point x="567.4444444444443" y="1283.929292929293"/>
      <point x="629.8282828282827" y="1341.6161616161617"/>
      <point x="781.0707070707069" y="1341.6161616161617" type="curve" smooth="yes"/>
      <point x="815.4747474747473" y="1341.6161616161617"/>
      <point x="847.020202020202" y="1339.1919191919192"/>
      <point x="884.7171717171716" y="1334.4848484848485" type="curve"/>
      <point x="884.7171717171716" y="1624.0" type="line"/>
      <point x="831.131313131313" y="1632.0"/>
      <point x="780.8484848484848" y="1636.0"/>
      <point x="720.6767676767677" y="1636.0" type="curve" smooth="yes"/>
      <point x="380.6262626262626" y="1636.0"/>
      <point x="195.50505050505052" y="1451.020202020202"/>
      <point x="195.50505050505052" y="1145.3232323232323" type="curve" smooth="yes"/>
    </contour>
    <contour>
      <point x="27.020202020202014" y="804.7878787878789" type="line"/>
      <point x="837.131313131313" y="804.7878787878789" type="line"/>
      <point x="837.131313131313" y="1097.171717171717" type="line"/>
      <point x="27.020202020202014" y="1097.171717171717" type="line"/>
    </contour>
  </outline>
</glyph>
<glyph name="j" format="2">
  <advance width="590.020202020202"/>
  <unicode hex="006A"/>
  <anchor x="290.7171717171717" y="1200.8484848484848" name="_top"/>
  <anchor x="290.7171717171717" y="1200.8484848484848" name="top"/>
  <outline>
    <contour>
      <point x="198.8585858585858" y="-473.73737373737373" type="line"/>
      <point x="409.111111111111" y="-258.5656565656566"/>
      <point x="482.69696969696963" y="-58.80808080808082"/>
      <point x="482.69696969696963" y="192.74747474747474" type="curve" smooth="yes"/>
      <point x="482.69696969696963" y="1097.171717171717" type="line"/>
      <point x="107.32323232323235" y="1097.171717171717" type="line"/>
      <point x="107.32323232323235" y="178.02020202020202" type="line" smooth="yes"/>
      <point x="107.32323232323235" y="-32.7878787878788"/>
      <point x="70.78787878787881" y="-164.72727272727275"/>
      <point x="-41.606060606060595" y="-314.2424242424243" type="curve"/>
    </contour>
    <contour>
      <point x="290.7171717171717" y="1230.3434343434344" type="curve" smooth="yes"/>
      <point x="446.9191919191918" y="1230.3434343434344"/>
      <point x="517.5656565656565" y="1298.989898989899"/>
      <point x="517.5656565656565" y="1419.4141414141413" type="curve" smooth="yes"/>
      <point x="517.5656565656565" y="1539.8383838383838"/>
      <point x="446.9191919191918" y="1608.7676767676767"/>
      <point x="290.7171717171717" y="1608.7676767676767" type="curve" smooth="yes"/>
      <point x="134.51515151515153" y="1608.7676767676767"/>
      <point x="63.8686868686869" y="1539.8383838383838"/>
      <point x="63.8686868686869" y="1419.4141414141413" type="curve" smooth="yes"/>
      <point x="63.8686868686869" y="1298.989898989899"/>
      <point x="134.51515151515153" y="1230.3434343434344"/>
    </contour>
  </outline>
</glyph>
<glyph name="k" format="2">
  <advance width="1228.3131313131312"/>
  <unicode hex="006B"/>
  <anchor x="646.070707070707" y="0.0" name="bottom"/>
  <anchor x="295.010101010101" y="1616.0" name="top"/>
  <outline>
    <contour>
      <point x="860.3838383838383" y="0.0" type="line"/>
      <point x="1265.6363636363635" y="0.0" type="line"/>
      <point x="868.3333333333331" y="620.5252525252525" type="line"/>
      <point x="868.3333333333331" y="522.969696969697" type="line"/>
      <point x="1229.3434343434342" y="1097.171717171717" type="line"/>
      <point x="832.8181818181819" y="1097.171717171717" type="line"/>
      <point x="490.8282828282828" y="564.020202020202" type="line"/>
    </contour>
    <contour>
      <point x="452.10101010101" y="415.2525252525253" type="line"/>
      <point x="618.8282828282828" y="415.2525252525253" type="line"/>
      <point x="618.8282828282828" y="712.7878787878788" type="line"/>
      <point x="452.10101010101" y="712.7878787878788" type="line"/>
    </contour>
    <contour>
      <point x="107.32323232323235" y="0.0" type="line"/>
      <point x="481.8383838383837" y="0.0" type="line"/>
      <point x="481.8383838383837" y="1616.0" type="line"/>
      <point x="107.32323232323235" y="1616.0" type="line"/>
    </contour>
  </outline>
</glyph>
<glyph name="l" format="2">
  <advance width="589.161616161616"/>
  <unicode hex="006C"/>
  <anchor x="294.1515151515151" y="0.0" name="bottom"/>
  <anchor x="576.080808080808" y="1616.0" name="caronalt"/>
  <anchor x="744.7272727272725" y="794.0" name="periodcentered"/>
  <anchor x="295.010101010101" y="714.0" name="slash"/>
  <anchor x="295.010101010101" y="1616.0" name="top"/>
  <outline>
    <contour>
      <point x="107.32323232323235" y="0.0" type="line"/>
      <point x="481.8383838383837" y="0.0" type="line"/>
      <point x="481.8383838383837" y="1616.0" type="line"/>
      <point x="107.32323232323235" y="1616.0" type="line"/>
    </contour>
  </outline>
</glyph>
<glyph name="p" format="2">
  <advance width="1265.040404040404"/>
  <unicode hex="0070"/>
  <outline>
    <contour>
      <point x="107.32323232323235" y="-440.0" type="line"/>
      <point x="481.8383838383837" y="-440.0" type="line"/>
      <point x="481.8383838383837" y="-14.737373737373732" type="line"/>
      <point x="514.3636363636363" y="-17.727272727272723"/>
      <point x="552.4444444444443" y="-20.575757575757574"/>
      <point x="590.8181818181818" y="-20.575757575757574" type="curve" smooth="yes"/>
      <point x="993.3535353535353" y="-20.575757575757574"/>
      <point x="1204.2626262626263" y="191.33333333333331"/>
      <point x="1204.2626262626263" y="569.4444444444445" type="curve" smooth="yes"/>
      <point x="1204.2626262626263" y="955.1313131313132"/>
      <point x="992.6464646464646" y="1114.888888888889"/>
      <point x="748.0505050505051" y="1114.888888888889" type="curve" smooth="yes"/>
      <point x="618.9090909090908" y="1114.888888888889"/>
      <point x="522.0707070707069" y="1062.1818181818182"/>
      <point x="460.36363636363626" y="981.3232323232323" type="curve"/>
      <point x="443.9191919191918" y="981.3232323232323" type="line"/>
      <point x="421.4646464646464" y="1097.171717171717" type="line"/>
      <point x="107.32323232323235" y="1097.171717171717" type="line"/>
    </contour>
    <contour>
      <point x="590.3838383838383" y="260.92929292929284" type="curve" smooth="yes"/>
      <point x="553.5858585858585" y="260.92929292929284"/>
      <point x="512.080808080808" y="265.6363636363635"/>
      <point x="481.8383838383837" y="271.05050505050497" type="curve"/>
      <point x="481.8383838383837" y="757.969696969697" type="line"/>
      <point x="521.4949494949494" y="794.4040404040404"/>
      <point x="579.3939393939393" y="811.0606060606061"/>
      <point x="634.2929292929293" y="811.0606060606061" type="curve" smooth="yes"/>
      <point x="750.5858585858585" y="811.0606060606061"/>
      <point x="828.3232323232323" y="751.5656565656566"/>
      <point x="828.3232323232323" y="540.8383838383838" type="curve" smooth="yes"/>
      <point x="828.3232323232323" y="337.66666666666663"/>
      <point x="749.4444444444445" y="260.92929292929284"/>
    </contour>
  </outline>
</glyph>
<glyph name="q" format="2">
  <advance width="1265.040404040404"/>
  <unicode hex="0071"/>
  <outline>
    <contour>
      <point x="783.2020202020202" y="-440.0" type="line"/>
      <point x="1157.7171717171716" y="-440.0" type="line"/>
      <point x="1157.7171717171716" y="1049.7070707070707" type="line"/>
      <point x="1029.9292929292928" y="1092.020202020202"/>
      <point x="855.6666666666666" y="1114.888888888889"/>
      <point x="705.4343434343434" y="1114.888888888889" type="curve" smooth="yes"/>
      <point x="269.2525252525253" y="1114.888888888889"/>
      <point x="60.7777777777778" y="906.4141414141415"/>
      <point x="60.7777777777778" y="523.1515151515151" type="curve" smooth="yes"/>
      <point x="60.7777777777778" y="147.76767676767676"/>
      <point x="258.5151515151515" y="-20.575757575757574"/>
      <point x="488.6666666666667" y="-20.575757575757574" type="curve" smooth="yes"/>
      <point x="609.2121212121212" y="-20.575757575757574"/>
      <point x="703.3333333333334" y="23.54545454545455"/>
      <point x="766.040404040404" y="101.83838383838383" type="curve"/>
      <point x="783.2020202020202" y="101.83838383838383" type="line"/>
    </contour>
    <contour>
      <point x="636.0505050505051" y="284.11111111111103" type="curve" smooth="yes"/>
      <point x="513.5959595959596" y="284.11111111111103"/>
      <point x="436.7171717171716" y="343.6060606060605"/>
      <point x="436.7171717171716" y="552.6161616161617" type="curve" smooth="yes"/>
      <point x="436.7171717171716" y="757.5050505050506"/>
      <point x="520.7474747474746" y="834.2424242424244"/>
      <point x="672.2424242424242" y="834.2424242424244" type="curve" smooth="yes"/>
      <point x="714.030303030303" y="834.2424242424244"/>
      <point x="752.959595959596" y="829.1111111111112"/>
      <point x="783.2020202020202" y="822.6969696969697" type="curve"/>
      <point x="783.2020202020202" y="328.3434343434343" type="line"/>
      <point x="742.6868686868687" y="298.1919191919191"/>
      <point x="687.7979797979798" y="284.11111111111103"/>
    </contour>
  </outline>
</glyph>
<glyph name="r" format="2">
  <advance width="840.4242424242424"/>
  <unicode hex="0072"/>
  <anchor x="295.010101010101" y="0.0" name="bottom"/>
  <anchor x="467.25252525252523" y="1200.0" name="top"/>
  <outline>
    <contour>
      <point x="107.32323232323235" y="0.0" type="line"/>
      <point x="481.8383838383837" y="0.0" type="line"/>
      <point x="481.8383838383837" y="690.0404040404042" type="line"/>
      <point x="530.2121212121211" y="746.2121212121212"/>
      <point x="626.7070707070707" y="777.5959595959597"/>
      <point x="715.8080808080808" y="777.5959595959597" type="curve" smooth="yes"/>
      <point x="750.5252525252524" y="777.5959595959597"/>
      <point x="793.4141414141413" y="775.7373737373739"/>
      <point x="829.1414141414141" y="768.3030303030304" type="curve"/>
      <point x="829.1414141414141" y="1105.8989898989898" type="line"/>
      <point x="804.7171717171716" y="1110.040404040404"/>
      <point x="771.2727272727273" y="1113.7575757575758"/>
      <point x="739.131313131313" y="1113.7575757575758" type="curve" smooth="yes"/>
      <point x="617.131313131313" y="1113.7575757575758"/>
      <point x="515.6060606060605" y="1067.20202020202"/>
      <point x="458.64646464646455" y="957.040404040404" type="curve"/>
      <point x="442.060606060606" y="957.040404040404" type="line"/>
      <point x="412.87878787878776" y="1097.171717171717" type="line"/>
      <point x="107.32323232323235" y="1097.171717171717" type="line"/>
    </contour>
  </outline>
</glyph>
<glyph name="s" format="2">
  <advance width="1005.3939393939393"/>
  <unicode hex="0073"/>
  <anchor x="506.9797979797979" y="0.0" name="bottom"/>
  <anchor x="506.9797979797979" y="1200.0" name="top"/>
  <outline>
    <contour>
      <point x="451.24242424242425" y="-21.434343434343432" type="curve" smooth="yes"/>
      <point x="775.070707070707" y="-21.434343434343432"/>
      <point x="963.1717171717171" y="116.6060606060606"/>
      <point x="963.1717171717171" y="342.67676767676767" type="curve" smooth="yes"/>
      <point x="963.1717171717171" y="543.6262626262626"/>
      <point x="855.3939393939394" y="629.6161616161615"/>
      <point x="662.6969696969696" y="664.4545454545454" type="curve" smooth="yes"/>
      <point x="474.4545454545454" y="697.6060606060605" type="line" smooth="yes"/>
      <point x="418.3232323232322" y="708.2828282828283"/>
      <point x="399.090909090909" y="727.0505050505051"/>
      <point x="399.090909090909" y="760.4949494949495" type="curve" smooth="yes"/>
      <point x="399.090909090909" y="804.2121212121212"/>
      <point x="436.43434343434336" y="845.4040404040404"/>
      <point x="608.6363636363636" y="845.4040404040404" type="curve" smooth="yes"/>
      <point x="712.8181818181818" y="845.4040404040404"/>
      <point x="818.1717171717171" y="831.3939393939395"/>
      <point x="902.020202020202" y="808.2525252525254" type="curve"/>
      <point x="902.020202020202" y="1078.8787878787878" type="line"/>
      <point x="820.0101010101009" y="1100.5959595959596"/>
      <point x="708.2323232323232" y="1114.888888888889"/>
      <point x="597.4747474747473" y="1114.888888888889" type="curve" smooth="yes"/>
      <point x="227.7171717171717" y="1114.888888888889"/>
      <point x="52.484848484848506" y="971.7171717171717"/>
      <point x="52.484848484848506" y="752.3434343434344" type="curve" smooth="yes"/>
      <point x="52.484848484848506" y="571.4242424242425"/>
      <point x="144.94949494949498" y="466.2626262626263"/>
      <point x="353.54545454545456" y="429.8484848484849" type="curve" smooth="yes"/>
      <point x="541.7878787878788" y="396.69696969696975" type="line" smooth="yes"/>
      <point x="597.9191919191919" y="386.0202020202021"/>
      <point x="616.5656565656566" y="368.0909090909091"/>
      <point x="616.5656565656566" y="329.8080808080808" type="curve" smooth="yes"/>
      <point x="616.5656565656566" y="279.3939393939393"/>
      <point x="574.5151515151515" y="248.05050505050497"/>
      <point x="444.7979797979798" y="248.05050505050497" type="curve" smooth="yes"/>
      <point x="318.020202020202" y="248.05050505050497"/>
      <point x="189.93939393939397" y="266.7777777777777"/>
      <point x="83.93939393939395" y="298.7777777777777" type="curve"/>
      <point x="83.93939393939395" y="28.15151515151515" type="line"/>
      <point x="191.40404040404042" y="-5.0"/>
      <point x="319.6161616161616" y="-21.434343434343432"/>
    </contour>
  </outline>
</glyph>
<glyph name="v" format="2">
  <advance width="1203.6363636363635"/>
  <unicode hex="0076"/>
  <anchor x="602.030303030303" y="0.0" name="bottom"/>
  <anchor x="602.030303030303" y="1200.0" name="top"/>
  <outline>
    <contour>
      <point x="367.71717171717177" y="0.0" type="line"/>
      <point x="835.0606060606059" y="0.0" type="line"/>
      <point x="1210.4040404040402" y="1097.171717171717" type="line"/>
      <point x="842.909090909091" y="1097.171717171717" type="line"/>
      <point x="600.7575757575758" y="300.44444444444434" type="line"/>
      <point x="625.6262626262626" y="300.44444444444434" type="line"/>
      <point x="383.47474747474735" y="1097.171717171717" type="line"/>
      <point x="-6.767676767676754" y="1097.171717171717" type="line"/>
    </contour>
  </outline>
</glyph>
<glyph name="x" format="2">
  <advance width="1166.8080808080808"/>
  <unicode hex="0078"/>
  <anchor x="583.6161616161615" y="0.0" name="bottom"/>
  <anchor x="584.4747474747475" y="1200.0" name="top"/>
  <outline>
    <contour>
      <point x="774.0505050505051" y="0.0" type="line"/>
      <point x="1183.7373737373737" y="0.0" type="line"/>
      <point x="801.4848484848484" y="557.1616161616162" type="line"/>
      <point x="587.9090909090909" y="814.7878787878788" type="line"/>
      <point x="401.04040404040387" y="1097.171717171717" type="line"/>
      <point x="-8.64646464646463" y="1097.171717171717" type="line"/>
      <point x="362.8888888888889" y="552.5858585858585" type="line"/>
      <point x="580.7575757575758" y="296.81818181818187" type="line"/>
    </contour>
    <contour>
      <point x="-15.64646464646463" y="0.0" type="line"/>
      <point x="382.7373737373736" y="0.0" type="line"/>
      <point x="580.7575757575758" y="296.81818181818187" type="line"/>
      <point x="801.4848484848484" y="557.1616161616162" type="line"/>
      <point x="1170.4444444444443" y="1097.171717171717" type="line"/>
      <point x="772.3434343434344" y="1097.171717171717" type="line"/>
      <point x="587.9090909090909" y="814.7878787878788" type="line"/>
      <point x="362.8888888888889" y="552.5858585858585" type="line"/>
    </contour>
  </outline>
</glyph>
<glyph name="braceleft" format="2">
  <advance width="775.8989898989898"/>
  <unicode hex="007B"/>
  <outline>
    <contour>
      <point x="617.7676767676768" y="-460.0" type="curve" smooth="yes"/>
      <point x="690.10101010101" y="-460.0"/>
      <point x="750.6969696969696" y="-454.2828282828283"/>
      <point x="803.8787878787878" y="-446.5656565656566" type="curve"/>
      <point x="803.8787878787878" y="-162.18181818181827" type="line"/>
      <point x="684.1717171717171" y="-162.18181818181827" type="line" smooth="yes"/>
      <point x="599.0404040404039" y="-162.18181818181827"/>
      <point x="554.9696969696969" y="-129.25252525252532"/>
      <point x="554.9696969696969" y="-45.696969696969745" type="curve" smooth="yes"/>
      <point x="554.9696969696969" y="357.93939393939394" type="line" smooth="yes"/>
      <point x="554.9696969696969" y="545.4545454545455"/>
      <point x="455.7373737373737" y="648.3636363636364"/>
      <point x="196.32323232323233" y="652.040404040404" type="curve"/>
      <point x="196.32323232323233" y="609.1313131313132" type="line"/>
      <point x="455.7373737373737" y="612.8080808080808"/>
      <point x="554.9696969696969" y="715.7171717171717"/>
      <point x="554.9696969696969" y="903.2323232323232" type="curve" smooth="yes"/>
      <point x="554.9696969696969" y="1221.6969696969697" type="line" smooth="yes"/>
      <point x="554.9696969696969" y="1305.2525252525254"/>
      <point x="599.0404040404039" y="1338.1818181818182"/>
      <point x="684.1717171717171" y="1338.1818181818182" type="curve" smooth="yes"/>
      <point x="803.8787878787878" y="1338.1818181818182" type="line"/>
      <point x="803.8787878787878" y="1622.5656565656566" type="line"/>
      <point x="750.6969696969696" y="1630.2828282828282"/>
      <point x="690.10101010101" y="1636.0"/>
      <point x="617.7676767676768" y="1636.0" type="curve" smooth="yes"/>
      <point x="327.93939393939394" y="1636.0"/>
      <point x="180.45454545454547" y="1495.5151515151515"/>
      <point x="180.45454545454547" y="1234.4444444444446" type="curve" smooth="yes"/>
      <point x="180.45454545454547" y="896.6666666666666" type="line" smooth="yes"/>
      <point x="180.45454545454547" y="822.1919191919192"/>
      <point x="133.90909090909093" y="776.7777777777777"/>
      <point x="60.84848484848485" y="776.7777777777777" type="curve" smooth="yes"/>
      <point x="0.3434343434343674" y="776.7777777777777" type="line"/>
      <point x="0.3434343434343674" y="484.39393939393943" type="line"/>
      <point x="60.84848484848485" y="484.39393939393943" type="line" smooth="yes"/>
      <point x="133.90909090909093" y="484.39393939393943"/>
      <point x="180.45454545454547" y="438.97979797979804"/>
      <point x="180.45454545454547" y="364.5050505050505" type="curve" smooth="yes"/>
      <point x="180.45454545454547" y="-58.444444444444485" type="line" smooth="yes"/>
      <point x="180.45454545454547" y="-319.5151515151515"/>
      <point x="327.93939393939394" y="-460.0"/>
    </contour>
  </outline>
</glyph>
<glyph name="bar" format="2">
  <advance width="576.7878787878788"/>
  <unicode hex="007C"/>
  <outline>
    <contour>
      <point x="120.45454545454547" y="-440.0" type="line"/>
      <point x="456.33333333333326" y="-440.0" type="line"/>
      <point x="456.33333333333326" y="1616.0" type="line"/>
      <point x="120.45454545454547" y="1616.0" type="line"/>
    </contour>
  </outline>
</glyph>
<glyph name="braceright" format="2">
  <advance width="775.8989898989898"/>
  <unicode hex="007D"/>
  <outline>
    <contour>
      <point x="158.1313131313131" y="-460.0" type="curve" smooth="yes"/>
      <point x="447.9595959595959" y="-460.0"/>
      <point x="595.4444444444443" y="-319.5151515151515"/>
      <point x="595.4444444444443" y="-58.444444444444485" type="curve" smooth="yes"/>
      <point x="595.4444444444443" y="364.5050505050505" type="line" smooth="yes"/>
      <point x="595.4444444444443" y="438.97979797979804"/>
      <point x="641.9898989898988" y="484.39393939393943"/>
      <point x="715.0505050505051" y="484.39393939393943" type="curve" smooth="yes"/>
      <point x="775.5555555555554" y="484.39393939393943" type="line"/>
      <point x="775.5555555555554" y="776.7777777777777" type="line"/>
      <point x="715.0505050505051" y="776.7777777777777" type="line" smooth="yes"/>
      <point x="641.9898989898988" y="776.7777777777777"/>
      <point x="595.4444444444443" y="822.1919191919192"/>
      <point x="595.4444444444443" y="896.6666666666666" type="curve" smooth="yes"/>
      <point x="595.4444444444443" y="1234.4444444444446" type="line" smooth="yes"/>
      <point x="595.4444444444443" y="1495.5151515151515"/>
      <point x="447.9595959595959" y="1636.0"/>
      <point x="158.1313131313131" y="1636.0" type="curve" smooth="yes"/>
      <point x="85.79797979797978" y="1636.0"/>
      <point x="25.202020202020186" y="1630.2828282828282"/>
      <point x="-27.979797979797986" y="1622.5656565656566" type="curve"/>
      <point x="-27.979797979797986" y="1338.1818181818182" type="line"/>
      <point x="91.72727272727272" y="1338.1818181818182" type="line" smooth="yes"/>
      <point x="176.85858585858588" y="1338.1818181818182"/>
      <point x="220.92929292929298" y="1305.2525252525254"/>
      <point x="220.92929292929298" y="1221.6969696969697" type="curve" smooth="yes"/>
      <point x="220.92929292929298" y="903.2323232323232" type="line" smooth="yes"/>
      <point x="220.92929292929298" y="715.7171717171717"/>
      <point x="322.7373737373738" y="612.8080808080808"/>
      <point x="579.5757575757575" y="609.1313131313132" type="curve"/>
      <point x="579.5757575757575" y="652.040404040404" type="line"/>
      <point x="322.7373737373738" y="648.3636363636364"/>
      <point x="220.92929292929298" y="545.4545454545455"/>
      <point x="220.92929292929298" y="357.93939393939394" type="curve" smooth="yes"/>
      <point x="220.92929292929298" y="-45.696969696969745" type="line" smooth="yes"/>
      <point x="220.92929292929298" y="-129.25252525252532"/>
      <point x="176.85858585858588" y="-162.18181818181827"/>
      <point x="91.72727272727272" y="-162.18181818181827" type="curve" smooth="yes"/>
      <point x="-27.979797979797986" y="-162.18181818181827" type="line"/>
      <point x="-27.979797979797986" y="-446.5656565656566" type="line"/>
      <point x="25.202020202020186" y="-454.2828282828283"/>
      <point x="85.79797979797978" y="-460.0"/>
    </contour>
  </outline>
</glyph>
<glyph name="asciitilde" format="2">
  <advance width="1108.3636363636363"/>
  <unicode hex="007E"/>
  <outline>
    <contour>
      <point x="755.3737373737374" y="560.969696969697" type="curve" smooth="yes"/>
      <point x="861.7070707070707" y="560.969696969697"/>
      <point x="936.8585858585858" y="591.2525252525253"/>
      <point x="1002.3232323232323" y="661.2727272727273" type="curve"/>
      <point x="1002.3232323232323" y="949.3333333333333" type="line"/>
      <point x="924.2828282828283" y="872.1818181818181"/>
      <point x="852.5555555555555" y="839.6161616161615"/>
      <point x="758.5252525252525" y="839.6161616161615" type="curve" smooth="yes"/>
      <point x="630.4848484848485" y="839.6161616161615"/>
      <point x="512.4646464646464" y="957.3333333333333"/>
      <point x="352.989898989899" y="957.3333333333333" type="curve" smooth="yes"/>
      <point x="246.65656565656568" y="957.3333333333333"/>
      <point x="171.50505050505052" y="927.050505050505"/>
      <point x="106.04040404040407" y="857.030303030303" type="curve"/>
      <point x="106.04040404040407" y="568.969696969697" type="line"/>
      <point x="184.08080808080808" y="646.1212121212121"/>
      <point x="255.80808080808083" y="678.6868686868687"/>
      <point x="349.83838383838383" y="678.6868686868687" type="curve" smooth="yes"/>
      <point x="477.8787878787879" y="678.6868686868687"/>
      <point x="595.8989898989898" y="560.969696969697"/>
    </contour>
  </outline>
</glyph>
<glyph name="exclamdown" format="2">
  <advance width="629.7373737373737"/>
  <unicode hex="00A1"/>
  <outline>
    <contour>
      <point x="203.2929292929293" y="573.3939393939395" type="line"/>
      <point x="115.73737373737376" y="105.00000000000003" type="line"/>
      <point x="115.73737373737376" y="-380.0" type="line"/>
      <point x="513.9999999999999" y="-380.0" type="line"/>
      <point x="513.9999999999999" y="105.00000000000003" type="line"/>
      <point x="430.7373737373737" y="573.3939393939395" type="line"/>
    </contour>
    <contour>
      <point x="314.86868686868684" y="1115.7575757575758" type="curve" smooth="yes"/>
      <point x="169.82828282828282" y="1115.7575757575758"/>
      <point x="76.00000000000003" y="1030.79797979798"/>
      <point x="76.00000000000003" y="893.2020202020203" type="curve" smooth="yes"/>
      <point x="76.00000000000003" y="755.6060606060607"/>
      <point x="166.3939393939394" y="670.3636363636365"/>
      <point x="314.86868686868684" y="670.3636363636365" type="curve" smooth="yes"/>
      <point x="463.34343434343424" y="670.3636363636365"/>
      <point x="553.7373737373737" y="759.0404040404042"/>
      <point x="553.7373737373737" y="893.2020202020203" type="curve" smooth="yes"/>
      <point x="553.7373737373737" y="1027.3636363636365"/>
      <point x="459.9090909090908" y="1115.7575757575758"/>
    </contour>
  </outline>
</glyph>
<glyph name="cent" format="2">
  <advance width="996.7070707070707"/>
  <unicode hex="00A2"/>
  <outline>
    <contour>
      <point x="659.060606060606" y="-21.434343434343432" type="curve" smooth="yes"/>
      <point x="761.8080808080808" y="-21.434343434343432"/>
      <point x="862.2626262626262" y="-6.4343434343434325"/>
      <point x="941.5353535353535" y="18.696969696969703" type="curve"/>
      <point x="941.5353535353535" y="311.64646464646455" type="line"/>
      <point x="850.4040404040403" y="288.6666666666666"/>
      <point x="786.7171717171716" y="278.10101010101"/>
      <point x="718.4343434343434" y="278.10101010101" type="curve" smooth="yes"/>
      <point x="537.9595959595958" y="278.10101010101"/>
      <point x="446.16161616161605" y="354.72727272727263"/>
      <point x="446.16161616161605" y="549.1515151515151" type="curve" smooth="yes"/>
      <point x="446.16161616161605" y="735.0"/>
      <point x="534.3737373737373" y="815.3535353535354"/>
      <point x="742.4141414141413" y="815.3535353535354" type="curve" smooth="yes"/>
      <point x="809.5555555555554" y="815.3535353535354"/>
      <point x="871.8282828282828" y="808.7878787878789"/>
      <point x="941.5353535353535" y="797.2323232323233" type="curve"/>
      <point x="941.5353535353535" y="1090.1818181818182" type="line"/>
      <point x="864.6666666666665" y="1106.7474747474748"/>
      <point x="782.6464646464646" y="1114.888888888889"/>
      <point x="689.6060606060605" y="1114.888888888889" type="curve" smooth="yes"/>
      <point x="290.3131313131313" y="1114.888888888889"/>
      <point x="60.7777777777778" y="930.2727272727273"/>
      <point x="60.7777777777778" y="546.010101010101" type="curve" smooth="yes"/>
      <point x="60.7777777777778" y="167.6161616161616"/>
      <point x="272.44444444444446" y="-21.434343434343432"/>
    </contour>
    <contour>
      <point x="462.21212121212125" y="-240.0" type="line"/>
      <point x="780.3535353535353" y="-240.0" type="line"/>
      <point x="780.3535353535353" y="51.515151515151494" type="line"/>
      <point x="462.21212121212125" y="51.515151515151494" type="line"/>
    </contour>
    <contour>
      <point x="462.21212121212125" y="1045.6565656565656" type="line"/>
      <point x="780.3535353535353" y="1045.6565656565656" type="line"/>
      <point x="780.3535353535353" y="1337.171717171717" type="line"/>
      <point x="462.21212121212125" y="1337.171717171717" type="line"/>
    </contour>
  </outline>
</glyph>
<glyph name="sterling" format="2">
  <advance width="1370.5353535353534"/>
  <unicode hex="00A3"/>
  <outline>
    <contour>
      <point x="259.0505050505051" y="110.98989898989896" type="line"/>
      <point x="629.2727272727273" y="110.98989898989896" type="line"/>
      <point x="629.2727272727273" y="1004.1818181818182" type="line" smooth="yes"/>
      <point x="629.2727272727273" y="1139.5353535353536"/>
      <point x="703.8686868686868" y="1194.1717171717173"/>
      <point x="945.9696969696969" y="1194.1717171717173" type="curve" smooth="yes"/>
      <point x="1049.969696969697" y="1194.1717171717173"/>
      <point x="1176.7272727272727" y="1178.4545454545455"/>
      <point x="1268.8484848484848" y="1153.1818181818182" type="curve"/>
      <point x="1268.8484848484848" y="1460.7272727272727" type="line"/>
      <point x="1174.4141414141413" y="1483.858585858586"/>
      <point x="1049.3939393939393" y="1499.7171717171718"/>
      <point x="919.7777777777777" y="1499.7171717171718" type="curve" smooth="yes"/>
      <point x="473.6969696969697" y="1499.7171717171718"/>
      <point x="259.0505050505051" y="1319.9292929292928"/>
      <point x="259.0505050505051" y="988.7272727272727" type="curve" smooth="yes"/>
    </contour>
    <contour>
      <point x="71.41414141414143" y="0.0" type="line"/>
      <point x="1314.5757575757575" y="0.0" type="line"/>
      <point x="1314.5757575757575" y="302.6868686868686" type="line"/>
      <point x="71.41414141414143" y="302.6868686868686" type="line"/>
    </contour>
    <contour>
      <point x="71.41414141414143" y="612.3939393939395" type="line"/>
      <point x="1073.090909090909" y="612.3939393939395" type="line"/>
      <point x="1073.090909090909" y="887.6060606060605" type="line"/>
      <point x="71.41414141414143" y="887.6060606060605" type="line"/>
    </contour>
  </outline>
</glyph>
<glyph name="yen" format="2">
  <advance width="1329.7070707070707"/>
  <unicode hex="00A5"/>
  <outline>
    <contour>
      <point x="475.87878787878793" y="0.0" type="line"/>
      <point x="858.121212121212" y="0.0" type="line"/>
      <point x="858.121212121212" y="763.6666666666666" type="line"/>
      <point x="781.7373737373737" y="489.72727272727275" type="line"/>
      <point x="1374.5151515151515" y="1480.0" type="line"/>
      <point x="1000.8787878787879" y="1480.0" type="line"/>
      <point x="623.5252525252525" y="849.6464646464646" type="line"/>
      <point x="727.9292929292928" y="849.6464646464646" type="line"/>
      <point x="347.2828282828282" y="1480.0" type="line"/>
      <point x="-55.96969696969694" y="1480.0" type="line"/>
      <point x="552.2626262626262" y="489.72727272727275" type="line"/>
      <point x="475.87878787878793" y="768.8181818181818" type="line"/>
    </contour>
    <contour>
      <point x="164.46464646464648" y="248.7373737373738" type="line"/>
      <point x="1169.5353535353534" y="248.7373737373738" type="line"/>
      <point x="1169.5353535353534" y="465.5656565656565" type="line"/>
      <point x="164.46464646464648" y="465.5656565656565" type="line"/>
    </contour>
    <contour>
      <point x="164.46464646464648" y="582.4343434343434" type="line"/>
      <point x="1169.5353535353534" y="582.4343434343434" type="line"/>
      <point x="1169.5353535353534" y="799.2626262626262" type="line"/>
      <point x="164.46464646464648" y="799.2626262626262" type="line"/>
    </contour>
  </outline>
</glyph>
<glyph name="brokenbar" format="2">
  <advance width="576.7878787878788"/>
  <unicode hex="00A6"/>
  <outline>
    <contour>
      <point x="120.45454545454547" y="836.0" type="line"/>
      <point x="456.33333333333326" y="836.0" type="line"/>
      <point x="456.33333333333326" y="1616.0" type="line"/>
      <point x="120.45454545454547" y="1616.0" type="line"/>
    </contour>
    <contour>
      <point x="120.45454545454547" y="-440.0" type="line"/>
      <point x="456.33333333333326" y="-440.0" type="line"/>
      <point x="456.33333333333326" y="340.0" type="line"/>
      <point x="120.45454545454547" y="340.0" type="line"/>
    </contour>
  </outline>
</glyph>
<glyph name="section" format="2">
  <advance width="1142.0202020202019"/>
  <unicode hex="00A7"/>
  <outline>
    <contour>
      <point x="481.24242424242425" y="-21.434343434343432" type="curve" smooth="yes"/>
      <point x="828.2525252525252" y="-21.434343434343432"/>
      <point x="1007.7676767676767" y="116.6060606060606"/>
      <point x="1007.7676767676767" y="335.8080808080808" type="curve" smooth="yes"/>
      <point x="1007.7676767676767" y="498.1212121212121"/>
      <point x="902.5656565656566" y="582.1111111111111"/>
      <point x="722.7474747474746" y="618.6666666666666" type="curve" smooth="yes"/>
      <point x="488.1414141414141" y="663.8383838383838" type="line" smooth="yes"/>
      <point x="411.4040404040403" y="679.6666666666666"/>
      <point x="387.31313131313124" y="713.3131313131313"/>
      <point x="387.31313131313124" y="762.2121212121212" type="curve" smooth="yes"/>
      <point x="387.31313131313124" y="802.7272727272727"/>
      <point x="404.99999999999994" y="837.5353535353536"/>
      <point x="448.38383838383834" y="884.5454545454546" type="curve"/>
      <point x="255.7171717171717" y="1010.8282828282828" type="line"/>
      <point x="149.52525252525254" y="950.1010101010102"/>
      <point x="82.4848484848485" y="863.2323232323232"/>
      <point x="82.4848484848485" y="742.040404040404" type="curve" smooth="yes"/>
      <point x="82.4848484848485" y="558.5454545454546"/>
      <point x="193.83838383838383" y="464.4040404040404"/>
      <point x="361.22222222222223" y="430.7070707070707" type="curve" smooth="yes"/>
      <point x="594.969696969697" y="385.5353535353536" type="line" smooth="yes"/>
      <point x="648.5252525252525" y="374.8585858585859"/>
      <point x="670.6060606060606" y="355.21212121212125"/>
      <point x="670.6060606060606" y="315.2121212121212" type="curve" smooth="yes"/>
      <point x="670.6060606060606" y="267.3737373737373"/>
      <point x="631.1313131313132" y="233.45454545454538"/>
      <point x="476.5151515151515" y="233.45454545454538" type="curve" smooth="yes"/>
      <point x="362.6161616161616" y="233.45454545454538"/>
      <point x="245.6969696969697" y="247.03030303030297"/>
      <point x="137.12121212121212" y="275.5959595959595" type="curve"/>
      <point x="137.12121212121212" y="20.424242424242426" type="line"/>
      <point x="244.58585858585857" y="-7.575757575757574"/>
      <point x="372.7979797979798" y="-21.434343434343432"/>
    </contour>
    <contour>
      <point x="870.8383838383838" y="459.010101010101" type="line"/>
      <point x="984.9090909090908" y="521.3131313131313"/>
      <point x="1059.5353535353534" y="611.1919191919192"/>
      <point x="1059.5353535353534" y="740.10101010101" type="curve" smooth="yes"/>
      <point x="1059.5353535353534" y="925.5959595959596"/>
      <point x="954.3333333333333" y="1015.020202020202"/>
      <point x="782.2424242424241" y="1048.141414141414" type="curve" smooth="yes"/>
      <point x="539.9090909090909" y="1091.5959595959596" type="line" smooth="yes"/>
      <point x="486.3535353535353" y="1102.2727272727273"/>
      <point x="462.82828282828274" y="1121.8989898989898"/>
      <point x="462.82828282828274" y="1157.919191919192" type="curve" smooth="yes"/>
      <point x="462.82828282828274" y="1199.919191919192"/>
      <point x="505.3232323232322" y="1242.828282828283"/>
      <point x="711.0101010101009" y="1242.828282828283" type="curve" smooth="yes"/>
      <point x="797.1616161616162" y="1242.828282828283"/>
      <point x="881.050505050505" y="1234.828282828283"/>
      <point x="966.6161616161615" y="1215.9797979797981" type="curve"/>
      <point x="966.6161616161615" y="1471.1515151515152" type="line"/>
      <point x="884.6060606060605" y="1487.7171717171718"/>
      <point x="781.4141414141413" y="1497.7171717171718"/>
      <point x="682.6767676767677" y="1497.7171717171718" type="curve" smooth="yes"/>
      <point x="289.73737373737373" y="1497.7171717171718"/>
      <point x="125.66666666666667" y="1354.5454545454545"/>
      <point x="125.66666666666667" y="1137.7474747474748" type="curve" smooth="yes"/>
      <point x="125.66666666666667" y="986.0202020202021"/>
      <point x="235.3030303030303" y="894.7373737373738"/>
      <point x="420.7171717171717" y="858.4646464646465" type="curve" smooth="yes"/>
      <point x="654.4646464646464" y="813.2929292929293" type="line" smooth="yes"/>
      <point x="731.2020202020202" y="797.4646464646465"/>
      <point x="754.7070707070707" y="763.7979797979798"/>
      <point x="754.7070707070707" y="715.2121212121212" type="curve" smooth="yes"/>
      <point x="754.7070707070707" y="671.989898989899"/>
      <point x="733.5858585858585" y="641.040404040404"/>
      <point x="670.1616161616162" y="591.020202020202" type="curve"/>
    </contour>
  </outline>
</glyph>
<glyph name="dieresis" format="2">
  <advance width="1171.7171717171716"/>
  <unicode hex="00A8"/>
  <anchor x="585.8585858585858" y="1200.0" name="_top"/>
  <anchor x="585.8585858585858" y="1607.5151515151515" name="top"/>
  <outline>
    <contour>
      <point x="840.8080808080807" y="1235.5050505050506" type="curve" smooth="yes"/>
      <point x="968.6767676767676" y="1235.5050505050506"/>
      <point x="1037.6060606060605" y="1304.1515151515152"/>
      <point x="1037.6060606060605" y="1418.5656565656566" type="curve" smooth="yes"/>
      <point x="1037.6060606060605" y="1532.979797979798"/>
      <point x="968.6767676767676" y="1601.9090909090908"/>
      <point x="840.8080808080807" y="1601.9090909090908" type="curve" smooth="yes"/>
      <point x="712.9393939393939" y="1601.9090909090908"/>
      <point x="644.010101010101" y="1532.979797979798"/>
      <point x="644.010101010101" y="1418.5656565656566" type="curve" smooth="yes"/>
      <point x="644.010101010101" y="1304.1515151515152"/>
      <point x="712.9393939393939" y="1235.5050505050506"/>
    </contour>
    <contour>
      <point x="330.9090909090909" y="1235.5050505050506" type="curve" smooth="yes"/>
      <point x="458.7777777777777" y="1235.5050505050506"/>
      <point x="527.7070707070707" y="1304.1515151515152"/>
      <point x="527.7070707070707" y="1418.5656565656566" type="curve" smooth="yes"/>
      <point x="527.7070707070707" y="1532.979797979798"/>
      <point x="458.7777777777777" y="1601.9090909090908"/>
      <point x="330.9090909090909" y="1601.9090909090908" type="curve" smooth="yes"/>
      <point x="203.04040404040407" y="1601.9090909090908"/>
      <point x="134.11111111111114" y="1532.979797979798"/>
      <point x="134.11111111111114" y="1418.5656565656566" type="curve" smooth="yes"/>
      <point x="134.11111111111114" y="1304.1515151515152"/>
      <point x="203.04040404040407" y="1235.5050505050506"/>
    </contour>
  </outline>
</glyph>
<glyph name="copyright" format="2">
  <advance width="1650.1616161616162"/>
  <unicode hex="00A9"/>
  <outline>
    <contour>
      <point x="825.0808080808081" y="-22.0" type="curve" smooth="yes"/>
      <point x="1276.2323232323233" y="-22.0"/>
      <point x="1574.2323232323233" y="282.0"/>
      <point x="1574.2323232323233" y="740.0" type="curve" smooth="yes"/>
      <point x="1574.2323232323233" y="1198.0"/>
      <point x="1276.2323232323233" y="1502.0"/>
      <point x="825.0808080808081" y="1502.0" type="curve" smooth="yes"/>
      <point x="373.92929292929296" y="1502.0"/>
      <point x="75.92929292929294" y="1198.0"/>
      <point x="75.92929292929294" y="740.0" type="curve" smooth="yes"/>
      <point x="75.92929292929294" y="282.0"/>
      <point x="373.92929292929296" y="-22.0"/>
    </contour>
    <contour>
      <point x="889.989898989899" y="324.0" type="curve" smooth="yes"/>
      <point x="971.4242424242424" y="324.0"/>
      <point x="1043.4242424242425" y="336.0"/>
      <point x="1095.969696969697" y="355.6969696969697" type="curve"/>
      <point x="1095.969696969697" y="579.6767676767677" type="line"/>
      <point x="1017.4040404040404" y="559.6969696969696"/>
      <point x="971.1616161616162" y="553.131313131313"/>
      <point x="914.8787878787879" y="553.131313131313" type="curve" smooth="yes"/>
      <point x="791.0" y="553.131313131313"/>
      <point x="720.5151515151515" y="615.050505050505"/>
      <point x="720.5151515151515" y="732.8484848484849" type="curve" smooth="yes"/>
      <point x="720.5151515151515" y="851.5151515151515"/>
      <point x="785.8484848484848" y="914.868686868687"/>
      <point x="928.2929292929293" y="914.868686868687" type="curve" smooth="yes"/>
      <point x="986.2727272727273" y="914.868686868687"/>
      <point x="1035.6868686868686" y="908.3030303030304"/>
      <point x="1095.969696969697" y="897.1717171717172" type="curve"/>
      <point x="1095.969696969697" y="1121.1515151515152" type="line"/>
      <point x="1038.8383838383838" y="1136.0"/>
      <point x="977.1212121212121" y="1144.0"/>
      <point x="903.969696969697" y="1144.0" type="curve" smooth="yes"/>
      <point x="626.2323232323232" y="1144.0"/>
      <point x="452.75757575757575" y="992.5656565656566"/>
      <point x="452.75757575757575" y="732.2828282828283" type="curve" smooth="yes"/>
      <point x="452.75757575757575" y="472.3030303030303"/>
      <point x="623.929292929293" y="324.0"/>
    </contour>
    <contour>
      <point x="825.0808080808081" y="169.63636363636357" type="curve" smooth="yes"/>
      <point x="477.4646464646465" y="169.63636363636357"/>
      <point x="276.1515151515151" y="388.96969696969694"/>
      <point x="276.1515151515151" y="740.0" type="curve" smooth="yes"/>
      <point x="276.1515151515151" y="1091.030303030303"/>
      <point x="477.4646464646465" y="1310.3636363636365"/>
      <point x="825.0808080808081" y="1310.3636363636365" type="curve" smooth="yes"/>
      <point x="1172.6969696969697" y="1310.3636363636365"/>
      <point x="1374.0101010101012" y="1091.030303030303"/>
      <point x="1374.0101010101012" y="740.0" type="curve" smooth="yes"/>
      <point x="1374.0101010101012" y="388.96969696969694"/>
      <point x="1172.6969696969697" y="169.63636363636357"/>
    </contour>
  </outline>
</glyph>
<glyph name="guillemetleft" format="2">
  <advance width="1300.8484848484848"/>
  <unicode hex="00AB"/>
  <outline>
    <contour>
      <point x="323.8989898989899" y="131.41414141414143" type="line"/>
      <point x="703.5555555555554" y="131.41414141414143" type="line"/>
      <point x="454.4242424242423" y="568.5858585858585" type="line"/>
      <point x="703.5555555555554" y="1005.7575757575758" type="line"/>
      <point x="323.8989898989899" y="1005.7575757575758" type="line"/>
      <point x="74.76767676767679" y="568.5858585858585" type="line"/>
    </contour>
    <contour>
      <point x="886.4242424242424" y="131.41414141414143" type="line"/>
      <point x="1266.0808080808079" y="131.41414141414143" type="line"/>
      <point x="1016.9494949494947" y="568.5858585858585" type="line"/>
      <point x="1266.0808080808079" y="1005.7575757575758" type="line"/>
      <point x="886.4242424242424" y="1005.7575757575758" type="line"/>
      <point x="637.2929292929292" y="568.5858585858585" type="line"/>
    </contour>
  </outline>
</glyph>
<glyph name="logicalnot" format="2">
  <advance width="1332.2828282828282"/>
  <unicode hex="00AC"/>
  <outline>
    <contour>
      <point x="935.7070707070708" y="198.86868686868686" type="line"/>
      <point x="1232.090909090909" y="198.86868686868686" type="line"/>
      <point x="1232.090909090909" y="901.8989898989898" type="line"/>
      <point x="106.04040404040407" y="901.8989898989898" type="line"/>
      <point x="106.04040404040407" y="618.1010101010102" type="line"/>
      <point x="935.7070707070708" y="618.1010101010102" type="line"/>
    </contour>
  </outline>
</glyph>
<glyph name="softhyphen" format="2">
  <advance width="933.6565656565656"/>
  <unicode hex="00AD"/>
  <outline>
    <contour>
      <point x="106.04040404040407" y="417.2424242424243" type="line"/>
      <point x="827.6161616161615" y="417.2424242424243" type="line"/>
      <point x="827.6161616161615" y="719.9292929292928" type="line"/>
      <point x="106.04040404040407" y="719.9292929292928" type="line"/>
    </contour>
  </outline>
</glyph>
<glyph name="registered" format="2">
  <advance width="1414.6464646464647"/>
  <unicode hex="00AE"/>
  <outline>
    <contour>
      <point x="707.3232323232323" y="268.0" type="curve" smooth="yes"/>
      <point x="1069.3232323232323" y="268.0"/>
      <point x="1317.3232323232323" y="518.0"/>
      <point x="1317.3232323232323" y="882.0" type="curve" smooth="yes"/>
      <point x="1317.3232323232323" y="1246.0"/>
      <point x="1069.3232323232323" y="1498.0"/>
      <point x="707.3232323232323" y="1498.0" type="curve" smooth="yes"/>
      <point x="345.32323232323233" y="1498.0"/>
      <point x="97.32323232323235" y="1246.0"/>
      <point x="97.32323232323235" y="882.0" type="curve" smooth="yes"/>
      <point x="97.32323232323235" y="518.0"/>
      <point x="345.32323232323233" y="268.0"/>
    </contour>
    <contour>
      <point x="823.5050505050506" y="600.0" type="line"/>
      <point x="990.5151515151515" y="600.0" type="line"/>
      <point x="835.1212121212121" y="825.6565656565657" type="line"/>
      <point x="685.8282828282829" y="799.6565656565657" type="line"/>
    </contour>
    <contour>
      <point x="707.3232323232323" y="411.27272727272725" type="curve" smooth="yes"/>
      <point x="430.83838383838383" y="411.27272727272725"/>
      <point x="251.1818181818182" y="596.3636363636364"/>
      <point x="251.1818181818182" y="882.0" type="curve" smooth="yes"/>
      <point x="251.1818181818182" y="1169.3535353535353"/>
      <point x="430.83838383838383" y="1354.7272727272727"/>
      <point x="707.3232323232323" y="1354.7272727272727" type="curve" smooth="yes"/>
      <point x="983.8080808080808" y="1354.7272727272727"/>
      <point x="1163.4646464646466" y="1169.3535353535353"/>
      <point x="1163.4646464646466" y="882.0" type="curve" smooth="yes"/>
      <point x="1163.4646464646466" y="596.3636363636364"/>
      <point x="983.8080808080808" y="411.27272727272725"/>
    </contour>
    <contour>
      <point x="487.3030303030303" y="600.0" type="line"/>
      <point x="639.1616161616162" y="600.0" type="line"/>
      <point x="644.3131313131313" y="791.6565656565657" type="line"/>
      <point x="698.4747474747475" y="791.6565656565657" type="line" smooth="yes"/>
      <point x="875.929292929293" y="791.6565656565657"/>
      <point x="959.6464646464647" y="855.939393939394"/>
      <point x="959.6464646464647" y="990.8282828282828" type="curve" smooth="yes"/>
      <point x="959.6464646464647" y="1125.7171717171718"/>
      <point x="873.929292929293" y="1192.0"/>
      <point x="698.4747474747475" y="1192.0" type="curve" smooth="yes"/>
      <point x="487.3030303030303" y="1192.0" type="line"/>
    </contour>
    <contour>
      <point x="644.3131313131313" y="913.7575757575758" type="line"/>
      <point x="644.3131313131313" y="1069.8989898989898" type="line"/>
      <point x="722.4949494949495" y="1069.8989898989898" type="line" smooth="yes"/>
      <point x="779.5454545454546" y="1069.8989898989898"/>
      <point x="811.2222222222223" y="1043.6363636363637"/>
      <point x="811.2222222222223" y="990.8282828282828" type="curve" smooth="yes"/>
      <point x="811.2222222222223" y="938.020202020202"/>
      <point x="781.5454545454546" y="913.7575757575758"/>
      <point x="722.4949494949495" y="913.7575757575758" type="curve" smooth="yes"/>
    </contour>
  </outline>
</glyph>
<glyph name="macron" format="2">
  <advance width="1171.7171717171716"/>
  <unicode hex="00AF"/>
  <anchor x="585.8585858585858" y="1200.0" name="_top"/>
  <anchor x="585.8585858585858" y="1607.5151515151515" name="top"/>
  <outline>
    <contour>
      <point x="214.42424242424244" y="1309.0" type="line"/>
      <point x="957.2929292929292" y="1309.0" type="line"/>
      <point x="957.2929292929292" y="1530.2727272727273" type="line"/>
      <point x="214.42424242424244" y="1530.2727272727273" type="line"/>
    </contour>
  </outline>
</glyph>
<glyph name="degree" format="2">
  <advance width="968.5454545454545"/>
  <unicode hex="00B0"/>
  <outline>
    <contour>
      <point x="484.27272727272725" y="737.5555555555557" type="curve" smooth="yes"/>
      <point x="707.4646464646464" y="737.5555555555557"/>
      <point x="871.2222222222222" y="898.1616161616162"/>
      <point x="871.2222222222222" y="1119.3535353535353" type="curve" smooth="yes"/>
      <point x="871.2222222222222" y="1340.5454545454545"/>
      <point x="707.4646464646464" y="1499.4343434343434"/>
      <point x="484.27272727272725" y="1499.4343434343434" type="curve" smooth="yes"/>
      <point x="261.0808080808081" y="1499.4343434343434"/>
      <point x="97.32323232323235" y="1340.5454545454545"/>
      <point x="97.32323232323235" y="1119.3535353535353" type="curve" smooth="yes"/>
      <point x="97.32323232323235" y="898.1616161616162"/>
      <point x="261.0808080808081" y="737.5555555555557"/>
    </contour>
    <contour>
      <point x="484.27272727272725" y="950.0909090909091" type="curve" smooth="yes"/>
      <point x="392.8080808080808" y="950.0909090909091"/>
      <point x="324.02020202020196" y="1014.5959595959596"/>
      <point x="324.02020202020196" y="1119.3535353535353" type="curve" smooth="yes"/>
      <point x="324.02020202020196" y="1224.969696969697"/>
      <point x="394.5252525252525" y="1286.89898989899"/>
      <point x="484.27272727272725" y="1286.89898989899" type="curve" smooth="yes"/>
      <point x="574.0202020202021" y="1286.89898989899"/>
      <point x="644.5252525252525" y="1224.969696969697"/>
      <point x="644.5252525252525" y="1119.3535353535353" type="curve" smooth="yes"/>
      <point x="644.5252525252525" y="1014.5959595959596"/>
      <point x="575.7373737373738" y="950.0909090909091"/>
    </contour>
  </outline>
</glyph>
<glyph name="plusminus" format="2">
  <advance width="1108.3636363636363"/>
  <unicode hex="00B1"/>
  <outline>
    <contour>
      <point x="405.989898989899" y="386.40404040404036" type="line"/>
      <point x="702.3737373737373" y="386.40404040404036" type="line"/>
      <point x="702.3737373737373" y="672.8686868686868" type="line"/>
      <point x="1002.3232323232323" y="672.8686868686868" type="line"/>
      <point x="1002.3232323232323" y="956.6666666666665" type="line"/>
      <point x="702.3737373737373" y="956.6666666666665" type="line"/>
      <point x="702.3737373737373" y="1243.1313131313132" type="line"/>
      <point x="405.989898989899" y="1243.1313131313132" type="line"/>
      <point x="405.989898989899" y="956.6666666666665" type="line"/>
      <point x="106.04040404040407" y="956.6666666666665" type="line"/>
      <point x="106.04040404040407" y="672.8686868686868" type="line"/>
      <point x="405.989898989899" y="672.8686868686868" type="line"/>
    </contour>
    <contour>
      <point x="106.04040404040407" y="0.8585858585858582" type="line"/>
      <point x="1002.3232323232323" y="0.8585858585858582" type="line"/>
      <point x="1002.3232323232323" y="284.6565656565656" type="line"/>
      <point x="106.04040404040407" y="284.6565656565656" type="line"/>
    </contour>
  </outline>
</glyph>
<glyph name="acute" format="2">
  <advance width="1171.7171717171716"/>
  <unicode hex="00B4"/>
  <anchor x="585.8585858585858" y="1200.0" name="_top"/>
  <anchor x="585.8585858585858" y="1641.858585858586" name="top"/>
  <outline>
    <contour>
      <point x="414.7676767676768" y="1226.2222222222222" type="line"/>
      <point x="756.9494949494949" y="1226.2222222222222" type="line"/>
      <point x="1039.9090909090908" y="1616.0" type="line"/>
      <point x="644.2323232323233" y="1616.0" type="line"/>
    </contour>
  </outline>
</glyph>
<glyph name="paragraph" format="2">
  <advance width="1346.2727272727273"/>
  <unicode hex="00B6"/>
  <outline>
    <contour>
      <point x="573.4545454545455" y="0.0" type="line"/>
      <point x="834.6363636363636" y="0.0" type="line"/>
      <point x="834.6363636363636" y="1480.0" type="line"/>
      <point x="748.7676767676768" y="1492.2929292929293"/>
      <point x="647.4646464646464" y="1499.1515151515152"/>
      <point x="549.7474747474747" y="1499.1515151515152" type="curve" smooth="yes"/>
      <point x="216.51515151515153" y="1499.1515151515152"/>
      <point x="67.23232323232324" y="1331.8383838383838"/>
      <point x="67.23232323232324" y="953.7676767676768" type="curve" smooth="yes"/>
      <point x="67.23232323232324" y="594.8383838383838"/>
      <point x="213.3838383838384" y="408.959595959596"/>
      <point x="495.020202020202" y="408.959595959596" type="curve" smooth="yes"/>
      <point x="523.969696969697" y="408.959595959596"/>
      <point x="546.929292929293" y="410.2424242424243"/>
      <point x="573.4545454545455" y="411.23232323232327" type="curve"/>
    </contour>
    <contour>
      <point x="964.6363636363636" y="0.0" type="line"/>
      <point x="1225.8181818181818" y="0.0" type="line"/>
      <point x="1225.8181818181818" y="1480.0" type="line"/>
      <point x="964.6363636363636" y="1480.0" type="line"/>
    </contour>
  </outline>
</glyph>
<glyph name="periodcentered" format="2">
  <advance width="589.7373737373737"/>
  <unicode hex="00B7"/>
  <anchor x="294.86868686868684" y="560.0" name="_periodcentered"/>
  <outline>
    <contour>
      <point x="294.86868686868684" y="337.1616161616162" type="curve" smooth="yes"/>
      <point x="439.9090909090908" y="337.1616161616162"/>
      <point x="533.7373737373737" y="425.5555555555556"/>
      <point x="533.7373737373737" y="559.7171717171717" type="curve" smooth="yes"/>
      <point x="533.7373737373737" y="693.8787878787879"/>
      <point x="443.34343434343424" y="782.5555555555554"/>
      <point x="294.86868686868684" y="782.5555555555554" type="curve" smooth="yes"/>
      <point x="146.3939393939394" y="782.5555555555554"/>
      <point x="56.00000000000003" y="697.3131313131313"/>
      <point x="56.00000000000003" y="559.7171717171717" type="curve" smooth="yes"/>
      <point x="56.00000000000003" y="422.1212121212122"/>
      <point x="149.82828282828282" y="337.1616161616162"/>
    </contour>
  </outline>
</glyph>
<glyph name="onesuperior" format="2">
  <advance width="878.6464646464646"/>
  <unicode hex="00B9"/>
  <outline>
    <contour>
      <point x="332.62626262626264" y="-107.41414141414141" type="line"/>
      <point x="629.3030303030303" y="-107.41414141414141" type="line"/>
      <point x="629.3030303030303" y="868.0" type="line"/>
      <point x="437.19191919191917" y="868.0" type="line"/>
      <point x="133.13131313131314" y="678.4444444444445" type="line"/>
      <point x="133.13131313131314" y="423.56565656565664" type="line"/>
      <point x="437.19191919191917" y="613.1212121212122" type="line"/>
      <point x="332.62626262626264" y="707.4040404040404" type="line"/>
    </contour>
    <contour>
      <point x="127.82828282828284" y="-136.0" type="line"/>
      <point x="822.9595959595958" y="-136.0" type="line"/>
      <point x="822.9595959595958" y="100.29292929292922" type="line"/>
      <point x="127.82828282828284" y="100.29292929292922" type="line"/>
    </contour>
  </outline>
</glyph>
<glyph name="ordmasculine" format="2">
  <advance width="1032.7878787878788"/>
  <unicode hex="00BA"/>
  <outline>
    <contour>
      <point x="516.3939393939394" y="592.5656565656566" type="curve" smooth="yes"/>
      <point x="823.8383838383838" y="592.5656565656566"/>
      <point x="997.4545454545454" y="763.2020202020202"/>
      <point x="997.4545454545454" y="1046.858585858586" type="curve" smooth="yes"/>
      <point x="997.4545454545454" y="1330.5151515151515"/>
      <point x="823.8383838383838" y="1500.5858585858587"/>
      <point x="516.3939393939394" y="1500.5858585858587" type="curve" smooth="yes"/>
      <point x="208.94949494949495" y="1500.5858585858587"/>
      <point x="35.33333333333336" y="1334.8080808080808"/>
      <point x="35.33333333333336" y="1046.858585858586" type="curve" smooth="yes"/>
      <point x="35.33333333333336" y="758.9090909090909"/>
      <point x="208.94949494949495" y="592.5656565656566"/>
    </contour>
    <contour>
      <point x="516.3939393939394" y="845.3131313131312" type="curve" smooth="yes"/>
      <point x="435.5555555555555" y="845.3131313131312"/>
      <point x="381.5151515151514" y="891.0808080808081"/>
      <point x="381.5151515151514" y="1046.858585858586" type="curve" smooth="yes"/>
      <point x="381.5151515151514" y="1203.4949494949497"/>
      <point x="435.5555555555555" y="1247.8383838383838"/>
      <point x="516.3939393939394" y="1247.8383838383838" type="curve" smooth="yes"/>
      <point x="598.9494949494949" y="1247.8383838383838"/>
      <point x="651.2727272727273" y="1203.4949494949497"/>
      <point x="651.2727272727273" y="1046.858585858586" type="curve" smooth="yes"/>
      <point x="651.2727272727273" y="891.0808080808081"/>
      <point x="598.9494949494949" y="845.3131313131312"/>
    </contour>
  </outline>
</glyph>
<glyph name="guillemetright" format="2">
  <advance width="1300.8484848484848"/>
  <unicode hex="00BB"/>
  <outline>
    <contour>
      <point x="34.76767676767679" y="131.41414141414143" type="line"/>
      <point x="414.4242424242423" y="131.41414141414143" type="line"/>
      <point x="663.5555555555554" y="568.5858585858585" type="line"/>
      <point x="414.4242424242423" y="1005.7575757575758" type="line"/>
      <point x="34.76767676767679" y="1005.7575757575758" type="line"/>
      <point x="283.8989898989899" y="568.5858585858585" type="line"/>
    </contour>
    <contour>
      <point x="597.2929292929292" y="131.41414141414143" type="line"/>
      <point x="976.9494949494947" y="131.41414141414143" type="line"/>
      <point x="1226.0808080808079" y="568.5858585858585" type="line"/>
      <point x="976.9494949494947" y="1005.7575757575758" type="line"/>
      <point x="597.2929292929292" y="1005.7575757575758" type="line"/>
      <point x="846.4242424242424" y="568.5858585858585" type="line"/>
    </contour>
  </outline>
</glyph>
<glyph name="onequarter" format="2">
  <advance width="2158.8787878787875"/>
  <unicode hex="00BC"/>
  <outline>
    <contour>
      <point x="332.62626262626264" y="644.5858585858585" type="line"/>
      <point x="629.3030303030303" y="644.5858585858585" type="line"/>
      <point x="629.3030303030303" y="1620.0" type="line"/>
      <point x="437.19191919191917" y="1620.0" type="line"/>
      <point x="133.13131313131314" y="1430.4444444444443" type="line"/>
      <point x="133.13131313131314" y="1175.5656565656566" type="line"/>
      <point x="437.19191919191917" y="1365.1212121212122" type="line"/>
      <point x="332.62626262626264" y="1459.4040404040404" type="line"/>
    </contour>
    <contour>
      <point x="127.82828282828284" y="616.0" type="line"/>
      <point x="822.9595959595958" y="616.0" type="line"/>
      <point x="822.9595959595958" y="852.2929292929292" type="line"/>
      <point x="127.82828282828284" y="852.2929292929292" type="line"/>
    </contour>
    <contour>
      <point x="520.7171717171717" y="-136.0" type="line"/>
      <point x="829.6969696969695" y="-136.0" type="line"/>
      <point x="1638.1616161616162" y="1616.0" type="line"/>
      <point x="1329.181818181818" y="1616.0" type="line"/>
    </contour>
    <contour>
      <point x="1303.7878787878788" y="48.171717171717205" type="line"/>
      <point x="2137.030303030303" y="48.171717171717205" type="line"/>
      <point x="2137.030303030303" y="267.86868686868684" type="line"/>
      <point x="1555.262626262626" y="267.86868686868684" type="line"/>
      <point x="1579.5656565656564" y="204.7979797979798" type="line"/>
      <point x="1871.4040404040402" y="864.0" type="line"/>
      <point x="1599.060606060606" y="864.0" type="line"/>
      <point x="1303.7878787878788" y="204.9393939393939" type="line"/>
    </contour>
    <contour>
      <point x="1761.6060606060605" y="-136.0" type="line"/>
      <point x="2019.3636363636363" y="-136.0" type="line"/>
      <point x="2019.3636363636363" y="526.0" type="line"/>
      <point x="1813.9595959595958" y="526.0" type="line"/>
      <point x="1761.6060606060605" y="267.86868686868684" type="line"/>
    </contour>
  </outline>
</glyph>
<glyph name="onehalf" format="2">
  <advance width="2158.8787878787875"/>
  <unicode hex="00BD"/>
  <outline>
    <contour>
      <point x="332.62626262626264" y="644.5858585858585" type="line"/>
      <point x="629.3030303030303" y="644.5858585858585" type="line"/>
      <point x="629.3030303030303" y="1620.0" type="line"/>
      <point x="437.19191919191917" y="1620.0" type="line"/>
      <point x="133.13131313131314" y="1430.4444444444443" type="line"/>
      <point x="133.13131313131314" y="1175.5656565656566" type="line"/>
      <point x="437.19191919191917" y="1365.1212121212122" type="line"/>
      <point x="332.62626262626264" y="1459.4040404040404" type="line"/>
    </contour>
    <contour>
      <point x="127.82828282828284" y="616.0" type="line"/>
      <point x="822.9595959595958" y="616.0" type="line"/>
      <point x="822.9595959595958" y="852.2929292929292" type="line"/>
      <point x="127.82828282828284" y="852.2929292929292" type="line"/>
    </contour>
    <contour>
      <point x="520.7171717171717" y="-136.0" type="line"/>
      <point x="829.6969696969695" y="-136.0" type="line"/>
      <point x="1638.1616161616162" y="1616.0" type="line"/>
      <point x="1329.181818181818" y="1616.0" type="line"/>
    </contour>
    <contour>
      <point x="1358.7777777777776" y="-136.0" type="line"/>
      <point x="2084.9090909090905" y="-136.0" type="line"/>
      <point x="2084.9090909090905" y="100.29292929292922" type="line"/>
      <point x="1691.6565656565654" y="100.29292929292922" type="line"/>
      <point x="1690.4949494949492" y="28.636363636363583" type="line"/>
      <point x="1895.090909090909" y="260.42424242424244" type="line" smooth="yes"/>
      <point x="1998.6363636363635" y="378.3636363636364"/>
      <point x="2041.060606060606" y="472.93939393939394"/>
      <point x="2041.2020202020199" y="574.2121212121212" type="curve" smooth="yes"/>
      <point x="2041.3434343434342" y="785.1212121212121"/>
      <point x="1896.7171717171714" y="877.7171717171717"/>
      <point x="1619.4242424242423" y="877.7171717171717" type="curve" smooth="yes"/>
      <point x="1522.9797979797977" y="877.7171717171717"/>
      <point x="1417.0808080808079" y="863.8585858585859"/>
      <point x="1345.9191919191917" y="840.5757575757576" type="curve"/>
      <point x="1345.9191919191917" y="610.0101010101012" type="line"/>
      <point x="1406.3333333333333" y="631.8585858585859"/>
      <point x="1495.5050505050503" y="649.1515151515152"/>
      <point x="1575.212121212121" y="649.1515151515152" type="curve" smooth="yes"/>
      <point x="1705.030303030303" y="649.1515151515152"/>
      <point x="1748.5353535353534" y="613.4747474747476"/>
      <point x="1748.5353535353534" y="544.4545454545455" type="curve" smooth="yes"/>
      <point x="1748.5353535353534" y="491.0909090909091"/>
      <point x="1716.6969696969695" y="432.5656565656566"/>
      <point x="1637.3131313131312" y="339.35353535353534" type="curve" smooth="yes"/>
      <point x="1358.7777777777776" y="17.19191919191914" type="line"/>
    </contour>
  </outline>
</glyph>
<glyph name="questiondown" format="2">
  <advance width="1022.1414141414141"/>
  <unicode hex="00BF"/>
  <outline>
    <contour>
      <point x="679.3131313131312" y="597.979797979798" type="line"/>
      <point x="451.86868686868684" y="597.979797979798" type="line"/>
      <point x="425.55555555555554" y="420.75757575757575" type="line"/>
      <point x="189.2020202020202" y="353.83838383838383"/>
      <point x="47.68686868686869" y="221.1111111111111"/>
      <point x="47.68686868686869" y="7.090909090909072" type="curve" smooth="yes"/>
      <point x="47.68686868686869" y="-253.26262626262627"/>
      <point x="235.03030303030303" y="-400.0"/>
      <point x="613.6363636363636" y="-400.0" type="curve" smooth="yes"/>
      <point x="742.090909090909" y="-400.0"/>
      <point x="896.4444444444443" y="-377.5656565656566"/>
      <point x="993.5959595959596" y="-345.14141414141415" type="curve"/>
      <point x="993.5959595959596" y="-54.767676767676846" type="line"/>
      <point x="894.4646464646464" y="-89.47474747474757"/>
      <point x="769.1414141414141" y="-109.90909090909099"/>
      <point x="658.4242424242424" y="-109.90909090909099" type="curve" smooth="yes"/>
      <point x="483.94949494949486" y="-109.90909090909099"/>
      <point x="412.1818181818181" y="-57.42424242424249"/>
      <point x="412.1818181818181" y="39.71717171717168" type="curve" smooth="yes"/>
      <point x="412.1818181818181" y="132.56565656565655"/>
      <point x="481.9999999999999" y="200.06060606060606"/>
      <point x="743.6868686868686" y="244.39393939393943" type="curve"/>
    </contour>
    <contour>
      <point x="565.1616161616162" y="1115.7575757575758" type="curve" smooth="yes"/>
      <point x="419.83838383838383" y="1115.7575757575758"/>
      <point x="326.29292929292933" y="1030.5151515151515"/>
      <point x="326.29292929292933" y="904.3636363636364" type="curve" smooth="yes"/>
      <point x="326.29292929292933" y="777.9292929292931"/>
      <point x="416.6868686868687" y="692.6868686868688"/>
      <point x="565.1616161616162" y="692.6868686868688" type="curve" smooth="yes"/>
      <point x="713.6363636363635" y="692.6868686868688"/>
      <point x="804.030303030303" y="774.4949494949497"/>
      <point x="804.030303030303" y="904.3636363636364" type="curve" smooth="yes"/>
      <point x="804.030303030303" y="1033.949494949495"/>
      <point x="710.2020202020201" y="1115.7575757575758"/>
    </contour>
  </outline>
</glyph>
<glyph name="Agrave" format="2">
  <advance width="1495.4949494949494"/>
  <unicode hex="00C0"/>
  <anchor x="747.030303030303" y="1520.0" name="_top"/>
  <anchor x="747.8888888888889" y="0.0" name="bottom"/>
  <anchor x="1486.8282828282827" y="0.0" name="ogonek"/>
  <anchor x="747.030303030303" y="1520.0" name="top"/>
  <outline>
    <contour>
      <point x="8.666666666666679" y="0.0" type="line"/>
      <point x="379.59595959595947" y="0.0" type="line"/>
      <point x="763.040404040404" y="1315.5050505050506" type="line"/>
      <point x="727.020202020202" y="1315.5050505050506" type="line"/>
      <point x="1112.1818181818182" y="0.0" type="line"/>
      <point x="1486.8282828282827" y="0.0" type="line"/>
      <point x="1027.7171717171716" y="1480.0" type="line"/>
      <point x="467.7777777777778" y="1480.0" type="line"/>
    </contour>
    <contour>
      <point x="360.4141414141414" y="365.72727272727275" type="line"/>
      <point x="1132.5050505050503" y="365.72727272727275" type="line"/>
      <point x="1052.4040404040404" y="666.9797979797979" type="line"/>
      <point x="441.3737373737373" y="666.9797979797979" type="line"/>
    </contour>
    <contour>
      <point x="578.5151515151515" y="1590.2424242424242" type="line"/>
      <point x="915.5454545454544" y="1590.2424242424242" type="line"/>
      <point x="733.6767676767676" y="1900.020202020202" type="line"/>
      <point x="341.29292929292933" y="1900.020202020202" type="line"/>
    </contour>
  </outline>
</glyph>
<glyph name="Acircumflex" format="2">
  <advance width="1495.4949494949494"/>
  <unicode hex="00C2"/>
  <anchor x="747.030303030303" y="1520.0" name="_top"/>
  <anchor x="747.8888888888889" y="0.0" name="bottom"/>
  <anchor x="1486.8282828282827" y="0.0" name="ogonek"/>
  <anchor x="747.030303030303" y="1520.0" name="top"/>
  <outline>
    <contour>
      <point x="8.666666666666679" y="0.0" type="line"/>
      <point x="379.59595959595947" y="0.0" type="line"/>
      <point x="763.040404040404" y="1315.5050505050506" type="line"/>
      <point x="727.020202020202" y="1315.5050505050506" type="line"/>
      <point x="1112.1818181818182" y="0.0" type="line"/>
      <point x="1486.8282828282827" y="0.0" type="line"/>
      <point x="1027.7171717171716" y="1480.0" type="line"/>
      <point x="467.7777777777778" y="1480.0" type="line"/>
    </contour>
    <contour>
      <point x="360.4141414141414" y="365.72727272727275" type="line"/>
      <point x="1132.5050505050503" y="365.72727272727275" type="line"/>
      <point x="1052.4040404040404" y="666.9797979797979" type="line"/>
      <point x="441.3737373737373" y="666.9797979797979" type="line"/>
    </contour>
    <contour>
      <point x="330.7979797979798" y="1590.2424242424242" type="line"/>
      <point x="608.4141414141413" y="1590.2424242424242" type="line"/>
      <point x="774.6262626262626" y="1800.6161616161617" type="line"/>
      <point x="719.4343434343434" y="1800.6161616161617" type="line"/>
      <point x="885.6464646464647" y="1590.2424242424242" type="line"/>
      <point x="1163.262626262626" y="1590.2424242424242" type="line"/>
      <point x="904.3737373737373" y="1900.020202020202" type="line"/>
      <point x="589.6868686868687" y="1900.020202020202" type="line"/>
    </contour>
  </outline>
</glyph>
<glyph name="Atilde" format="2">
  <advance width="1495.4949494949494"/>
  <unicode hex="00C3"/>
  <anchor x="747.030303030303" y="1520.0" name="_top"/>
  <anchor x="747.8888888888889" y="0.0" name="bottom"/>
  <anchor x="1486.8282828282827" y="0.0" name="ogonek"/>
  <anchor x="747.030303030303" y="1520.0" name="top"/>
  <outline>
    <contour>
      <point x="8.666666666666679" y="0.0" type="line"/>
      <point x="379.59595959595947" y="0.0" type="line"/>
      <point x="763.040404040404" y="1315.5050505050506" type="line"/>
      <point x="727.020202020202" y="1315.5050505050506" type="line"/>
      <point x="1112.1818181818182" y="0.0" type="line"/>
      <point x="1486.8282828282827" y="0.0" type="line"/>
      <point x="1027.7171717171716" y="1480.0" type="line"/>
      <point x="467.7777777777778" y="1480.0" type="line"/>
    </contour>
    <contour>
      <point x="360.4141414141414" y="365.72727272727275" type="line"/>
      <point x="1132.5050505050503" y="365.72727272727275" type="line"/>
      <point x="1052.4040404040404" y="666.9797979797979" type="line"/>
      <point x="441.3737373737373" y="666.9797979797979" type="line"/>
    </contour>
    <contour>
      <point x="925.3737373737373" y="1601.6969696969697" type="curve" smooth="yes"/>
      <point x="1020.989898989899" y="1601.6969696969697"/>
      <point x="1084.8686868686868" y="1623.6969696969697"/>
      <point x="1141.3333333333333" y="1674.7171717171718" type="curve"/>
      <point x="1141.3333333333333" y="1884.2424242424242" type="line"/>
      <point x="1076.010101010101" y="1837.1010101010102"/>
      <point x="1017.9898989898988" y="1814.1010101010102"/>
      <point x="932.2424242424242" y="1814.1010101010102" type="curve" smooth="yes"/>
      <point x="808.4747474747473" y="1814.1010101010102"/>
      <point x="712.4545454545454" y="1891.8181818181818"/>
      <point x="568.6868686868686" y="1891.8181818181818" type="curve" smooth="yes"/>
      <point x="473.07070707070704" y="1891.8181818181818"/>
      <point x="409.19191919191917" y="1868.1010101010102"/>
      <point x="352.72727272727275" y="1817.080808080808" type="curve"/>
      <point x="352.72727272727275" y="1607.5555555555557" type="line"/>
      <point x="418.050505050505" y="1654.6969696969697"/>
      <point x="476.07070707070704" y="1677.6969696969697"/>
      <point x="561.8181818181818" y="1677.6969696969697" type="curve" smooth="yes"/>
      <point x="685.5858585858585" y="1677.6969696969697"/>
      <point x="781.6060606060605" y="1601.6969696969697"/>
    </contour>
  </outline>
</glyph>
<glyph name="Adieresis" format="2">
  <advance width="1495.4949494949494"/>
  <unicode hex="00C4"/>
  <anchor x="747.030303030303" y="1520.0" name="_top"/>
  <anchor x="747.8888888888889" y="0.0" name="bottom"/>
  <anchor x="1486.8282828282827" y="0.0" name="ogonek"/>
  <anchor x="747.030303030303" y="1520.0" name="top"/>
  <outline>
    <contour>
      <point x="8.666666666666679" y="0.0" type="line"/>
      <point x="379.59595959595947" y="0.0" type="line"/>
      <point x="763.040404040404" y="1315.5050505050506" type="line"/>
      <point x="727.020202020202" y="1315.5050505050506" type="line"/>
      <point x="1112.1818181818182" y="0.0" type="line"/>
      <point x="1486.8282828282827" y="0.0" type="line"/>
      <point x="1027.7171717171716" y="1480.0" type="line"/>
      <point x="467.7777777777778" y="1480.0" type="line"/>
    </contour>
    <contour>
      <point x="360.4141414141414" y="365.72727272727275" type="line"/>
      <point x="1132.5050505050503" y="365.72727272727275" type="line"/>
      <point x="1052.4040404040404" y="666.9797979797979" type="line"/>
      <point x="441.3737373737373" y="666.9797979797979" type="line"/>
    </contour>
    <contour>
      <point x="1012.5353535353535" y="1586.969696969697" type="curve" smooth="yes"/>
      <point x="1142.979797979798" y="1586.969696969697"/>
      <point x="1208.4747474747473" y="1647.030303030303"/>
      <point x="1208.4747474747473" y="1750.2828282828282" type="curve" smooth="yes"/>
      <point x="1208.4747474747473" y="1853.5353535353536"/>
      <point x="1142.979797979798" y="1913.8787878787878"/>
      <point x="1012.5353535353535" y="1913.8787878787878" type="curve" smooth="yes"/>
      <point x="882.0909090909091" y="1913.8787878787878"/>
      <point x="816.5959595959596" y="1853.5353535353536"/>
      <point x="816.5959595959596" y="1750.2828282828282" type="curve" smooth="yes"/>
      <point x="816.5959595959596" y="1647.030303030303"/>
      <point x="882.0909090909091" y="1586.969696969697"/>
    </contour>
    <contour>
      <point x="481.5252525252525" y="1586.969696969697" type="curve" smooth="yes"/>
      <point x="611.9696969696969" y="1586.969696969697"/>
      <point x="677.4646464646464" y="1647.030303030303"/>
      <point x="677.4646464646464" y="1750.2828282828282" type="curve" smooth="yes"/>
      <point x="677.4646464646464" y="1853.5353535353536"/>
      <point x="611.9696969696969" y="1913.8787878787878"/>
      <point x="481.5252525252525" y="1913.8787878787878" type="curve" smooth="yes"/>
      <point x="351.0808080808081" y="1913.8787878787878"/>
      <point x="285.5858585858586" y="1853.5353535353536"/>
      <point x="285.5858585858586" y="1750.2828282828282" type="curve" smooth="yes"/>
      <point x="285.5858585858586" y="1647.030303030303"/>
      <point x="351.0808080808081" y="1586.969696969697"/>
    </contour>
  </outline>
</glyph>
<glyph name="Aring" format="2">
  <advance width="1495.4949494949494"/>
  <unicode hex="00C5"/>
  <anchor x="747.4545454545454" y="1494.5454545454545" name="_top"/>
  <anchor x="747.8888888888889" y="0.0" name="bottom"/>
  <anchor x="1486.8282828282827" y="0.0" name="ogonek"/>
  <anchor x="747.030303030303" y="1520.0" name="top"/>
  <outline>
    <contour>
      <point x="8.666666666666679" y="0.0" type="line"/>
      <point x="379.59595959595947" y="0.0" type="line"/>
      <point x="763.040404040404" y="1315.5050505050506" type="line"/>
      <point x="727.020202020202" y="1315.5050505050506" type="line"/>
      <point x="1112.1818181818182" y="0.0" type="line"/>
      <point x="1486.8282828282827" y="0.0" type="line"/>
      <point x="1027.7171717171716" y="1480.0" type="line"/>
      <point x="467.7777777777778" y="1480.0" type="line"/>
    </contour>
    <contour>
      <point x="360.4141414141414" y="365.72727272727275" type="line"/>
      <point x="1132.5050505050503" y="365.72727272727275" type="line"/>
      <point x="1052.4040404040404" y="666.9797979797979" type="line"/>
      <point x="441.3737373737373" y="666.9797979797979" type="line"/>
    </contour>
    <contour>
      <point x="747.4545454545454" y="1550.3434343434342" type="curve" smooth="yes"/>
      <point x="875.7777777777777" y="1550.3434343434342"/>
      <point x="969.2323232323232" y="1640.3636363636363"/>
      <point x="969.2323232323232" y="1765.2525252525252" type="curve" smooth="yes"/>
      <point x="969.2323232323232" y="1890.141414141414"/>
      <point x="875.7777777777777" y="1980.1616161616162"/>
      <point x="747.4545454545454" y="1980.1616161616162" type="curve" smooth="yes"/>
      <point x="619.1313131313132" y="1980.1616161616162"/>
      <point x="525.6767676767677" y="1890.141414141414"/>
      <point x="525.6767676767677" y="1765.2525252525252" type="curve" smooth="yes"/>
      <point x="525.6767676767677" y="1640.3636363636363"/>
      <point x="619.1313131313132" y="1550.3434343434342"/>
    </contour>
    <contour>
      <point x="747.4545454545454" y="1676.181818181818" type="curve" smooth="yes"/>
      <point x="697.2121212121211" y="1676.181818181818"/>
      <point x="662.10101010101" y="1710.7272727272727"/>
      <point x="662.10101010101" y="1765.2525252525252" type="curve" smooth="yes"/>
      <point x="662.10101010101" y="1819.7777777777778"/>
      <point x="697.2121212121211" y="1854.3232323232323"/>
      <point x="747.4545454545454" y="1854.3232323232323" type="curve" smooth="yes"/>
      <point x="797.6969696969696" y="1854.3232323232323"/>
      <point x="832.8080808080808" y="1819.7777777777778"/>
      <point x="832.8080808080808" y="1765.2525252525252" type="curve" smooth="yes"/>
      <point x="832.8080808080808" y="1710.7272727272727"/>
      <point x="797.6969696969696" y="1676.181818181818"/>
    </contour>
  </outline>
</glyph>
<glyph name="AE" format="2">
  <advance width="2061.5151515151515"/>
  <unicode hex="00C6"/>
  <anchor x="1074.6363636363635" y="0.0" name="bottom"/>
  <anchor x="1061.7676767676767" y="1520.0" name="top"/>
  <outline>
    <contour>
      <point x="8.666666666666679" y="0.0" type="line"/>
      <point x="382.17171717171703" y="0.0" type="line"/>
      <point x="729.6969696969696" y="1177.030303030303" type="line"/>
      <point x="1052.7575757575758" y="1177.030303030303" type="line"/>
      <point x="1053.040404040404" y="1480.0" type="line"/>
      <point x="469.33333333333337" y="1480.0" type="line"/>
    </contour>
    <contour>
      <point x="361.2626262626262" y="364.86868686868695" type="line"/>
      <point x="1053.7979797979797" y="364.86868686868695" type="line"/>
      <point x="1053.7979797979797" y="667.8383838383838" type="line"/>
      <point x="442.2222222222222" y="667.8383838383838" type="line"/>
    </contour>
    <contour>
      <point x="990.9797979797979" y="0.0" type="line"/>
      <point x="1989.6565656565656" y="0.0" type="line"/>
      <point x="1989.6565656565656" y="302.9696969696969" type="line"/>
      <point x="1343.6060606060605" y="302.9696969696969" type="line"/>
      <point x="1267.6262626262624" y="1177.030303030303" type="line"/>
      <point x="1979.6565656565656" y="1177.030303030303" type="line"/>
      <point x="1979.6565656565656" y="1480.0" type="line"/>
      <point x="876.3737373737374" y="1480.0" type="line"/>
    </contour>
    <contour>
      <point x="1126.20202020202" y="604.3636363636364" type="line"/>
      <point x="1876.070707070707" y="604.3636363636364" type="line"/>
      <point x="1876.070707070707" y="907.3333333333333" type="line"/>
      <point x="1126.20202020202" y="907.3333333333333" type="line"/>
    </contour>
  </outline>
</glyph>
<glyph name="Ccedilla" format="2">
  <advance width="1267.5656565656564"/>
  <unicode hex="00C7"/>
  <anchor x="770.5656565656566" y="0.0" name="_bottom"/>
  <anchor x="770.5656565656566" y="0.0" name="bottom"/>
  <anchor x="768.4444444444443" y="1520.0" name="top"/>
  <outline>
    <contour>
      <point x="883.5454545454545" y="-19.717171717171716" type="curve" smooth="yes"/>
      <point x="1000.9595959595958" y="-19.717171717171716"/>
      <point x="1123.6969696969695" y="-2.1515151515151496"/>
      <point x="1216.969696969697" y="26.26262626262627" type="curve"/>
      <point x="1216.969696969697" y="338.10101010101005" type="line"/>
      <point x="1118.5858585858587" y="311.27272727272714"/>
      <point x="1019.0101010101009" y="294.41414141414134"/>
      <point x="921.3232323232322" y="294.41414141414134" type="curve" smooth="yes"/>
      <point x="617.6464646464646" y="294.41414141414134"/>
      <point x="475.90909090909076" y="418.4949494949494"/>
      <point x="475.90909090909076" y="740.2828282828283" type="curve" smooth="yes"/>
      <point x="475.90909090909076" y="1054.8080808080808"/>
      <point x="619.6666666666665" y="1185.5858585858587"/>
      <point x="931.4646464646464" y="1185.5858585858587" type="curve" smooth="yes"/>
      <point x="1032.8787878787878" y="1185.5858585858587"/>
      <point x="1126.7171717171716" y="1174.1616161616162"/>
      <point x="1216.969696969697" y="1154.6161616161617" type="curve"/>
      <point x="1216.969696969697" y="1466.4545454545455" type="line"/>
      <point x="1117.2626262626263" y="1488.8686868686868"/>
      <point x="1010.9696969696969" y="1499.7171717171718"/>
      <point x="899.5454545454545" y="1499.7171717171718" type="curve" smooth="yes"/>
      <point x="370.020202020202" y="1499.7171717171718"/>
      <point x="75.92929292929294" y="1236.4848484848485"/>
      <point x="75.92929292929294" y="736.2828282828283" type="curve" smooth="yes"/>
      <point x="75.92929292929294" y="212.9292929292929"/>
      <point x="363.7070707070707" y="-19.717171717171716"/>
    </contour>
    <contour>
      <point x="730.1919191919192" y="-451.5151515151515" type="curve" smooth="yes"/>
      <point x="930.050505050505" y="-451.5151515151515"/>
      <point x="1020.7878787878788" y="-377.75757575757575"/>
      <point x="1020.7878787878788" y="-260.2929292929293" type="curve" smooth="yes"/>
      <point x="1020.7878787878788" y="-142.82828282828282"/>
      <point x="931.7676767676767" y="-75.08080808080808"/>
      <point x="753.7979797979798" y="-75.08080808080808" type="curve"/>
      <point x="834.6262626262626" y="-124.82828282828284" type="line"/>
      <point x="834.6262626262626" y="20.0" type="line"/>
      <point x="660.1414141414141" y="20.0" type="line"/>
      <point x="660.1414141414141" y="-178.59595959595958" type="line"/>
      <point x="710.1616161616162" y="-178.59595959595958" type="line" smooth="yes"/>
      <point x="786.7171717171717" y="-178.59595959595958"/>
      <point x="828.2727272727273" y="-198.86868686868686"/>
      <point x="828.2727272727273" y="-247.41414141414143" type="curve" smooth="yes"/>
      <point x="828.2727272727273" y="-295.1010101010101"/>
      <point x="788.4343434343434" y="-312.7979797979798"/>
      <point x="711.3030303030303" y="-312.7979797979798" type="curve" smooth="yes"/>
      <point x="655.8787878787879" y="-312.7979797979798"/>
      <point x="584.5656565656566" y="-303.5151515151515"/>
      <point x="524.3030303030303" y="-282.67676767676767" type="curve"/>
      <point x="524.3030303030303" y="-421.10101010101005" type="line"/>
      <point x="583.7373737373738" y="-440.2323232323232"/>
      <point x="651.1616161616162" y="-451.5151515151515"/>
    </contour>
  </outline>
</glyph>
<glyph name="Egrave" format="2">
  <advance width="1285.0"/>
  <unicode hex="00C8"/>
  <anchor x="683.7979797979798" y="1520.0" name="_top"/>
  <anchor x="684.0808080808081" y="0.0" name="bottom"/>
  <anchor x="1124.5555555555554" y="0.0" name="ogonek"/>
  <anchor x="683.7979797979798" y="1520.0" name="top"/>
  <anchor x="38.42424242424242" y="1480.0" name="topleft"/>
  <outline>
    <contour>
      <point x="120.45454545454547" y="0.0" type="line"/>
      <point x="1213.141414141414" y="0.0" type="line"/>
      <point x="1213.141414141414" y="302.9696969696969" type="line"/>
      <point x="497.54545454545445" y="302.9696969696969" type="line"/>
      <point x="497.54545454545445" y="1177.030303030303" type="line"/>
      <point x="1203.141414141414" y="1177.030303030303" type="line"/>
      <point x="1203.141414141414" y="1480.0" type="line"/>
      <point x="120.45454545454547" y="1480.0" type="line"/>
    </contour>
    <contour>
      <point x="344.7474747474747" y="604.3636363636364" type="line"/>
      <point x="1099.5555555555554" y="604.3636363636364" type="line"/>
      <point x="1099.5555555555554" y="907.3333333333333" type="line"/>
      <point x="344.7474747474747" y="907.3333333333333" type="line"/>
    </contour>
    <contour>
      <point x="515.2828282828283" y="1590.2424242424242" type="line"/>
      <point x="852.3131313131312" y="1590.2424242424242" type="line"/>
      <point x="670.4444444444443" y="1900.020202020202" type="line"/>
      <point x="278.0606060606061" y="1900.020202020202" type="line"/>
    </contour>
  </outline>
</glyph>
<glyph name="Eacute" format="2">
  <advance width="1285.0"/>
  <unicode hex="00C9"/>
  <anchor x="683.7979797979798" y="1520.0" name="_top"/>
  <anchor x="684.0808080808081" y="0.0" name="bottom"/>
  <anchor x="1124.5555555555554" y="0.0" name="ogonek"/>
  <anchor x="683.7979797979798" y="1520.0" name="top"/>
  <anchor x="38.42424242424242" y="1480.0" name="topleft"/>
  <outline>
    <contour>
      <point x="120.45454545454547" y="0.0" type="line"/>
      <point x="1213.141414141414" y="0.0" type="line"/>
      <point x="1213.141414141414" y="302.9696969696969" type="line"/>
      <point x="497.54545454545445" y="302.9696969696969" type="line"/>
      <point x="497.54545454545445" y="1177.030303030303" type="line"/>
      <point x="1203.141414141414" y="1177.030303030303" type="line"/>
      <point x="1203.141414141414" y="1480.0" type="line"/>
      <point x="120.45454545454547" y="1480.0" type="line"/>
    </contour>
    <contour>
      <point x="344.7474747474747" y="604.3636363636364" type="line"/>
      <point x="1099.5555555555554" y="604.3636363636364" type="line"/>
      <point x="1099.5555555555554" y="907.3333333333333" type="line"/>
      <point x="344.7474747474747" y="907.3333333333333" type="line"/>
    </contour>
    <contour>
      <point x="513.5656565656566" y="1590.2424242424242" type="line"/>
      <point x="850.5959595959596" y="1590.2424242424242" type="line"/>
      <point x="1087.8181818181818" y="1900.020202020202" type="line"/>
      <point x="695.4343434343434" y="1900.020202020202" type="line"/>
    </contour>
  </outline>
</glyph>
<glyph name="Edieresis" format="2">
  <advance width="1285.0"/>
  <unicode hex="00CB"/>
  <anchor x="683.7979797979798" y="1520.0" name="_top"/>
  <anchor x="684.0808080808081" y="0.0" name="bottom"/>
  <anchor x="1124.5555555555554" y="0.0" name="ogonek"/>
  <anchor x="683.7979797979798" y="1520.0" name="top"/>
  <anchor x="38.42424242424242" y="1480.0" name="topleft"/>
  <outline>
    <contour>
      <point x="120.45454545454547" y="0.0" type="line"/>
      <point x="1213.141414141414" y="0.0" type="line"/>
      <point x="1213.141414141414" y="302.9696969696969" type="line"/>
      <point x="497.54545454545445" y="302.9696969696969" type="line"/>
      <point x="497.54545454545445" y="1177.030303030303" type="line"/>
      <point x="1203.141414141414" y="1177.030303030303" type="line"/>
      <point x="1203.141414141414" y="1480.0" type="line"/>
      <point x="120.45454545454547" y="1480.0" type="line"/>
    </contour>
    <contour>
      <point x="344.7474747474747" y="604.3636363636364" type="line"/>
      <point x="1099.5555555555554" y="604.3636363636364" type="line"/>
      <point x="1099.5555555555554" y="907.3333333333333" type="line"/>
      <point x="344.7474747474747" y="907.3333333333333" type="line"/>
    </contour>
    <contour>
      <point x="949.3030303030303" y="1586.969696969697" type="curve" smooth="yes"/>
      <point x="1079.7474747474748" y="1586.969696969697"/>
      <point x="1145.242424242424" y="1647.030303030303"/>
      <point x="1145.242424242424" y="1750.2828282828282" type="curve" smooth="yes"/>
      <point x="1145.242424242424" y="1853.5353535353536"/>
      <point x="1079.7474747474748" y="1913.8787878787878"/>
      <point x="949.3030303030303" y="1913.8787878787878" type="curve" smooth="yes"/>
      <point x="818.8585858585859" y="1913.8787878787878"/>
      <point x="753.3636363636364" y="1853.5353535353536"/>
      <point x="753.3636363636364" y="1750.2828282828282" type="curve" smooth="yes"/>
      <point x="753.3636363636364" y="1647.030303030303"/>
      <point x="818.8585858585859" y="1586.969696969697"/>
    </contour>
    <contour>
      <point x="418.2929292929293" y="1586.969696969697" type="curve" smooth="yes"/>
      <point x="548.7373737373737" y="1586.969696969697"/>
      <point x="614.2323232323232" y="1647.030303030303"/>
      <point x="614.2323232323232" y="1750.2828282828282" type="curve" smooth="yes"/>
      <point x="614.2323232323232" y="1853.5353535353536"/>
      <point x="548.7373737373737" y="1913.8787878787878"/>
      <point x="418.2929292929293" y="1913.8787878787878" type="curve" smooth="yes"/>
      <point x="287.8484848484849" y="1913.8787878787878"/>
      <point x="222.3535353535354" y="1853.5353535353536"/>
      <point x="222.3535353535354" y="1750.2828282828282" type="curve" smooth="yes"/>
      <point x="222.3535353535354" y="1647.030303030303"/>
      <point x="287.8484848484849" y="1586.969696969697"/>
    </contour>
  </outline>
</glyph>
<glyph name="Igrave" format="2">
  <advance width="623.151515151515"/>
  <unicode hex="00CC"/>
  <anchor x="311.5757575757575" y="1520.0" name="_top"/>
  <anchor x="310.7171717171717" y="0.0" name="bottom"/>
  <anchor x="502.6969696969696" y="0.0" name="ogonek"/>
  <anchor x="311.5757575757575" y="1520.0" name="top"/>
  <outline>
    <contour>
      <point x="120.45454545454547" y="0.0" type="line"/>
      <point x="502.6969696969696" y="0.0" type="line"/>
      <point x="502.6969696969696" y="1480.0" type="line"/>
      <point x="120.45454545454547" y="1480.0" type="line"/>
    </contour>
    <contour>
      <point x="143.0606060606061" y="1590.2424242424242" type="line"/>
      <point x="480.090909090909" y="1590.2424242424242" type="line"/>
      <point x="298.2222222222221" y="1900.020202020202" type="line"/>
      <point x="-94.16161616161612" y="1900.020202020202" type="line"/>
    </contour>
  </outline>
</glyph>
<glyph name="Iacute" format="2">
  <advance width="623.151515151515"/>
  <unicode hex="00CD"/>
  <anchor x="311.5757575757575" y="1520.0" name="_top"/>
  <anchor x="310.7171717171717" y="0.0" name="bottom"/>
  <anchor x="502.6969696969696" y="0.0" name="ogonek"/>
  <anchor x="311.5757575757575" y="1520.0" name="top"/>
  <outline>
    <contour>
      <point x="120.45454545454547" y="0.0" type="line"/>
      <point x="502.6969696969696" y="0.0" type="line"/>
      <point x="502.6969696969696" y="1480.0" type="line"/>
      <point x="120.45454545454547" y="1480.0" type="line"/>
    </contour>
    <contour>
      <point x="141.34343434343435" y="1590.2424242424242" type="line"/>
      <point x="478.3737373737373" y="1590.2424242424242" type="line"/>
      <point x="715.5959595959596" y="1900.020202020202" type="line"/>
      <point x="323.21212121212125" y="1900.020202020202" type="line"/>
    </contour>
  </outline>
</glyph>
<glyph name="Icircumflex" format="2">
  <advance width="623.151515151515"/>
  <unicode hex="00CE"/>
  <anchor x="311.5757575757575" y="1520.0" name="_top"/>
  <anchor x="310.7171717171717" y="0.0" name="bottom"/>
  <anchor x="502.6969696969696" y="0.0" name="ogonek"/>
  <anchor x="311.5757575757575" y="1520.0" name="top"/>
  <outline>
    <contour>
      <point x="120.45454545454547" y="0.0" type="line"/>
      <point x="502.6969696969696" y="0.0" type="line"/>
      <point x="502.6969696969696" y="1480.0" type="line"/>
      <point x="120.45454545454547" y="1480.0" type="line"/>
    </contour>
    <contour>
      <point x="-104.65656565656565" y="1590.2424242424242" type="line"/>
      <point x="172.9595959595959" y="1590.2424242424242" type="line"/>
      <point x="339.17171717171715" y="1800.6161616161617" type="line"/>
      <point x="283.9797979797979" y="1800.6161616161617" type="line"/>
      <point x="450.19191919191917" y="1590.2424242424242" type="line"/>
      <point x="727.8080808080807" y="1590.2424242424242" type="line"/>
      <point x="468.9191919191918" y="1900.020202020202" type="line"/>
      <point x="154.23232323232324" y="1900.020202020202" type="line"/>
    </contour>
  </outline>
</glyph>
<glyph name="Idieresis" format="2">
  <advance width="623.151515151515"/>
  <unicode hex="00CF"/>
  <anchor x="311.5757575757575" y="1520.0" name="_top"/>
  <anchor x="310.7171717171717" y="0.0" name="bottom"/>
  <anchor x="502.6969696969696" y="0.0" name="ogonek"/>
  <anchor x="311.5757575757575" y="1520.0" name="top"/>
  <outline>
    <contour>
      <point x="120.45454545454547" y="0.0" type="line"/>
      <point x="502.6969696969696" y="0.0" type="line"/>
      <point x="502.6969696969696" y="1480.0" type="line"/>
      <point x="120.45454545454547" y="1480.0" type="line"/>
    </contour>
    <contour>
      <point x="577.0808080808081" y="1586.969696969697" type="curve" smooth="yes"/>
      <point x="707.5252525252524" y="1586.969696969697"/>
      <point x="773.0202020202019" y="1647.030303030303"/>
      <point x="773.0202020202019" y="1750.2828282828282" type="curve" smooth="yes"/>
      <point x="773.0202020202019" y="1853.5353535353536"/>
      <point x="707.5252525252524" y="1913.8787878787878"/>
      <point x="577.0808080808081" y="1913.8787878787878" type="curve" smooth="yes"/>
      <point x="446.6363636363636" y="1913.8787878787878"/>
      <point x="381.14141414141415" y="1853.5353535353536"/>
      <point x="381.14141414141415" y="1750.2828282828282" type="curve" smooth="yes"/>
      <point x="381.14141414141415" y="1647.030303030303"/>
      <point x="446.6363636363636" y="1586.969696969697"/>
    </contour>
    <contour>
      <point x="46.07070707070705" y="1586.969696969697" type="curve" smooth="yes"/>
      <point x="176.51515151515144" y="1586.969696969697"/>
      <point x="242.01010101010093" y="1647.030303030303"/>
      <point x="242.01010101010093" y="1750.2828282828282" type="curve" smooth="yes"/>
      <point x="242.01010101010093" y="1853.5353535353536"/>
      <point x="176.51515151515144" y="1913.8787878787878"/>
      <point x="46.07070707070705" y="1913.8787878787878" type="curve" smooth="yes"/>
      <point x="-84.37373737373736" y="1913.8787878787878"/>
      <point x="-149.86868686868684" y="1853.5353535353536"/>
      <point x="-149.86868686868684" y="1750.2828282828282" type="curve" smooth="yes"/>
      <point x="-149.86868686868684" y="1647.030303030303"/>
      <point x="-84.37373737373736" y="1586.969696969697"/>
    </contour>
  </outline>
</glyph>
<glyph name="Ntilde" format="2">
  <advance width="1568.6666666666665"/>
  <unicode hex="00D1"/>
  <anchor x="784.4040404040404" y="1520.0" name="_top"/>
  <anchor x="784.4040404040404" y="0.0" name="bottom"/>
  <anchor x="784.4040404040404" y="1520.0" name="top"/>
  <outline>
    <contour>
      <point x="120.45454545454547" y="0.0" type="line"/>
      <point x="479.23232323232315" y="0.0" type="line"/>
      <point x="479.23232323232315" y="1001.0101010101012" type="line"/>
      <point x="418.18181818181813" y="1001.0101010101012" type="line"/>
      <point x="1065.8383838383838" y="0.0" type="line"/>
      <point x="1448.212121212121" y="0.0" type="line"/>
      <point x="1448.212121212121" y="1480.0" type="line"/>
      <point x="1089.4343434343434" y="1480.0" type="line"/>
      <point x="1089.4343434343434" y="478.98989898989885" type="line"/>
      <point x="1150.4848484848485" y="478.98989898989885" type="line"/>
      <point x="502.82828282828274" y="1480.0" type="line"/>
      <point x="120.45454545454547" y="1480.0" type="line"/>
    </contour>
    <contour>
      <point x="962.7474747474747" y="1601.6969696969697" type="curve" smooth="yes"/>
      <point x="1058.3636363636363" y="1601.6969696969697"/>
      <point x="1122.2424242424242" y="1623.6969696969697"/>
      <point x="1178.7070707070707" y="1674.7171717171718" type="curve"/>
      <point x="1178.7070707070707" y="1884.2424242424242" type="line"/>
      <point x="1113.3838383838383" y="1837.1010101010102"/>
      <point x="1055.3636363636363" y="1814.1010101010102"/>
      <point x="969.6161616161615" y="1814.1010101010102" type="curve" smooth="yes"/>
      <point x="845.8484848484848" y="1814.1010101010102"/>
      <point x="749.8282828282828" y="1891.8181818181818"/>
      <point x="606.060606060606" y="1891.8181818181818" type="curve" smooth="yes"/>
      <point x="510.44444444444446" y="1891.8181818181818"/>
      <point x="446.5656565656566" y="1868.1010101010102"/>
      <point x="390.1010101010101" y="1817.080808080808" type="curve"/>
      <point x="390.1010101010101" y="1607.5555555555557" type="line"/>
      <point x="455.42424242424244" y="1654.6969696969697"/>
      <point x="513.4444444444445" y="1677.6969696969697"/>
      <point x="599.1919191919192" y="1677.6969696969697" type="curve" smooth="yes"/>
      <point x="722.959595959596" y="1677.6969696969697"/>
      <point x="818.9797979797979" y="1601.6969696969697"/>
    </contour>
  </outline>
</glyph>
<glyph name="Otilde" format="2">
  <advance width="1604.969696969697"/>
  <unicode hex="00D5"/>
  <anchor x="802.4848484848485" y="1520.0" name="_top"/>
  <anchor x="802.4848484848485" y="0.0" name="bottom"/>
  <anchor x="802.4848484848485" y="740.0" name="center"/>
  <anchor x="975.3636363636363" y="0.0" name="ogonek"/>
  <anchor x="802.4848484848485" y="1520.0" name="top"/>
  <anchor x="50.01010101010101" y="1480.0" name="topleft"/>
  <anchor x="1002.6969696969696" y="1480.0" name="topright"/>
  <outline>
    <contour>
      <point x="802.4848484848485" y="-19.717171717171716" type="curve" smooth="yes"/>
      <point x="1242.3737373737372" y="-19.717171717171716"/>
      <point x="1529.040404040404" y="232.77777777777777"/>
      <point x="1529.040404040404" y="740.0" type="curve" smooth="yes"/>
      <point x="1529.040404040404" y="1247.2222222222222"/>
      <point x="1243.6565656565656" y="1499.7171717171718"/>
      <point x="802.4848484848485" y="1499.7171717171718" type="curve" smooth="yes"/>
      <point x="361.73737373737373" y="1499.7171717171718"/>
      <point x="75.92929292929294" y="1248.939393939394"/>
      <point x="75.92929292929294" y="740.0" type="curve" smooth="yes"/>
      <point x="75.92929292929294" y="231.06060606060606"/>
      <point x="362.17171717171715" y="-19.717171717171716"/>
    </contour>
    <contour>
      <point x="802.4848484848485" y="286.82828282828274" type="curve" smooth="yes"/>
      <point x="589.1919191919192" y="286.82828282828274"/>
      <point x="467.32323232323216" y="415.4646464646464"/>
      <point x="467.32323232323216" y="747.4343434343434" type="curve" smooth="yes"/>
      <point x="467.32323232323216" y="1064.5353535353536"/>
      <point x="591.7676767676767" y="1193.1717171717173"/>
      <point x="802.4848484848485" y="1193.1717171717173" type="curve" smooth="yes"/>
      <point x="1013.2020202020202" y="1193.1717171717173"/>
      <point x="1137.6464646464647" y="1061.959595959596"/>
      <point x="1137.6464646464647" y="732.5656565656566" type="curve" smooth="yes"/>
      <point x="1137.6464646464647" y="418.0404040404039"/>
      <point x="1015.7777777777778" y="286.82828282828274"/>
    </contour>
    <contour>
      <point x="980.8282828282827" y="1601.6969696969697" type="curve" smooth="yes"/>
      <point x="1076.4444444444443" y="1601.6969696969697"/>
      <point x="1140.3232323232323" y="1623.6969696969697"/>
      <point x="1196.7878787878788" y="1674.7171717171718" type="curve"/>
      <point x="1196.7878787878788" y="1884.2424242424242" type="line"/>
      <point x="1131.4646464646464" y="1837.1010101010102"/>
      <point x="1073.4444444444443" y="1814.1010101010102"/>
      <point x="987.6969696969696" y="1814.1010101010102" type="curve" smooth="yes"/>
      <point x="863.9292929292928" y="1814.1010101010102"/>
      <point x="767.9090909090909" y="1891.8181818181818"/>
      <point x="624.1414141414141" y="1891.8181818181818" type="curve" smooth="yes"/>
      <point x="528.5252525252524" y="1891.8181818181818"/>
      <point x="464.64646464646466" y="1868.1010101010102"/>
      <point x="408.1818181818182" y="1817.080808080808" type="curve"/>
      <point x="408.1818181818182" y="1607.5555555555557" type="line"/>
      <point x="473.50505050505046" y="1654.6969696969697"/>
      <point x="531.5252525252525" y="1677.6969696969697"/>
      <point x="617.2727272727273" y="1677.6969696969697" type="curve" smooth="yes"/>
      <point x="741.0404040404039" y="1677.6969696969697"/>
      <point x="837.060606060606" y="1601.6969696969697"/>
    </contour>
  </outline>
</glyph>
<glyph name="Odieresis" format="2">
  <advance width="1604.969696969697"/>
  <unicode hex="00D6"/>
  <anchor x="802.4848484848485" y="1520.0" name="_top"/>
  <anchor x="802.4848484848485" y="0.0" name="bottom"/>
  <anchor x="802.4848484848485" y="740.0" name="center"/>
  <anchor x="975.3636363636363" y="0.0" name="ogonek"/>
  <anchor x="802.4848484848485" y="1520.0" name="top"/>
  <anchor x="50.01010101010101" y="1480.0" name="topleft"/>
  <anchor x="1002.6969696969696" y="1480.0" name="topright"/>
  <outline>
    <contour>
      <point x="802.4848484848485" y="-19.717171717171716" type="curve" smooth="yes"/>
      <point x="1242.3737373737372" y="-19.717171717171716"/>
      <point x="1529.040404040404" y="232.77777777777777"/>
      <point x="1529.040404040404" y="740.0" type="curve" smooth="yes"/>
      <point x="1529.040404040404" y="1247.2222222222222"/>
      <point x="1243.6565656565656" y="1499.7171717171718"/>
      <point x="802.4848484848485" y="1499.7171717171718" type="curve" smooth="yes"/>
      <point x="361.73737373737373" y="1499.7171717171718"/>
      <point x="75.92929292929294" y="1248.939393939394"/>
      <point x="75.92929292929294" y="740.0" type="curve" smooth="yes"/>
      <point x="75.92929292929294" y="231.06060606060606"/>
      <point x="362.17171717171715" y="-19.717171717171716"/>
    </contour>
    <contour>
      <point x="802.4848484848485" y="286.82828282828274" type="curve" smooth="yes"/>
      <point x="589.1919191919192" y="286.82828282828274"/>
      <point x="467.32323232323216" y="415.4646464646464"/>
      <point x="467.32323232323216" y="747.4343434343434" type="curve" smooth="yes"/>
      <point x="467.32323232323216" y="1064.5353535353536"/>
      <point x="591.7676767676767" y="1193.1717171717173"/>
      <point x="802.4848484848485" y="1193.1717171717173" type="curve" smooth="yes"/>
      <point x="1013.2020202020202" y="1193.1717171717173"/>
      <point x="1137.6464646464647" y="1061.959595959596"/>
      <point x="1137.6464646464647" y="732.5656565656566" type="curve" smooth="yes"/>
      <point x="1137.6464646464647" y="418.0404040404039"/>
      <point x="1015.7777777777778" y="286.82828282828274"/>
    </contour>
    <contour>
      <point x="1067.9898989898988" y="1586.969696969697" type="curve" smooth="yes"/>
      <point x="1198.4343434343432" y="1586.969696969697"/>
      <point x="1263.9292929292928" y="1647.030303030303"/>
      <point x="1263.9292929292928" y="1750.2828282828282" type="curve" smooth="yes"/>
      <point x="1263.9292929292928" y="1853.5353535353536"/>
      <point x="1198.4343434343432" y="1913.8787878787878"/>
      <point x="1067.9898989898988" y="1913.8787878787878" type="curve" smooth="yes"/>
      <point x="937.5454545454545" y="1913.8787878787878"/>
      <point x="872.0505050505051" y="1853.5353535353536"/>
      <point x="872.0505050505051" y="1750.2828282828282" type="curve" smooth="yes"/>
      <point x="872.0505050505051" y="1647.030303030303"/>
      <point x="937.5454545454545" y="1586.969696969697"/>
    </contour>
    <contour>
      <point x="536.9797979797979" y="1586.969696969697" type="curve" smooth="yes"/>
      <point x="667.4242424242424" y="1586.969696969697"/>
      <point x="732.9191919191919" y="1647.030303030303"/>
      <point x="732.9191919191919" y="1750.2828282828282" type="curve" smooth="yes"/>
      <point x="732.9191919191919" y="1853.5353535353536"/>
      <point x="667.4242424242424" y="1913.8787878787878"/>
      <point x="536.9797979797979" y="1913.8787878787878" type="curve" smooth="yes"/>
      <point x="406.5353535353535" y="1913.8787878787878"/>
      <point x="341.04040404040404" y="1853.5353535353536"/>
      <point x="341.04040404040404" y="1750.2828282828282" type="curve" smooth="yes"/>
      <point x="341.04040404040404" y="1647.030303030303"/>
      <point x="406.5353535353535" y="1586.969696969697"/>
    </contour>
  </outline>
</glyph>
<glyph name="multiply" format="2">
  <advance width="1054.9898989898988"/>
  <unicode hex="00D7"/>
  <outline>
    <contour>
      <point x="276.1616161616161" y="308.4040404040404" type="line"/>
      <point x="527.4949494949494" y="559.7373737373738" type="line"/>
      <point x="778.8282828282828" y="308.4040404040404" type="line"/>
      <point x="979.090909090909" y="508.66666666666663" type="line"/>
      <point x="727.7575757575758" y="760.0" type="line"/>
      <point x="979.090909090909" y="1011.3333333333334" type="line"/>
      <point x="778.8282828282828" y="1211.5959595959596" type="line"/>
      <point x="527.4949494949494" y="960.2626262626262" type="line"/>
      <point x="276.1616161616161" y="1211.5959595959596" type="line"/>
      <point x="75.89898989898992" y="1011.3333333333334" type="line"/>
      <point x="327.23232323232327" y="760.0" type="line"/>
      <point x="75.89898989898992" y="508.66666666666663" type="line"/>
    </contour>
  </outline>
</glyph>
<glyph name="Oslash" format="2">
  <advance width="1604.969696969697"/>
  <unicode hex="00D8"/>
  <anchor x="802.4848484848485" y="740.0" name="_center"/>
  <anchor x="801.3434343434343" y="0.0" name="bottom"/>
  <anchor x="802.4848484848485" y="740.0" name="center"/>
  <anchor x="975.3636363636363" y="0.0" name="ogonek"/>
  <anchor x="801.060606060606" y="1520.0" name="top"/>
  <anchor x="50.01010101010101" y="1480.0" name="topleft"/>
  <anchor x="1002.6969696969696" y="1480.0" name="topright"/>
  <outline>
    <contour>
      <point x="802.4848484848485" y="-19.717171717171716" type="curve" smooth="yes"/>
      <point x="1242.3737373737372" y="-19.717171717171716"/>
      <point x="1529.040404040404" y="232.77777777777777"/>
      <point x="1529.040404040404" y="740.0" type="curve" smooth="yes"/>
      <point x="1529.040404040404" y="1247.2222222222222"/>
      <point x="1243.6565656565656" y="1499.7171717171718"/>
      <point x="802.4848484848485" y="1499.7171717171718" type="curve" smooth="yes"/>
      <point x="361.73737373737373" y="1499.7171717171718"/>
      <point x="75.92929292929294" y="1248.939393939394"/>
      <point x="75.92929292929294" y="740.0" type="curve" smooth="yes"/>
      <point x="75.92929292929294" y="231.06060606060606"/>
      <point x="362.17171717171715" y="-19.717171717171716"/>
    </contour>
    <contour>
      <point x="802.4848484848485" y="286.82828282828274" type="curve" smooth="yes"/>
      <point x="589.1919191919192" y="286.82828282828274"/>
      <point x="467.32323232323216" y="415.4646464646464"/>
      <point x="467.32323232323216" y="747.4343434343434" type="curve" smooth="yes"/>
      <point x="467.32323232323216" y="1064.5353535353536"/>
      <point x="591.7676767676767" y="1193.1717171717173"/>
      <point x="802.4848484848485" y="1193.1717171717173" type="curve" smooth="yes"/>
      <point x="1013.2020202020202" y="1193.1717171717173"/>
      <point x="1137.6464646464647" y="1061.959595959596"/>
      <point x="1137.6464646464647" y="732.5656565656566" type="curve" smooth="yes"/>
      <point x="1137.6464646464647" y="418.0404040404039"/>
      <point x="1015.7777777777778" y="286.82828282828274"/>
    </contour>
    <contour>
      <point x="298.7777777777777" y="-55.49494949494948" type="line"/>
      <point x="1458.5050505050503" y="1415.3535353535353" type="line"/>
      <point x="1306.1919191919192" y="1535.4949494949494" type="line"/>
      <point x="146.46464646464645" y="64.64646464646462" type="line"/>
    </contour>
  </outline>
</glyph>
<glyph name="Uacute" format="2">
  <advance width="1522.2525252525252"/>
  <unicode hex="00DA"/>
  <anchor x="765.1313131313132" y="1520.0" name="_top"/>
  <anchor x="765.1313131313132" y="0.0" name="bottom"/>
  <anchor x="1003.1616161616162" y="0.28282828282828354" name="ogonek"/>
  <anchor x="765.1313131313132" y="1520.0" name="top"/>
  <anchor x="1062.1818181818182" y="1480.0" name="topright"/>
  <outline>
    <contour>
      <point x="765.1313131313132" y="-19.717171717171716" type="curve" smooth="yes"/>
      <point x="1210.010101010101" y="-19.717171717171716"/>
      <point x="1408.080808080808" y="194.64646464646464"/>
      <point x="1408.080808080808" y="632.030303030303" type="curve" smooth="yes"/>
      <point x="1408.080808080808" y="1480.0" type="line"/>
      <point x="1032.989898989899" y="1480.0" type="line"/>
      <point x="1032.989898989899" y="595.4141414141413" type="line" smooth="yes"/>
      <point x="1032.989898989899" y="379.4545454545454"/>
      <point x="942.2020202020202" y="291.8383838383837"/>
      <point x="765.1313131313132" y="291.8383838383837" type="curve" smooth="yes"/>
      <point x="588.060606060606" y="291.8383838383837"/>
      <point x="496.4141414141413" y="379.4545454545454"/>
      <point x="496.4141414141413" y="595.4141414141413" type="curve" smooth="yes"/>
      <point x="496.4141414141413" y="1480.0" type="line"/>
      <point x="114.1717171717172" y="1480.0" type="line"/>
      <point x="114.1717171717172" y="632.030303030303" type="line" smooth="yes"/>
      <point x="114.1717171717172" y="194.64646464646464"/>
      <point x="314.24242424242425" y="-19.717171717171716"/>
    </contour>
    <contour>
      <point x="594.89898989899" y="1590.2424242424242" type="line"/>
      <point x="931.9292929292928" y="1590.2424242424242" type="line"/>
      <point x="1169.151515151515" y="1900.020202020202" type="line"/>
      <point x="776.7676767676768" y="1900.020202020202" type="line"/>
    </contour>
  </outline>
</glyph>
<glyph name="Udieresis" format="2">
  <advance width="1522.2525252525252"/>
  <unicode hex="00DC"/>
  <anchor x="765.1313131313132" y="1520.0" name="_top"/>
  <anchor x="765.1313131313132" y="0.0" name="bottom"/>
  <anchor x="1003.1616161616162" y="0.28282828282828354" name="ogonek"/>
  <anchor x="765.1313131313132" y="1520.0" name="top"/>
  <anchor x="1062.1818181818182" y="1480.0" name="topright"/>
  <outline>
    <contour>
      <point x="765.1313131313132" y="-19.717171717171716" type="curve" smooth="yes"/>
      <point x="1210.010101010101" y="-19.717171717171716"/>
      <point x="1408.080808080808" y="194.64646464646464"/>
      <point x="1408.080808080808" y="632.030303030303" type="curve" smooth="yes"/>
      <point x="1408.080808080808" y="1480.0" type="line"/>
      <point x="1032.989898989899" y="1480.0" type="line"/>
      <point x="1032.989898989899" y="595.4141414141413" type="line" smooth="yes"/>
      <point x="1032.989898989899" y="379.4545454545454"/>
      <point x="942.2020202020202" y="291.8383838383837"/>
      <point x="765.1313131313132" y="291.8383838383837" type="curve" smooth="yes"/>
      <point x="588.060606060606" y="291.8383838383837"/>
      <point x="496.4141414141413" y="379.4545454545454"/>
      <point x="496.4141414141413" y="595.4141414141413" type="curve" smooth="yes"/>
      <point x="496.4141414141413" y="1480.0" type="line"/>
      <point x="114.1717171717172" y="1480.0" type="line"/>
      <point x="114.1717171717172" y="632.030303030303" type="line" smooth="yes"/>
      <point x="114.1717171717172" y="194.64646464646464"/>
      <point x="314.24242424242425" y="-19.717171717171716"/>
    </contour>
    <contour>
      <point x="1030.6363636363635" y="1586.969696969697" type="curve" smooth="yes"/>
      <point x="1161.080808080808" y="1586.969696969697"/>
      <point x="1226.5757575757575" y="1647.030303030303"/>
      <point x="1226.5757575757575" y="1750.2828282828282" type="curve" smooth="yes"/>
      <point x="1226.5757575757575" y="1853.5353535353536"/>
      <point x="1161.080808080808" y="1913.8787878787878"/>
      <point x="1030.6363636363635" y="1913.8787878787878" type="curve" smooth="yes"/>
      <point x="900.1919191919192" y="1913.8787878787878"/>
      <point x="834.6969696969697" y="1853.5353535353536"/>
      <point x="834.6969696969697" y="1750.2828282828282" type="curve" smooth="yes"/>
      <point x="834.6969696969697" y="1647.030303030303"/>
      <point x="900.1919191919192" y="1586.969696969697"/>
    </contour>
    <contour>
      <point x="499.6262626262626" y="1586.969696969697" type="curve" smooth="yes"/>
      <point x="630.070707070707" y="1586.969696969697"/>
      <point x="695.5656565656565" y="1647.030303030303"/>
      <point x="695.5656565656565" y="1750.2828282828282" type="curve" smooth="yes"/>
      <point x="695.5656565656565" y="1853.5353535353536"/>
      <point x="630.070707070707" y="1913.8787878787878"/>
      <point x="499.6262626262626" y="1913.8787878787878" type="curve" smooth="yes"/>
      <point x="369.1818181818182" y="1913.8787878787878"/>
      <point x="303.6868686868687" y="1853.5353535353536"/>
      <point x="303.6868686868687" y="1750.2828282828282" type="curve" smooth="yes"/>
      <point x="303.6868686868687" y="1647.030303030303"/>
      <point x="369.1818181818182" y="1586.969696969697"/>
    </contour>
  </outline>
</glyph>
<glyph name="Thorn" format="2">
  <advance width="1356.2727272727273"/>
  <unicode hex="00DE"/>
  <outline>
    <contour>
      <point x="120.45454545454547" y="0.0" type="line"/>
      <point x="502.6969696969696" y="0.0" type="line"/>
      <point x="502.6969696969696" y="218.60606060606062" type="line"/>
      <point x="544.7777777777777" y="217.4747474747475"/>
      <point x="585.020202020202" y="215.33333333333337"/>
      <point x="631.3939393939394" y="215.33333333333337" type="curve" smooth="yes"/>
      <point x="1055.111111111111" y="215.33333333333337"/>
      <point x="1279.040404040404" y="399.49494949494954"/>
      <point x="1279.040404040404" y="760.1414141414141" type="curve" smooth="yes"/>
      <point x="1279.040404040404" y="1138.2121212121212"/>
      <point x="1051.6969696969695" y="1305.5252525252524"/>
      <point x="598.6868686868686" y="1305.5252525252524" type="curve" smooth="yes"/>
      <point x="565.6767676767677" y="1305.5252525252524"/>
      <point x="529.7676767676767" y="1302.3939393939393"/>
      <point x="502.6969696969696" y="1300.6969696969697" type="curve"/>
      <point x="502.6969696969696" y="1480.141414141414" type="line"/>
      <point x="120.45454545454547" y="1480.141414141414" type="line"/>
    </contour>
    <contour>
      <point x="631.8181818181818" y="499.41414141414134" type="curve" smooth="yes"/>
      <point x="582.3030303030303" y="499.41414141414134"/>
      <point x="545.6464646464646" y="501.69696969696963"/>
      <point x="502.6969696969696" y="506.5454545454545" type="curve"/>
      <point x="502.6969696969696" y="1011.4646464646465" type="line"/>
      <point x="541.9090909090908" y="1018.5959595959597"/>
      <point x="578.2525252525252" y="1021.4444444444446"/>
      <point x="628.7373737373737" y="1021.4444444444446" type="curve" smooth="yes"/>
      <point x="820.5151515151515" y="1021.4444444444446"/>
      <point x="909.1111111111112" y="943.2424242424242"/>
      <point x="909.1111111111112" y="758.0" type="curve" smooth="yes"/>
      <point x="909.1111111111112" y="570.7272727272727"/>
      <point x="821.0808080808081" y="499.41414141414134"/>
    </contour>
  </outline>
</glyph>
<glyph name="germandbls" format="2">
  <advance width="1629.7171717171716"/>
  <unicode hex="00DF"/>
  <outline>
    <contour>
      <point x="1052.6666666666665" y="-21.434343434343432" type="curve" smooth="yes"/>
      <point x="1399.3939393939393" y="-21.434343434343432"/>
      <point x="1587.4949494949494" y="116.6060606060606"/>
      <point x="1587.4949494949494" y="342.67676767676767" type="curve" smooth="yes"/>
      <point x="1587.4949494949494" y="543.6262626262626"/>
      <point x="1480.0" y="629.4747474747475"/>
      <point x="1287.0202020202019" y="664.4545454545454" type="curve" smooth="yes"/>
      <point x="1098.7777777777776" y="697.6060606060605" type="line" smooth="yes"/>
      <point x="1042.9292929292928" y="708.2828282828283"/>
      <point x="1023.4141414141412" y="727.0505050505051"/>
      <point x="1023.4141414141412" y="760.4949494949495" type="curve" smooth="yes"/>
      <point x="1023.4141414141412" y="804.2121212121212"/>
      <point x="1060.7575757575755" y="845.4040404040404"/>
      <point x="1252.7070707070707" y="845.4040404040404" type="curve" smooth="yes"/>
      <point x="1311.262626262626" y="845.4040404040404"/>
      <point x="1364.0" y="842.6969696969697"/>
      <point x="1410.5858585858584" y="837.2727272727274" type="curve"/>
      <point x="1431.171717171717" y="917.6161616161617"/>
      <point x="1446.6060606060605" y="998.0404040404042"/>
      <point x="1446.6060606060605" y="1087.939393939394" type="curve" smooth="yes"/>
      <point x="1446.6060606060605" y="1469.2121212121212"/>
      <point x="1209.3636363636363" y="1636.0"/>
      <point x="868.0404040404039" y="1636.0" type="curve" smooth="yes"/>
      <point x="443.64646464646466" y="1636.0"/>
      <point x="195.50505050505052" y="1403.4343434343434"/>
      <point x="195.50505050505052" y="1014.6262626262627" type="curve" smooth="yes"/>
      <point x="195.50505050505052" y="0.0" type="line"/>
      <point x="570.0202020202019" y="0.0" type="line"/>
      <point x="570.0202020202019" y="1019.7878787878789" type="line" smooth="yes"/>
      <point x="570.0202020202019" y="1264.3939393939395"/>
      <point x="674.6767676767676" y="1381.1111111111113"/>
      <point x="897.2323232323231" y="1381.1111111111113" type="curve" smooth="yes"/>
      <point x="1067.6161616161617" y="1381.1111111111113"/>
      <point x="1183.4141414141413" y="1306.4242424242425"/>
      <point x="1183.2727272727273" y="1118.4242424242425" type="curve" smooth="yes"/>
      <point x="1183.2727272727273" y="1051.959595959596"/>
      <point x="1172.979797979798" y="989.5151515151516"/>
      <point x="1156.111111111111" y="928.2020202020203" type="curve"/>
      <point x="1365.6868686868686" y="1097.7373737373737" type="line"/>
      <point x="1324.262626262626" y="1102.1616161616162"/>
      <point x="1238.4747474747473" y="1104.3030303030303"/>
      <point x="1198.6161616161617" y="1104.3030303030303" type="curve" smooth="yes"/>
      <point x="852.8989898989898" y="1104.3030303030303"/>
      <point x="676.8080808080807" y="971.5757575757576"/>
      <point x="676.8080808080807" y="752.0606060606061" type="curve" smooth="yes"/>
      <point x="676.8080808080807" y="571.4242424242425"/>
      <point x="769.2727272727273" y="466.1212121212121"/>
      <point x="977.8686868686868" y="429.8484848484849" type="curve" smooth="yes"/>
      <point x="1166.111111111111" y="396.69696969696975" type="line" smooth="yes"/>
      <point x="1222.2424242424242" y="386.0202020202021"/>
      <point x="1240.888888888889" y="368.0909090909091"/>
      <point x="1240.888888888889" y="329.8080808080808" type="curve" smooth="yes"/>
      <point x="1240.888888888889" y="279.3939393939393"/>
      <point x="1198.8383838383838" y="248.05050505050497"/>
      <point x="1047.6565656565656" y="248.05050505050497" type="curve" smooth="yes"/>
      <point x="938.9090909090908" y="248.05050505050497"/>
      <point x="805.6767676767677" y="265.7777777777777"/>
      <point x="708.2626262626262" y="290.9090909090908" type="curve"/>
      <point x="708.2626262626262" y="20.282828282828284" type="line"/>
      <point x="815.7272727272726" y="-7.717171717171716"/>
      <point x="946.5151515151515" y="-21.434343434343432"/>
    </contour>
    <contour>
      <point x="27.020202020202014" y="799.3535353535354" type="line"/>
      <point x="332.93939393939394" y="799.3535353535354" type="line"/>
      <point x="332.93939393939394" y="1097.171717171717" type="line"/>
      <point x="27.020202020202014" y="1097.171717171717" type="line"/>
    </contour>
  </outline>
</glyph>
<glyph name="acircumflex" format="2">
  <advance width="1148.141414141414"/>
  <unicode hex="00E2"/>
  <anchor x="570.8585858585858" y="1200.0" name="_top"/>
  <anchor x="572.8383838383838" y="0.0" name="bottom"/>
  <anchor x="1047.949494949495" y="0.0" name="ogonek"/>
  <anchor x="570.8585858585858" y="1200.0" name="top"/>
  <outline>
    <contour>
      <point x="416.8484848484849" y="-21.15151515151515" type="curve" smooth="yes"/>
      <point x="532.5353535353536" y="-21.15151515151515"/>
      <point x="634.6464646464647" y="15.676767676767685"/>
      <point x="698.3434343434344" y="104.81818181818183" type="curve"/>
      <point x="714.929292929293" y="104.81818181818183" type="line"/>
      <point x="740.6767676767677" y="0.0" type="line"/>
      <point x="1047.949494949495" y="0.0" type="line"/>
      <point x="1047.949494949495" y="629.2323232323233" type="line" smooth="yes"/>
      <point x="1047.949494949495" y="993.1111111111111"/>
      <point x="888.1919191919192" y="1114.888888888889"/>
      <point x="514.5252525252525" y="1114.888888888889" type="curve" smooth="yes"/>
      <point x="401.4949494949495" y="1114.888888888889"/>
      <point x="260.16161616161617" y="1099.6060606060605"/>
      <point x="147.11111111111111" y="1069.3232323232323" type="curve"/>
      <point x="147.11111111111111" y="790.969696969697" type="line"/>
      <point x="244.24242424242425" y="819.3838383838385"/>
      <point x="359.54545454545456" y="833.3838383838385"/>
      <point x="444.979797979798" y="833.3838383838385" type="curve" smooth="yes"/>
      <point x="623.8181818181819" y="833.3838383838385"/>
      <point x="682.8787878787879" y="787.4040404040404"/>
      <point x="682.8787878787879" y="654.1313131313132" type="curve" smooth="yes"/>
      <point x="682.8787878787879" y="281.8181818181818" type="line"/>
      <point x="640.8181818181819" y="247.39393939393935"/>
      <point x="589.2222222222222" y="235.45454545454538"/>
      <point x="543.4848484848484" y="235.45454545454538" type="curve" smooth="yes"/>
      <point x="463.9090909090908" y="235.45454545454538"/>
      <point x="420.6868686868686" y="272.9595959595959"/>
      <point x="420.6868686868686" y="339.1111111111111" type="curve" smooth="yes"/>
      <point x="420.6868686868686" y="407.42424242424244"/>
      <point x="464.05050505050497" y="448.0808080808081"/>
      <point x="568.8888888888889" y="455.62626262626264" type="curve" smooth="yes"/>
      <point x="778.969696969697" y="469.72727272727275" type="line"/>
      <point x="737.3333333333334" y="670.5252525252525" type="line"/>
      <point x="528.8181818181818" y="656.4242424242424" type="line" smooth="yes"/>
      <point x="192.95959595959596" y="636.0101010101009"/>
      <point x="53.05050505050507" y="513.969696969697"/>
      <point x="53.05050505050507" y="303.06060606060606" type="curve" smooth="yes"/>
      <point x="53.05050505050507" y="111.75757575757575"/>
      <point x="186.07070707070707" y="-21.15151515151515"/>
    </contour>
    <contour>
      <point x="183.4949494949495" y="1226.2222222222222" type="line"/>
      <point x="446.81818181818176" y="1226.2222222222222" type="line"/>
      <point x="596.7373737373737" y="1490.5454545454545" type="line"/>
      <point x="544.9797979797979" y="1490.5454545454545" type="line"/>
      <point x="694.8989898989898" y="1226.2222222222222" type="line"/>
      <point x="958.2222222222222" y="1226.2222222222222" type="line"/>
      <point x="722.1919191919192" y="1616.0" type="line"/>
      <point x="419.52525252525254" y="1616.0" type="line"/>
    </contour>
  </outline>
</glyph>
